<?xml version="1.0" encoding="utf-8"?>
<svg width="238.69995px" height="174.76428px" viewBox="0 0 238.69995 174.76428" version="1.1" xmlns:xlink="http://www.w3.org/1999/xlink" xmlns="http://www.w3.org/2000/svg">
  <defs>
    <path d="M0 0L164 0L164 143.057L0 143.057L0 0Z" id="path_1" />
    <clipPath id="mask_1">
      <use xlink:href="#path_1" />
    </clipPath>
  </defs>
  <g id="Group-39">
    <g id="undraw_personal_notebook_re_d7dc" transform="translate(0 31.70752)">
      <path d="M0 0L164 0L164 143.057L0 143.057L0 0Z" id="Background" fill="#FFFFFF" fill-opacity="0" fill-rule="evenodd" stroke="none" />
      <g clip-path="url(#mask_1)">
        <path d="M114.352 135.7C113.986 135.7 113.626 135.604 113.308 135.424L52.9786 101.316C51.9576 100.737 51.5978 99.4406 52.1742 98.4182L99.6914 14.371C99.9689 13.88 100.43 13.5194 100.973 13.3685C101.517 13.2176 102.098 13.2889 102.589 13.5665L162.918 47.6747C163.939 48.2534 164.299 49.5495 163.723 50.5719L116.205 134.619C115.929 135.111 115.468 135.472 114.923 135.622C114.737 135.673 114.545 135.7 114.352 135.7L114.352 135.7Z" id="Shape" fill="#E6E6E6" stroke="none" />
        <path d="M97.7666 18.0926L98.009 17.6638L161.769 53.7114L161.527 54.1402L97.7666 18.0926Z" id="Rectangle" fill="#FFFFFF" fill-rule="evenodd" stroke="none" />
        <path d="M93.4026 25.8113L93.645 25.3824L157.405 61.43L157.163 61.8588L93.4026 25.8113Z" id="Rectangle" fill="#FFFFFF" fill-rule="evenodd" stroke="none" />
        <path d="M89.0391 33.5299L89.2815 33.1011L153.041 69.1486L152.799 69.5774L89.0391 33.5299Z" id="Rectangle" fill="#FFFFFF" fill-rule="evenodd" stroke="none" />
        <path d="M84.675 41.2484L84.9175 40.8196L148.677 76.8671L148.435 77.2959L84.675 41.2484Z" id="Rectangle" fill="#FFFFFF" fill-rule="evenodd" stroke="none" />
        <path d="M80.3113 48.9671L80.5537 48.5383L144.314 84.5859L144.071 85.0147L80.3113 48.9671Z" id="Rectangle" fill="#FFFFFF" fill-rule="evenodd" stroke="none" />
        <path d="M75.9475 56.6856L76.1899 56.2568L139.95 92.3044L139.707 92.7332L75.9475 56.6856Z" id="Rectangle" fill="#FFFFFF" fill-rule="evenodd" stroke="none" />
        <path d="M71.5835 64.4043L71.8259 63.9755L135.586 100.023L135.343 100.452L71.5835 64.4043Z" id="Rectangle" fill="#FFFFFF" fill-rule="evenodd" stroke="none" />
        <path d="M67.2197 72.1229L67.4622 71.6941L131.222 107.742L130.98 108.17L67.2197 72.1229Z" id="Rectangle" fill="#FFFFFF" fill-rule="evenodd" stroke="none" />
        <path d="M62.856 79.8414L63.0984 79.4126L126.858 115.46L126.616 115.889L62.856 79.8414Z" id="Rectangle" fill="#FFFFFF" fill-rule="evenodd" stroke="none" />
        <path d="M58.4922 87.5602L58.7346 87.1313L122.495 123.179L122.252 123.608L58.4922 87.5602Z" id="Rectangle" fill="#FFFFFF" fill-rule="evenodd" stroke="none" />
        <path d="M54.1287 95.2788L54.3711 94.85L118.131 130.898L117.889 131.326L54.1287 95.2788Z" id="Rectangle" fill="#FFFFFF" fill-rule="evenodd" stroke="none" />
        <path d="M108.74 122.917C108.374 122.916 108.014 122.821 107.696 122.64L47.3666 88.5324C46.3456 87.9535 45.9857 86.6574 46.5621 85.6349L94.0794 1.58778C94.3568 1.0968 94.818 0.736173 95.3614 0.585298C95.9047 0.434424 96.4858 0.505672 96.9767 0.783348L157.306 34.8915C158.327 35.4702 158.687 36.7663 158.111 37.7887L110.593 121.836C110.317 122.328 109.856 122.689 109.311 122.838C109.125 122.89 108.933 122.917 108.74 122.917L108.74 122.917Z" id="Shape" fill="#F2F2F2" stroke="none" />
        <path d="M92.1543 5.3093L92.3967 4.88049L156.157 40.9281L155.914 41.3569L92.1543 5.3093Z" id="Rectangle" fill="#FFFFFF" fill-rule="evenodd" stroke="none" />
        <path d="M87.7908 13.0279L88.0332 12.5991L151.793 48.6467L151.551 49.0755L87.7908 13.0279Z" id="Rectangle" fill="#FFFFFF" fill-rule="evenodd" stroke="none" />
        <path d="M83.4265 20.7466L83.6689 20.3177L147.429 56.3653L147.186 56.7941L83.4265 20.7466Z" id="Rectangle" fill="#FFFFFF" fill-rule="evenodd" stroke="none" />
        <path d="M79.063 28.4652L79.3054 28.0364L143.065 64.0839L142.823 64.5127L79.063 28.4652Z" id="Rectangle" fill="#FFFFFF" fill-rule="evenodd" stroke="none" />
        <path d="M74.699 36.1838L74.9414 35.755L138.701 71.8026L138.459 72.2314L74.699 36.1838Z" id="Rectangle" fill="#FFFFFF" fill-rule="evenodd" stroke="none" />
        <path d="M70.3352 43.9024L70.5776 43.4736L134.338 79.5212L134.095 79.95L70.3352 43.9024Z" id="Rectangle" fill="#FFFFFF" fill-rule="evenodd" stroke="none" />
        <path d="M65.9714 51.6209L66.2139 51.1921L129.974 87.2397L129.731 87.6685L65.9714 51.6209Z" id="Rectangle" fill="#FFFFFF" fill-rule="evenodd" stroke="none" />
        <path d="M61.6077 59.3397L61.8501 58.9109L125.61 94.9585L125.368 95.3873L61.6077 59.3397Z" id="Rectangle" fill="#FFFFFF" fill-rule="evenodd" stroke="none" />
        <path d="M57.2439 67.0582L57.4863 66.6294L121.246 102.677L121.004 103.106L57.2439 67.0582Z" id="Rectangle" fill="#FFFFFF" fill-rule="evenodd" stroke="none" />
        <path d="M52.8799 74.7768L53.1223 74.348L116.882 110.396L116.64 110.824L52.8799 74.7768Z" id="Rectangle" fill="#FFFFFF" fill-rule="evenodd" stroke="none" />
        <path d="M48.5161 82.4955L48.7585 82.0667L112.519 118.114L112.276 118.543L48.5161 82.4955Z" id="Rectangle" fill="#FFFFFF" fill-rule="evenodd" stroke="none" />
        <path d="M102.728 4.75749e-06L6.31177 4.75749e-06L6.31177 134.068L102.728 134.068C103.449 134.068 104.034 133.484 104.034 132.763L104.034 1.30587C104.034 0.584696 103.449 3.80599e-05 102.728 0L102.728 4.75749e-06ZM11.753 130.368C10.4308 130.368 9.35889 129.297 9.35889 127.974C9.35888 126.652 10.4307 125.58 11.753 125.58C13.0752 125.58 14.147 126.652 14.147 127.974C14.147 128.609 13.8948 129.218 13.4458 129.667C12.9968 130.116 12.3879 130.368 11.7529 130.368L11.753 130.368ZM11.753 118.18C10.4308 118.18 9.35889 117.109 9.35889 115.786C9.35889 114.464 10.4307 113.392 11.753 113.392C13.0752 113.392 14.147 114.464 14.147 115.786C14.147 116.421 13.8948 117.03 13.4458 117.479C12.9968 117.928 12.3879 118.18 11.7529 118.18L11.753 118.18ZM11.753 105.992C10.4308 105.992 9.35889 104.921 9.35889 103.598C9.35889 102.276 10.4307 101.204 11.753 101.204C13.0752 101.204 14.147 102.276 14.147 103.598C14.147 104.233 13.8948 104.842 13.4458 105.291C12.9968 105.74 12.3879 105.992 11.7529 105.992L11.753 105.992ZM11.753 93.8044C10.4308 93.8044 9.35889 92.7325 9.35889 91.4103C9.35889 90.0881 10.4307 89.0162 11.753 89.0162C13.0752 89.0162 14.147 90.0881 14.147 91.4103C14.147 92.0453 13.8948 92.6543 13.4458 93.1033C12.9968 93.5522 12.3879 93.8045 11.7529 93.8044L11.753 93.8044ZM11.753 81.6163C10.4308 81.6163 9.35889 80.5444 9.35889 79.2222C9.35889 77.9 10.4307 76.8281 11.753 76.8281C13.0752 76.8281 14.147 77.9 14.147 79.2222C14.147 79.8572 13.8948 80.4662 13.4458 80.9151C12.9968 81.3641 12.3879 81.6163 11.7529 81.6163L11.753 81.6163ZM11.753 69.4282C10.4308 69.4282 9.35889 68.3564 9.35889 67.0341C9.35889 65.7119 10.4307 64.6401 11.753 64.6401C13.0752 64.6401 14.147 65.7119 14.147 67.0341C14.147 67.6692 13.8948 68.2781 13.4458 68.7271C12.9968 69.1761 12.3879 69.4283 11.7529 69.4283L11.753 69.4282ZM11.753 57.2402C10.4308 57.2402 9.35889 56.1684 9.35889 54.8462C9.35889 53.524 10.4307 52.4521 11.753 52.4521C13.0752 52.4521 14.147 53.5239 14.147 54.8462C14.147 55.4812 13.8948 56.0901 13.4458 56.5391C12.9968 56.9881 12.3879 57.2403 11.7529 57.2403L11.753 57.2402ZM11.753 45.0521C10.4308 45.0521 9.35889 43.9803 9.35889 42.6581C9.35889 41.3358 10.4307 40.264 11.753 40.264C13.0752 40.264 14.147 41.3358 14.147 42.658C14.147 43.2931 13.8948 43.902 13.4458 44.351C12.9968 44.8 12.3879 45.0522 11.7529 45.0522L11.753 45.0521ZM11.753 32.8641C10.4308 32.8641 9.35889 31.7922 9.35889 30.47C9.35889 29.1478 10.4307 28.0759 11.753 28.0759C13.0752 28.0759 14.147 29.1478 14.147 30.47C14.147 31.105 13.8948 31.714 13.4458 32.1629C12.9968 32.6119 12.3879 32.8641 11.7529 32.8641L11.753 32.8641ZM11.753 20.6761C10.4308 20.6761 9.35889 19.6042 9.35889 18.282C9.35888 16.9598 10.4307 15.8879 11.753 15.8879C13.0752 15.8879 14.147 16.9598 14.147 18.282C14.147 18.917 13.8948 19.526 13.4458 19.975C12.9968 20.4239 12.3879 20.6762 11.7529 20.6761L11.753 20.6761ZM11.7528 8.48806C10.7845 8.48806 9.91151 7.90476 9.54095 7.01016C9.17039 6.11556 9.37522 5.08581 10.0599 4.40111C10.7446 3.71641 11.7744 3.51158 12.669 3.88214C13.5636 4.25269 14.1469 5.12565 14.1469 6.09397C14.1469 6.72899 13.8946 7.33794 13.4456 7.78692C12.9967 8.2359 12.3877 8.48812 11.7527 8.4881L11.7528 8.48806Z" id="Shape" fill="#3F3D56" fill-rule="evenodd" stroke="none" />
        <path d="M6.31166 7.39983C5.66564 7.39983 0 7.36933 0 6.31161C0 5.25389 5.66564 5.22339 6.31166 5.22339L6.31166 5.65868C2.97467 5.65868 0.8109 6.03222 0.462438 6.31161C0.8109 6.59099 2.97466 6.96454 6.31166 6.96454C9.64122 6.96454 11.8028 6.59258 12.1585 6.31353C11.9892 6.19397 11.2976 5.94338 9.44263 5.78302L9.48009 5.34943C12.6233 5.62106 12.6233 6.12276 12.6233 6.3116C12.6233 7.36932 6.95769 7.39983 6.31166 7.39983L6.31166 7.39983Z" id="Shape" fill="#2F2E41" stroke="none" />
        <path d="M6.31166 19.3703C5.66564 19.3703 0 19.3398 0 18.2821C0 17.2243 5.66564 17.1938 6.31166 17.1938L6.31166 17.6291C2.97467 17.6291 0.8109 18.0027 0.462438 18.2821C0.8109 18.5615 2.97466 18.935 6.31166 18.935C9.64122 18.935 11.8028 18.563 12.1585 18.284C11.9892 18.1644 11.2976 17.9138 9.44263 17.7535L9.48009 17.3199C12.6233 17.5915 12.6233 18.0932 12.6233 18.2821C12.6233 19.3398 6.95769 19.3703 6.31166 19.3703L6.31166 19.3703Z" id="Shape" fill="#2F2E41" stroke="none" />
        <path d="M6.31166 31.5583C5.66564 31.5583 0 31.5278 0 30.4701C0 29.4123 5.66564 29.3818 6.31166 29.3818L6.31166 29.8171C2.97467 29.8171 0.8109 30.1907 0.462438 30.4701C0.8109 30.7494 2.97466 31.123 6.31166 31.123C9.64122 31.123 11.8028 30.751 12.1585 30.472C11.9892 30.3524 11.2976 30.1018 9.44263 29.9415L9.48009 29.5079C12.6233 29.7795 12.6233 30.2812 12.6233 30.47C12.6233 31.5278 6.95769 31.5583 6.31166 31.5583L6.31166 31.5583Z" id="Shape" fill="#2F2E41" stroke="none" />
        <path d="M6.31166 43.7464C5.66564 43.7464 0 43.7159 0 42.6582C0 41.6004 5.66564 41.5699 6.31166 41.5699L6.31166 42.0052C2.97467 42.0052 0.8109 42.3788 0.462438 42.6582C0.8109 42.9376 2.97466 43.3111 6.31166 43.3111C9.64122 43.3111 11.8028 42.9391 12.1585 42.6601C11.9892 42.5405 11.2976 42.2899 9.44263 42.1296L9.48009 41.696C12.6233 41.9676 12.6233 42.4693 12.6233 42.6582C12.6233 43.7159 6.95769 43.7464 6.31166 43.7464L6.31166 43.7464Z" id="Shape" fill="#2F2E41" stroke="none" />
        <path d="M6.31166 55.9345C5.66564 55.9345 0 55.904 0 54.8463C0 53.7886 5.66564 53.7581 6.31166 53.7581L6.31166 54.1933C2.97467 54.1933 0.8109 54.5669 0.462438 54.8463C0.8109 55.1257 2.97466 55.4992 6.31166 55.4992C9.64122 55.4992 11.8028 55.1272 12.1585 54.8482C11.9892 54.7286 11.2976 54.478 9.44263 54.3177L9.48009 53.8841C12.6233 54.1557 12.6233 54.6574 12.6233 54.8463C12.6233 55.904 6.95769 55.9345 6.31166 55.9345L6.31166 55.9345Z" id="Shape" fill="#2F2E41" stroke="none" />
        <path d="M6.31166 68.1225C5.66564 68.1225 0 68.092 0 67.0343C0 65.9765 5.66564 65.946 6.31166 65.946L6.31166 66.3813C2.97467 66.3813 0.8109 66.7549 0.462438 67.0343C0.8109 67.3136 2.97466 67.6872 6.31166 67.6872C9.64122 67.6872 11.8028 67.3152 12.1585 67.0362C11.9892 66.9166 11.2976 66.666 9.44263 66.5057L9.48009 66.0721C12.6233 66.3437 12.6233 66.8454 12.6233 67.0342C12.6233 68.092 6.95769 68.1225 6.31166 68.1225L6.31166 68.1225Z" id="Shape" fill="#2F2E41" stroke="none" />
        <path d="M6.31166 80.3105C5.66564 80.3105 0 80.28 0 79.2223C0 78.1645 5.66564 78.134 6.31166 78.134L6.31166 78.5693C2.97467 78.5693 0.8109 78.9429 0.462438 79.2222C0.8109 79.5016 2.97466 79.8752 6.31166 79.8752C9.64122 79.8752 11.8028 79.5032 12.1585 79.2242C11.9892 79.1046 11.2976 78.854 9.44263 78.6936L9.48009 78.2601C12.6233 78.5317 12.6233 79.0334 12.6233 79.2222C12.6233 80.28 6.95769 80.3105 6.31166 80.3105L6.31166 80.3105Z" id="Shape" fill="#2F2E41" stroke="none" />
        <path d="M6.31166 92.4986C5.66564 92.4986 0 92.4681 0 91.4104C0 90.3527 5.66564 90.3221 6.31166 90.3221L6.31166 90.7574C2.97467 90.7574 0.8109 91.131 0.462438 91.4104C0.8109 91.6897 2.97466 92.0633 6.31166 92.0633C9.64122 92.0633 11.8028 91.6913 12.1585 91.4123C11.9892 91.2927 11.2976 91.0422 9.44263 90.8818L9.48009 90.4482C12.6233 90.7198 12.6233 91.2215 12.6233 91.4104C12.6233 92.4681 6.95769 92.4986 6.31166 92.4986L6.31166 92.4986Z" id="Shape" fill="#2F2E41" stroke="none" />
        <path d="M6.31166 104.687C5.66564 104.687 0 104.656 0 103.598C0 102.541 5.66564 102.51 6.31166 102.51L6.31166 102.945C2.97467 102.945 0.8109 103.319 0.462438 103.598C0.8109 103.878 2.97466 104.251 6.31166 104.251C9.64122 104.251 11.8028 103.879 12.1585 103.6C11.9892 103.481 11.2976 103.23 9.44263 103.07L9.48009 102.636C12.6233 102.908 12.6233 103.41 12.6233 103.598C12.6233 104.656 6.95769 104.687 6.31166 104.687L6.31166 104.687Z" id="Shape" fill="#2F2E41" stroke="none" />
        <path d="M6.31166 116.875C5.66564 116.875 0 116.844 0 115.786C0 114.729 5.66564 114.698 6.31166 114.698L6.31166 115.134C2.97467 115.134 0.8109 115.507 0.462438 115.786C0.8109 116.066 2.97466 116.439 6.31166 116.439C9.64122 116.439 11.8028 116.067 12.1585 115.788C11.9892 115.669 11.2976 115.418 9.44263 115.258L9.48009 114.824C12.6233 115.096 12.6233 115.598 12.6233 115.786C12.6233 116.844 6.95769 116.875 6.31166 116.875L6.31166 116.875Z" id="Shape" fill="#2F2E41" stroke="none" />
        <path d="M6.31166 129.063C5.66564 129.063 0 129.032 0 127.974C0 126.917 5.66564 126.886 6.31166 126.886L6.31166 127.322C2.97467 127.322 0.8109 127.695 0.462438 127.974C0.8109 128.254 2.97466 128.627 6.31166 128.627C9.64122 128.627 11.8028 128.255 12.1585 127.976C11.9892 127.857 11.2976 127.606 9.44263 127.446L9.48009 127.012C12.6233 127.284 12.6233 127.786 12.6233 127.974C12.6233 129.032 6.95769 129.063 6.31166 129.063L6.31166 129.063Z" id="Shape" fill="#2F2E41" stroke="none" />
        <path d="M83.0311 51.2551L35.1495 51.2551C34.3686 51.2542 33.7358 50.6213 33.7349 49.8404L33.7349 31.1231C33.7358 30.3421 34.3686 29.7093 35.1496 29.7084L83.0311 29.7084C83.8121 29.7093 84.4449 30.3421 84.4458 31.1231L84.4458 49.8404C84.4449 50.6214 83.812 51.2542 83.031 51.2551L83.0311 51.2551Z" id="Shape" fill="#FFFFFF" stroke="none" />
        <path d="M65.1842 36.1288L52.9962 36.1288C52.6074 36.1288 52.2482 35.9214 52.0538 35.5847C51.8594 35.248 51.8594 34.8332 52.0538 34.4965C52.2482 34.1598 52.6074 33.9524 52.9962 33.9524L65.1842 33.9524C65.573 33.9524 65.9323 34.1598 66.1266 34.4965C66.321 34.8332 66.321 35.248 66.1266 35.5847C65.9323 35.9214 65.573 36.1288 65.1842 36.1288L65.1842 36.1288Z" id="Shape" fill="#FBCD00" stroke="none" />
        <path d="M71.9313 41.57L46.2494 41.57C45.8606 41.57 45.5013 41.3626 45.3069 41.0259C45.1125 40.6892 45.1125 40.2744 45.3069 39.9377C45.5013 39.601 45.8606 39.3936 46.2494 39.3936L71.9313 39.3936C72.3201 39.3936 72.6793 39.601 72.8737 39.9377C73.0681 40.2744 73.0681 40.6892 72.8737 41.0259C72.6793 41.3626 72.3201 41.57 71.9313 41.57L71.9313 41.57Z" id="Shape" fill="#FBCD00" stroke="none" />
        <path d="M71.9313 47.0112L46.2494 47.0112C45.8606 47.0112 45.5013 46.8037 45.3069 46.4671C45.1125 46.1304 45.1125 45.7155 45.3069 45.3788C45.5013 45.0421 45.8606 44.8347 46.2494 44.8347L71.9313 44.8347C72.3201 44.8347 72.6793 45.0421 72.8737 45.3788C73.0681 45.7155 73.0681 46.1304 72.8737 46.4671C72.6793 46.8037 72.3201 47.0112 71.9313 47.0112L71.9313 47.0112Z" id="Shape" fill="#FBCD00" stroke="none" />
      </g>
    </g>
    <path d="M190.692 23.6882L210.424 19.6889L214.38 6.10352e-05L218.424 19.7942L238.7 24.3197L218.523 27.362L215.012 48.0079L210.523 27.2567L190.692 23.6882Z" id="Rectangle-33" fill="#FBCD00" fill-rule="evenodd" stroke="none" />
    <path d="M185.422 41.9882L195.4 39.9656L197.401 30.0086L199.446 40.0189L209.7 42.3075L199.496 43.846L197.721 54.287L195.451 43.7928L185.422 41.9882Z" id="Rectangle-33-Copy" fill="#FBCD00" fill-rule="evenodd" stroke="none" />
  </g>
</svg>