<?xml version="1.0" encoding="utf-8"?>
<svg width="14px" height="14.000061px" viewBox="0 0 14 14.000061" version="1.1" xmlns:xlink="http://www.w3.org/1999/xlink" xmlns="http://www.w3.org/2000/svg">
  <path d="M12.5869 6.51099L12.5869 13.3578C12.5869 13.5352 12.5244 13.6865 12.3994 13.812C12.2734 13.9373 12.1221 14.0001 11.9453 14.0001L0.642578 14.0001C0.464844 14.0001 0.313477 13.9373 0.188477 13.812C0.0625 13.6865 0 13.5352 0 13.3578L0 2.05511C0 1.87781 0.0625 1.72644 0.188477 1.60101C0.313477 1.47565 0.464844 1.4129 0.642578 1.4129L7.59766 1.4129C7.77539 1.4129 7.92676 1.47565 8.05176 1.60101C8.17773 1.72644 8.24023 1.87781 8.24023 2.05511C8.24023 2.14166 8.22363 2.22479 8.18945 2.3045C8.15625 2.38428 8.1084 2.45435 8.0459 2.51477C7.98633 2.5733 7.91797 2.61835 7.83984 2.64996C7.7627 2.68152 7.68164 2.69733 7.59766 2.69733L1.28418 2.69733L1.28418 12.7156L11.3027 12.7156L11.3027 6.51099C11.3027 6.42444 11.3193 6.34131 11.3535 6.26154C11.3867 6.18182 11.4346 6.11176 11.4961 6.05127C11.5566 5.9928 11.625 5.94775 11.7031 5.9162C11.7803 5.88458 11.8613 5.86877 11.9453 5.86877C12.1221 5.86877 12.2734 5.93152 12.3994 6.05688C12.5244 6.18231 12.5869 6.33362 12.5869 6.51099L12.5869 6.51099Z" id="Vector" fill="#808080" fill-rule="evenodd" stroke="none" />
  <path d="M4.42676 8.66516L6.4707 6.62183L11.8037 1.28882L10.2744 1.28442C10.2129 1.28424 10.1533 1.27563 10.0957 1.25854C10.0371 1.24152 9.98242 1.21661 9.93066 1.18402C9.83789 1.12488 9.76465 1.047 9.71191 0.950439C9.65918 0.853821 9.63281 0.750488 9.63379 0.640381C9.63379 0.555237 9.65039 0.473328 9.68359 0.394775C9.71582 0.316223 9.7627 0.246887 9.82324 0.186829C9.88379 0.12677 9.95313 0.0805664 10.0313 0.0482178C10.1104 0.0158691 10.1924 -0.000183105 10.2773 6.10352e-05L13.2539 0.00854492C13.2705 0.0057373 13.2881 0.00360107 13.3057 0.00213623C13.3232 0.000732422 13.3408 0 13.3584 0C13.4434 0 13.5254 0.0162964 13.6045 0.0488892C13.6826 0.0814819 13.752 0.127869 13.8125 0.18811C13.873 0.248535 13.9189 0.318176 13.9512 0.397217C13.9844 0.476196 14.001 0.558411 14 0.643921L13.9912 3.98334C13.9912 4.16071 13.9287 4.31195 13.8027 4.43701C13.6768 4.56207 13.5254 4.62439 13.3477 4.6239C13.1709 4.62341 13.0195 4.56049 12.8945 4.43518C12.7695 4.30988 12.707 4.15869 12.707 3.98169L12.707 2.20135L5.33496 9.57336C5.27539 9.63354 5.20605 9.67999 5.12695 9.71259C5.04785 9.74518 4.96582 9.76147 4.88086 9.76147C4.7959 9.76147 4.71387 9.74518 4.63574 9.71259C4.55664 9.67999 4.4873 9.63354 4.42676 9.57336C4.30176 9.44794 4.23926 9.29663 4.23926 9.11926C4.23926 8.94189 4.30176 8.79053 4.42676 8.66516L4.42676 8.66516Z" id="Vector" fill="#808080" fill-rule="evenodd" stroke="none" />
</svg>