<?xml version="1.0" encoding="utf-8"?>
<svg width="75px" height="135.00433px" viewBox="0 0 75 135.00433" version="1.1" xmlns:xlink="http://www.w3.org/1999/xlink" xmlns="http://www.w3.org/2000/svg">
  <g id="Group-36-Copy-3" transform="translate(2.5 2.5)">
    <path d="M4.93188 5.90649C4.93188 3.49945 5.60854 1.54816 6.44325 1.54816C7.27795 1.54816 7.95461 3.49945 7.95461 5.90649C7.95461 8.31353 7.27795 10.2648 6.44325 10.2648C5.60854 10.2648 4.93188 8.31353 4.93188 5.90649Z" id="Ellipse-9" fill="#D92222" fill-rule="evenodd" stroke="none" />
    <path d="M14.999 1.54816L55.001 1.54816Q55.3692 1.54816 55.737 1.56622Q56.1047 1.58429 56.4712 1.62038Q56.8376 1.65647 57.2018 1.7105Q57.566 1.76452 57.9272 1.83636Q58.2883 1.90819 58.6455 1.99766Q59.0026 2.08712 59.355 2.19401Q59.7073 2.30089 60.054 2.42494Q60.4007 2.54898 60.7409 2.68989Q61.081 2.83079 61.4139 2.98822Q61.7467 3.14565 62.0715 3.31922Q62.3962 3.49279 62.712 3.68208Q63.0278 3.87138 63.334 4.07594Q63.6401 4.28051 63.9359 4.49985Q64.2316 4.71919 64.5163 4.95277Q64.8009 5.18636 65.0737 5.43363Q65.3465 5.6809 65.6069 5.94126Q65.8672 6.20162 66.1145 6.47444Q66.3618 6.74727 66.5954 7.03189Q66.829 7.31652 67.0483 7.61226Q67.2676 7.90801 67.4722 8.21416Q67.6768 8.52031 67.8661 8.83613Q68.0554 9.15195 68.2289 9.47668Q68.4025 9.8014 68.5599 10.1343Q68.7173 10.4671 68.8583 10.8073Q68.9992 11.1475 69.1232 11.4941Q69.2473 11.8408 69.3541 12.1932Q69.461 12.5455 69.5505 12.9027Q69.64 13.2599 69.7118 13.621Q69.7836 13.9821 69.8377 14.3463Q69.8917 14.7106 69.9278 15.077Q69.9639 15.4434 69.9819 15.8112Q70 16.179 70 16.5472L70 115.005Q70 115.373 69.9819 115.741Q69.9639 116.109 69.9278 116.475Q69.8917 116.842 69.8377 117.206Q69.7836 117.57 69.7118 117.931Q69.64 118.293 69.5505 118.65Q69.461 119.007 69.3541 119.359Q69.2473 119.712 69.1232 120.058Q68.9992 120.405 68.8583 120.745Q68.7173 121.085 68.5599 121.418Q68.4025 121.751 68.2289 122.076Q68.0554 122.4 67.8661 122.716Q67.6768 123.032 67.4722 123.338Q67.2676 123.644 67.0483 123.94Q66.829 124.236 66.5954 124.521Q66.3618 124.805 66.1145 125.078Q65.8672 125.351 65.6069 125.611Q65.3465 125.872 65.0737 126.119Q64.8009 126.366 64.5163 126.6Q64.2316 126.833 63.9359 127.053Q63.6401 127.272 63.334 127.477Q63.0278 127.681 62.712 127.87Q62.3962 128.06 62.0715 128.233Q61.7467 128.407 61.4139 128.564Q61.081 128.722 60.7409 128.863Q60.4007 129.003 60.054 129.128Q59.7073 129.252 59.355 129.358Q59.0026 129.465 58.6455 129.555Q58.2883 129.644 57.9272 129.716Q57.566 129.788 57.2018 129.842Q56.8376 129.896 56.4712 129.932Q56.1047 129.968 55.737 129.986Q55.3692 130.004 55.001 130.004L14.999 130.004Q14.6308 130.004 14.263 129.986Q13.8953 129.968 13.5288 129.932Q13.1624 129.896 12.7982 129.842Q12.434 129.788 12.0728 129.716Q11.7117 129.644 11.3545 129.555Q10.9974 129.465 10.645 129.358Q10.2927 129.252 9.94599 129.128Q9.59931 129.003 9.25913 128.863Q8.91895 128.722 8.5861 128.564Q8.25325 128.407 7.92852 128.233Q7.60379 128.06 7.28797 127.87Q6.97215 127.681 6.666 127.477Q6.35985 127.272 6.06411 127.053Q5.76836 126.833 5.48373 126.6Q5.19911 126.366 4.92629 126.119Q4.65346 125.872 4.39311 125.611Q4.13274 125.351 3.88547 125.078Q3.6382 124.805 3.40462 124.521Q3.17103 124.236 2.95169 123.94Q2.73235 123.644 2.52779 123.338Q2.32322 123.032 2.13393 122.716Q1.94463 122.4 1.77106 122.076Q1.59749 121.751 1.44006 121.418Q1.28264 121.085 1.14173 120.745Q1.00082 120.405 0.87678 120.058Q0.752736 119.712 0.645852 119.359Q0.538968 119.007 0.449501 118.65Q0.360035 118.293 0.288202 117.931Q0.216368 117.57 0.162341 117.206Q0.108315 116.842 0.0722243 116.475Q0.0361339 116.109 0.0180669 115.741Q0 115.373 0 115.005L0 16.5472Q0 16.179 0.0180669 15.8112Q0.0361339 15.4434 0.0722243 15.077Q0.108315 14.7106 0.162341 14.3463Q0.216368 13.9821 0.288202 13.621Q0.360035 13.2599 0.449501 12.9027Q0.538968 12.5455 0.645852 12.1932Q0.752736 11.8408 0.87678 11.4941Q1.00082 11.1475 1.14173 10.8073Q1.28264 10.4671 1.44006 10.1343Q1.59749 9.8014 1.77106 9.47668Q1.94463 9.15195 2.13393 8.83613Q2.32322 8.52031 2.52779 8.21416Q2.73235 7.90801 2.95169 7.61226Q3.17103 7.31652 3.40462 7.03189Q3.6382 6.74726 3.88547 6.47444Q4.13274 6.20162 4.39311 5.94126Q4.65346 5.6809 4.92629 5.43363Q5.19911 5.18636 5.48373 4.95277Q5.76836 4.71919 6.06411 4.49985Q6.35985 4.28051 6.666 4.07594Q6.97215 3.87138 7.28797 3.68208Q7.60379 3.49279 7.92852 3.31922Q8.25325 3.14565 8.5861 2.98822Q8.91895 2.83079 9.25913 2.68989Q9.59931 2.54898 9.94599 2.42494Q10.2927 2.30089 10.645 2.19401Q10.9974 2.08712 11.3545 1.99766Q11.7117 1.90819 12.0728 1.83636Q12.434 1.76452 12.7982 1.7105Q13.1624 1.65647 13.5288 1.62038Q13.8953 1.58429 14.263 1.56622Q14.6308 1.54816 14.999 1.54816L14.999 1.54816Z" id="Rectangle" fill="#FFFFFF" fill-rule="evenodd" stroke="#CECECE" stroke-width="5" />
    <path d="M16.8308 30.9221L55.1618 30.9221Q55.3603 30.9221 55.5585 30.9319Q55.7568 30.9416 55.9544 30.9611Q56.1519 30.9805 56.3483 31.0096Q56.5446 31.0388 56.7393 31.0775Q56.934 31.1162 57.1266 31.1645Q57.3192 31.2127 57.5091 31.2703Q57.6991 31.3279 57.886 31.3948Q58.0729 31.4617 58.2563 31.5377Q58.4397 31.6136 58.6192 31.6985Q58.7986 31.7834 58.9737 31.877Q59.1488 31.9705 59.319 32.0726Q59.4893 32.1746 59.6543 32.2849Q59.8194 32.3952 59.9788 32.5135Q60.1383 32.6317 60.2917 32.7577Q60.4452 32.8836 60.5923 33.0169Q60.7394 33.1502 60.8797 33.2906Q61.0201 33.431 61.1534 33.578Q61.2867 33.7251 61.4127 33.8786Q61.5386 34.032 61.6568 34.1915Q61.7751 34.3509 61.8854 34.516Q61.9957 34.681 62.0977 34.8513Q62.1998 35.0216 62.2934 35.1966Q62.3869 35.3717 62.4718 35.5512Q62.5567 35.7306 62.6326 35.914Q62.7086 36.0974 62.7755 36.2843Q62.8424 36.4712 62.9 36.6612Q62.9576 36.8511 63.0059 37.0437Q63.0541 37.2363 63.0928 37.431Q63.1315 37.6257 63.1607 37.822Q63.1898 38.0184 63.2093 38.2159Q63.2287 38.4135 63.2385 38.6118Q63.2482 38.81 63.2482 39.0086L63.2482 39.0106Q63.2482 39.2091 63.2385 39.4073Q63.2287 39.6056 63.2093 39.8032Q63.1898 40.0007 63.1607 40.1971Q63.1315 40.3934 63.0928 40.5881Q63.0541 40.7828 63.0059 40.9754Q62.9576 41.168 62.9 41.3579Q62.8424 41.5479 62.7755 41.7348Q62.7086 41.9217 62.6326 42.1051Q62.5567 42.2885 62.4718 42.4679Q62.3869 42.6474 62.2934 42.8225Q62.1998 42.9975 62.0977 43.1678Q61.9957 43.3381 61.8854 43.5031Q61.7751 43.6682 61.6568 43.8276Q61.5386 43.9871 61.4127 44.1405Q61.2867 44.294 61.1534 44.4411Q61.0201 44.5882 60.8797 44.7285Q60.7394 44.8689 60.5923 45.0022Q60.4452 45.1355 60.2917 45.2614Q60.1383 45.3874 59.9788 45.5056Q59.8194 45.6239 59.6543 45.7342Q59.4893 45.8445 59.319 45.9465Q59.1488 46.0486 58.9737 46.1421Q58.7986 46.2357 58.6192 46.3206Q58.4397 46.4055 58.2563 46.4814Q58.0729 46.5574 57.886 46.6243Q57.6991 46.6912 57.5091 46.7488Q57.3192 46.8064 57.1266 46.8546Q56.934 46.9029 56.7393 46.9416Q56.5446 46.9803 56.3483 47.0095Q56.1519 47.0386 55.9544 47.058Q55.7568 47.0775 55.5585 47.0872Q55.3603 47.097 55.1618 47.097L16.8308 47.097Q16.6323 47.097 16.434 47.0872Q16.2358 47.0775 16.0382 47.058Q15.8407 47.0386 15.6443 47.0095Q15.4479 46.9803 15.2532 46.9416Q15.0585 46.9029 14.866 46.8546Q14.6734 46.8064 14.4834 46.7488Q14.2935 46.6912 14.1066 46.6243Q13.9197 46.5574 13.7363 46.4814Q13.5529 46.4055 13.3734 46.3206Q13.194 46.2357 13.0189 46.1421Q12.8438 46.0486 12.6736 45.9465Q12.5033 45.8445 12.3382 45.7342Q12.1732 45.6239 12.0137 45.5056Q11.8543 45.3874 11.7008 45.2614Q11.5474 45.1355 11.4003 45.0022Q11.2532 44.8689 11.1128 44.7285Q10.9725 44.5882 10.8392 44.4411Q10.7059 44.294 10.5799 44.1405Q10.454 43.9871 10.3357 43.8276Q10.2175 43.6682 10.1072 43.5031Q9.99691 43.3381 9.89485 43.1678Q9.7928 42.9975 9.69922 42.8225Q9.60564 42.6474 9.52077 42.4679Q9.43589 42.2885 9.35993 42.1051Q9.28396 41.9217 9.21708 41.7348Q9.15021 41.5479 9.09258 41.3579Q9.03496 41.168 8.98672 40.9754Q8.93849 40.7828 8.89976 40.5881Q8.86103 40.3934 8.83191 40.1971Q8.80278 40.0007 8.78332 39.8032Q8.76387 39.6056 8.75413 39.4073Q8.74438 39.2091 8.74438 39.0106L8.74438 39.0086Q8.74438 38.81 8.75413 38.6118Q8.76387 38.4135 8.78332 38.2159Q8.80278 38.0184 8.83191 37.822Q8.86103 37.6257 8.89976 37.431Q8.93849 37.2363 8.98672 37.0437Q9.03496 36.8511 9.09258 36.6612Q9.15021 36.4712 9.21708 36.2843Q9.28396 36.0974 9.35993 35.914Q9.43589 35.7306 9.52077 35.5512Q9.60564 35.3717 9.69922 35.1966Q9.7928 35.0216 9.89485 34.8513Q9.99691 34.681 10.1072 34.516Q10.2175 34.3509 10.3357 34.1915Q10.454 34.032 10.5799 33.8786Q10.7059 33.7251 10.8392 33.578Q10.9725 33.4309 11.1128 33.2906Q11.2532 33.1502 11.4003 33.0169Q11.5474 32.8836 11.7008 32.7577Q11.8543 32.6317 12.0137 32.5135Q12.1732 32.3952 12.3382 32.2849Q12.5033 32.1746 12.6736 32.0726Q12.8438 31.9705 13.0189 31.877Q13.194 31.7834 13.3734 31.6985Q13.5529 31.6136 13.7363 31.5377Q13.9197 31.4617 14.1066 31.3948Q14.2935 31.3279 14.4834 31.2703Q14.6734 31.2127 14.866 31.1645Q15.0585 31.1162 15.2532 31.0775Q15.4479 31.0388 15.6443 31.0096Q15.8407 30.9805 16.0382 30.9611Q16.2358 30.9416 16.434 30.9319Q16.6323 30.9221 16.8308 30.9221Z" id="Rectangle-Copy-2" fill="#CECECE" fill-rule="evenodd" stroke="none" />
    <path d="M16.8308 100.189L55.3155 100.189Q55.514 100.189 55.7123 100.199Q55.9105 100.209 56.1081 100.228Q56.3056 100.247 56.502 100.277Q56.6984 100.306 56.8931 100.344Q57.0878 100.383 57.2803 100.431Q57.4729 100.48 57.6629 100.537Q57.8528 100.595 58.0397 100.662Q58.2266 100.729 58.41 100.805Q58.5934 100.881 58.7729 100.965Q58.9523 101.05 59.1274 101.144Q59.3025 101.237 59.4727 101.339Q59.643 101.442 59.8081 101.552Q59.9731 101.662 60.1326 101.78Q60.292 101.899 60.4455 102.025Q60.5989 102.15 60.746 102.284Q60.8931 102.417 61.0335 102.557Q61.1738 102.698 61.3071 102.845Q61.4404 102.992 61.5664 103.145Q61.6923 103.299 61.8106 103.458Q61.9288 103.618 62.0391 103.783Q62.1494 103.948 62.2514 104.118Q62.3535 104.288 62.4471 104.464Q62.5407 104.639 62.6255 104.818Q62.7104 104.998 62.7864 105.181Q62.8623 105.364 62.9292 105.551Q62.9961 105.738 63.0537 105.928Q63.1113 106.118 63.1596 106.311Q63.2078 106.503 63.2465 106.698Q63.2853 106.893 63.3144 107.089Q63.3435 107.285 63.363 107.483Q63.3824 107.68 63.3922 107.879Q63.4019 108.077 63.4019 108.275L63.4019 108.277Q63.4019 108.476 63.3922 108.674Q63.3824 108.873 63.363 109.07Q63.3435 109.268 63.3144 109.464Q63.2853 109.66 63.2465 109.855Q63.2078 110.05 63.1596 110.242Q63.1113 110.435 63.0537 110.625Q62.9961 110.815 62.9292 111.002Q62.8623 111.189 62.7864 111.372Q62.7104 111.555 62.6255 111.735Q62.5407 111.914 62.4471 112.089Q62.3535 112.264 62.2514 112.435Q62.1494 112.605 62.0391 112.77Q61.9288 112.935 61.8106 113.095Q61.6923 113.254 61.5664 113.407Q61.4405 113.561 61.3071 113.708Q61.1738 113.855 61.0335 113.995Q60.8931 114.136 60.746 114.269Q60.5989 114.402 60.4455 114.528Q60.292 114.654 60.1326 114.773Q59.9731 114.891 59.8081 115.001Q59.643 115.111 59.4727 115.213Q59.3025 115.315 59.1274 115.409Q58.9523 115.503 58.7729 115.587Q58.5934 115.672 58.41 115.748Q58.2266 115.824 58.0397 115.891Q57.8528 115.958 57.6629 116.016Q57.4729 116.073 57.2803 116.122Q57.0878 116.17 56.8931 116.209Q56.6984 116.247 56.502 116.276Q56.3056 116.306 56.1081 116.325Q55.9105 116.344 55.7123 116.354Q55.514 116.364 55.3155 116.364L16.8308 116.364Q16.6323 116.364 16.434 116.354Q16.2358 116.344 16.0382 116.325Q15.8407 116.305 15.6443 116.276Q15.4479 116.247 15.2532 116.209Q15.0585 116.17 14.866 116.122Q14.6734 116.073 14.4834 116.016Q14.2935 115.958 14.1066 115.891Q13.9197 115.824 13.7363 115.748Q13.5529 115.672 13.3734 115.587Q13.194 115.503 13.0189 115.409Q12.8438 115.315 12.6736 115.213Q12.5033 115.111 12.3382 115.001Q12.1732 114.891 12.0137 114.773Q11.8543 114.654 11.7008 114.528Q11.5474 114.402 11.4003 114.269Q11.2532 114.136 11.1128 113.995Q10.9725 113.855 10.8392 113.708Q10.7059 113.561 10.5799 113.407Q10.454 113.254 10.3357 113.095Q10.2175 112.935 10.1072 112.77Q9.99691 112.605 9.89485 112.435Q9.7928 112.264 9.69922 112.089Q9.60564 111.914 9.52077 111.735Q9.43589 111.555 9.35993 111.372Q9.28396 111.189 9.21708 111.002Q9.15021 110.815 9.09258 110.625Q9.03496 110.435 8.98672 110.242Q8.93849 110.05 8.89976 109.855Q8.86103 109.66 8.83191 109.464Q8.80278 109.268 8.78332 109.07Q8.76387 108.873 8.75413 108.674Q8.74438 108.476 8.74438 108.277L8.74438 108.275Q8.74438 108.077 8.75413 107.879Q8.76387 107.68 8.78332 107.483Q8.80278 107.285 8.83191 107.089Q8.86103 106.893 8.89976 106.698Q8.93849 106.503 8.98672 106.311Q9.03496 106.118 9.09258 105.928Q9.15021 105.738 9.21708 105.551Q9.28396 105.364 9.35993 105.181Q9.43589 104.998 9.52077 104.818Q9.60564 104.639 9.69922 104.464Q9.7928 104.288 9.89485 104.118Q9.99691 103.948 10.1072 103.783Q10.2175 103.618 10.3357 103.458Q10.454 103.299 10.5799 103.145Q10.7059 102.992 10.8392 102.845Q10.9725 102.698 11.1128 102.557Q11.2532 102.417 11.4003 102.284Q11.5474 102.15 11.7008 102.025Q11.8543 101.899 12.0137 101.78Q12.1732 101.662 12.3382 101.552Q12.5033 101.442 12.6736 101.339Q12.8438 101.237 13.0189 101.144Q13.194 101.05 13.3734 100.965Q13.5529 100.881 13.7363 100.805Q13.9197 100.729 14.1066 100.662Q14.2935 100.595 14.4834 100.537Q14.6734 100.48 14.866 100.431Q15.0585 100.383 15.2532 100.344Q15.4479 100.306 15.6443 100.277Q15.8407 100.247 16.0382 100.228Q16.2358 100.209 16.434 100.199Q16.6323 100.189 16.8308 100.189Z" id="Rectangle-Copy-3" fill="#1B2C61" fill-rule="evenodd" stroke="none" />
    <path d="M46.0335 52.9446L55.3151 52.9446Q55.5136 52.9446 55.7119 52.9544Q55.9102 52.9641 56.1077 52.9836Q56.3053 53.003 56.5016 53.0322Q56.698 53.0613 56.8927 53.1Q57.0874 53.1387 57.28 53.187Q57.4725 53.2352 57.6625 53.2928Q57.8524 53.3505 58.0393 53.4173Q58.2262 53.4842 58.4097 53.5602Q58.5931 53.6362 58.7725 53.721Q58.952 53.8059 59.127 53.8995Q59.3021 53.993 59.4724 54.0951Q59.6426 54.1972 59.8077 54.3074Q59.9727 54.4177 60.1322 54.536Q60.2916 54.6542 60.4451 54.7802Q60.5985 54.9061 60.7456 55.0394Q60.8927 55.1727 61.0331 55.3131Q61.1735 55.4535 61.3068 55.6006Q61.4401 55.7476 61.566 55.9011Q61.6919 56.0546 61.8102 56.214Q61.9285 56.3734 62.0387 56.5385Q62.149 56.7035 62.2511 56.8738Q62.3531 57.0441 62.4467 57.2192Q62.5403 57.3942 62.6252 57.5737Q62.71 57.7531 62.786 57.9365Q62.862 58.1199 62.9289 58.3068Q62.9957 58.4937 63.0534 58.6837Q63.111 58.8737 63.1592 59.0662Q63.2075 59.2588 63.2462 59.4535Q63.2849 59.6482 63.314 59.8446Q63.3432 60.0409 63.3626 60.2385Q63.3821 60.436 63.3918 60.6343Q63.4016 60.8326 63.4016 61.0311L63.4016 61.0331Q63.4016 61.2316 63.3918 61.4299Q63.3821 61.6281 63.3626 61.8257Q63.3432 62.0232 63.314 62.2196Q63.2849 62.416 63.2462 62.6107Q63.2075 62.8054 63.1592 62.9979Q63.111 63.1905 63.0534 63.3804Q62.9957 63.5704 62.9289 63.7573Q62.862 63.9442 62.786 64.1276Q62.71 64.311 62.6252 64.4905Q62.5403 64.6699 62.4467 64.845Q62.3531 65.0201 62.2511 65.1903Q62.149 65.3606 62.0387 65.5257Q61.9285 65.6907 61.8102 65.8502Q61.692 66.0096 61.566 66.1631Q61.4401 66.3165 61.3068 66.4636Q61.1735 66.6107 61.0331 66.7511Q60.8927 66.8914 60.7456 67.0247Q60.5986 67.1581 60.4451 67.284Q60.2916 67.4099 60.1322 67.5282Q59.9728 67.6464 59.8077 67.7567Q59.6426 67.867 59.4724 67.969Q59.3021 68.0711 59.127 68.1647Q58.952 68.2583 58.7725 68.3431Q58.5931 68.428 58.4097 68.504Q58.2262 68.5799 58.0393 68.6468Q57.8524 68.7137 57.6625 68.7713Q57.4725 68.8289 57.28 68.8772Q57.0874 68.9254 56.8927 68.9641Q56.698 69.0029 56.5016 69.032Q56.3053 69.0611 56.1077 69.0806Q55.9102 69.1 55.7119 69.1098Q55.5136 69.1195 55.3151 69.1195L46.0335 69.1195Q45.835 69.1195 45.6367 69.1098Q45.4384 69.1 45.2409 69.0806Q45.0433 69.0611 44.8469 69.032Q44.6506 69.0029 44.4559 68.9641Q44.2612 68.9254 44.0686 68.8772Q43.8761 68.8289 43.6861 68.7713Q43.4961 68.7137 43.3092 68.6468Q43.1223 68.5799 42.9389 68.504Q42.7555 68.428 42.5761 68.3431Q42.3966 68.2583 42.2215 68.1647Q42.0465 68.0711 41.8762 67.969Q41.7059 67.867 41.5409 67.7567Q41.3758 67.6464 41.2164 67.5282Q41.0569 67.4099 40.9035 67.284Q40.75 67.158 40.6029 67.0247Q40.4559 66.8914 40.3155 66.7511Q40.1751 66.6107 40.0418 66.4636Q39.9085 66.3165 39.7826 66.1631Q39.6566 66.0096 39.5384 65.8502Q39.4201 65.6907 39.3098 65.5257Q39.1995 65.3606 39.0975 65.1903Q38.9954 65.0201 38.9019 64.845Q38.8083 64.6699 38.7234 64.4905Q38.6385 64.311 38.5626 64.1276Q38.4866 63.9442 38.4197 63.7573Q38.3528 63.5704 38.2952 63.3804Q38.2376 63.1905 38.1894 62.9979Q38.1411 62.8054 38.1024 62.6107Q38.0637 62.416 38.0345 62.2196Q38.0054 62.0232 37.986 61.8257Q37.9665 61.6281 37.9568 61.4299Q37.947 61.2316 37.947 61.0331L37.947 61.0311Q37.947 60.8326 37.9568 60.6343Q37.9665 60.436 37.986 60.2385Q38.0054 60.0409 38.0345 59.8446Q38.0637 59.6482 38.1024 59.4535Q38.1411 59.2588 38.1894 59.0662Q38.2376 58.8737 38.2952 58.6837Q38.3528 58.4937 38.4197 58.3068Q38.4866 58.1199 38.5626 57.9365Q38.6385 57.7531 38.7234 57.5737Q38.8083 57.3942 38.9019 57.2192Q38.9954 57.0441 39.0975 56.8738Q39.1995 56.7035 39.3098 56.5385Q39.4201 56.3734 39.5384 56.214Q39.6566 56.0546 39.7826 55.9011Q39.9085 55.7476 40.0418 55.6006Q40.1751 55.4535 40.3155 55.3131Q40.4559 55.1727 40.6029 55.0394Q40.75 54.9061 40.9035 54.7802Q41.0569 54.6542 41.2164 54.536Q41.3758 54.4177 41.5409 54.3074Q41.7059 54.1972 41.8762 54.0951Q42.0465 53.993 42.2215 53.8995Q42.3966 53.8059 42.5761 53.721Q42.7555 53.6361 42.9389 53.5602Q43.1223 53.4842 43.3092 53.4173Q43.4961 53.3505 43.6861 53.2928Q43.8761 53.2352 44.0686 53.187Q44.2612 53.1387 44.4559 53.1Q44.6506 53.0613 44.8469 53.0322Q45.0433 53.003 45.2409 52.9836Q45.4384 52.9641 45.6367 52.9544Q45.835 52.9446 46.0335 52.9446Z" id="Rectangle-Copy-6" fill="#CECECE" fill-rule="evenodd" stroke="none" />
    <path d="M45.8394 77.0829L55.3153 77.0829Q55.5139 77.0829 55.7121 77.0927Q55.9104 77.1024 56.108 77.1219Q56.3055 77.1413 56.5019 77.1705Q56.6982 77.1996 56.8929 77.2383Q57.0876 77.2771 57.2802 77.3253Q57.4727 77.3735 57.6627 77.4312Q57.8527 77.4888 58.0396 77.5556Q58.2265 77.6225 58.4099 77.6985Q58.5933 77.7745 58.7727 77.8593Q58.9522 77.9442 59.1273 78.0378Q59.3023 78.1314 59.4726 78.2334Q59.6429 78.3355 59.8079 78.4457Q59.973 78.556 60.1324 78.6743Q60.2919 78.7925 60.4453 78.9185Q60.5988 79.0444 60.7459 79.1777Q60.8929 79.311 61.0333 79.4514Q61.1737 79.5918 61.307 79.7389Q61.4403 79.8859 61.5662 80.0394Q61.6922 80.1928 61.8104 80.3523Q61.9287 80.5117 62.039 80.6768Q62.1493 80.8418 62.2513 81.0121Q62.3534 81.1824 62.4469 81.3575Q62.5405 81.5325 62.6254 81.712Q62.7103 81.8914 62.7862 82.0748Q62.8622 82.2582 62.9291 82.4451Q62.9959 82.632 63.0536 82.822Q63.1112 83.012 63.1594 83.2045Q63.2077 83.3971 63.2464 83.5918Q63.2851 83.7865 63.3143 83.9828Q63.3434 84.1792 63.3628 84.3768Q63.3823 84.5743 63.392 84.7726Q63.4018 84.9709 63.4018 85.1694L63.4018 85.1714Q63.4018 85.3699 63.392 85.5682Q63.3823 85.7664 63.3628 85.964Q63.3434 86.1615 63.3143 86.3579Q63.2851 86.5543 63.2464 86.749Q63.2077 86.9436 63.1594 87.1362Q63.1112 87.3288 63.0536 87.5187Q62.9959 87.7087 62.9291 87.8956Q62.8622 88.0825 62.7862 88.2659Q62.7103 88.4493 62.6254 88.6288Q62.5405 88.8082 62.4469 88.9833Q62.3534 89.1584 62.2513 89.3286Q62.1493 89.4989 62.039 89.6639Q61.9287 89.829 61.8104 89.9884Q61.6922 90.1479 61.5662 90.3014Q61.4403 90.4548 61.307 90.6019Q61.1737 90.749 61.0333 90.8893Q60.8929 91.0297 60.7459 91.163Q60.5988 91.2963 60.4453 91.4223Q60.2919 91.5482 60.1324 91.6665Q59.973 91.7847 59.8079 91.895Q59.6429 92.0053 59.4726 92.1073Q59.3023 92.2094 59.1273 92.303Q58.9522 92.3965 58.7727 92.4814Q58.5933 92.5663 58.4099 92.6423Q58.2265 92.7182 58.0396 92.7851Q57.8527 92.852 57.6627 92.9096Q57.4727 92.9672 57.2802 93.0155Q57.0876 93.0637 56.8929 93.1024Q56.6982 93.1411 56.5019 93.1703Q56.3055 93.1994 56.108 93.2189Q55.9104 93.2383 55.7121 93.2481Q55.5139 93.2578 55.3153 93.2578L45.8394 93.2578Q45.6408 93.2578 45.4426 93.2481Q45.2443 93.2383 45.0468 93.2189Q44.8492 93.1994 44.6528 93.1703Q44.4565 93.1411 44.2618 93.1024Q44.0671 93.0637 43.8745 93.0155Q43.682 92.9672 43.492 92.9096Q43.302 92.852 43.1151 92.7851Q42.9282 92.7182 42.7448 92.6423Q42.5614 92.5663 42.382 92.4814Q42.2025 92.3965 42.0274 92.303Q41.8524 92.2094 41.6821 92.1073Q41.5118 92.0053 41.3468 91.895Q41.1817 91.7847 41.0223 91.6665Q40.8628 91.5482 40.7094 91.4223Q40.5559 91.2963 40.4088 91.163Q40.2618 91.0297 40.1214 90.8893Q39.981 90.749 39.8477 90.6019Q39.7144 90.4548 39.5885 90.3014Q39.4625 90.1479 39.3443 89.9884Q39.226 89.829 39.1157 89.6639Q39.0054 89.4989 38.9034 89.3286Q38.8013 89.1584 38.7078 88.9833Q38.6142 88.8082 38.5293 88.6288Q38.4444 88.4493 38.3685 88.2659Q38.2925 88.0825 38.2256 87.8956Q38.1587 87.7087 38.1011 87.5187Q38.0435 87.3288 37.9953 87.1362Q37.947 86.9436 37.9083 86.749Q37.8696 86.5543 37.8404 86.3579Q37.8113 86.1615 37.7919 85.964Q37.7724 85.7664 37.7627 85.5682Q37.7529 85.3699 37.7529 85.1714L37.7529 85.1694Q37.7529 84.9709 37.7627 84.7726Q37.7724 84.5743 37.7919 84.3768Q37.8113 84.1792 37.8404 83.9828Q37.8696 83.7865 37.9083 83.5918Q37.947 83.3971 37.9953 83.2045Q38.0435 83.012 38.1011 82.822Q38.1587 82.632 38.2256 82.4451Q38.2925 82.2582 38.3685 82.0748Q38.4444 81.8914 38.5293 81.712Q38.6142 81.5325 38.7078 81.3575Q38.8013 81.1824 38.9034 81.0121Q39.0054 80.8418 39.1157 80.6768Q39.226 80.5117 39.3443 80.3523Q39.4625 80.1929 39.5885 80.0394Q39.7144 79.886 39.8477 79.7389Q39.981 79.5918 40.1214 79.4514Q40.2617 79.311 40.4088 79.1777Q40.5559 79.0444 40.7094 78.9185Q40.8628 78.7925 41.0223 78.6743Q41.1817 78.556 41.3468 78.4457Q41.5118 78.3355 41.6821 78.2334Q41.8524 78.1314 42.0274 78.0378Q42.2025 77.9442 42.382 77.8593Q42.5614 77.7745 42.7448 77.6985Q42.9282 77.6225 43.1151 77.5556Q43.302 77.4888 43.492 77.4312Q43.682 77.3735 43.8745 77.3253Q44.0671 77.2771 44.2618 77.2383Q44.4565 77.1996 44.6528 77.1705Q44.8492 77.1413 45.0467 77.1219Q45.2443 77.1024 45.4426 77.0927Q45.6408 77.0829 45.8394 77.0829Z" id="Rectangle-Copy-7" fill="#1B2C61" fill-rule="evenodd" stroke="none" />
    <path d="M16.8308 76.8741L25.7725 76.8741Q25.971 76.8741 26.1692 76.8838Q26.3675 76.8936 26.5651 76.913Q26.7626 76.9325 26.959 76.9616Q27.1553 76.9907 27.35 77.0295Q27.5447 77.0682 27.7373 77.1164Q27.9299 77.1647 28.1198 77.2223Q28.3098 77.2799 28.4967 77.3468Q28.6836 77.4137 28.867 77.4896Q29.0504 77.5656 29.2299 77.6505Q29.4093 77.7353 29.5844 77.8289Q29.7594 77.9225 29.9297 78.0245Q30.1 78.1266 30.265 78.2369Q30.4301 78.3472 30.5895 78.4654Q30.749 78.5837 30.9024 78.7096Q31.0559 78.8355 31.203 78.9689Q31.3501 79.1022 31.4904 79.2425Q31.6308 79.3829 31.7641 79.53Q31.8974 79.6771 32.0233 79.8305Q32.1493 79.984 32.2675 80.1434Q32.3858 80.3029 32.4961 80.4679Q32.6064 80.633 32.7084 80.8032Q32.8105 80.9735 32.9041 81.1486Q32.9976 81.3237 33.0825 81.5031Q33.1674 81.6826 33.2433 81.866Q33.3193 82.0494 33.3862 82.2363Q33.4531 82.4232 33.5107 82.6131Q33.5683 82.8031 33.6165 82.9957Q33.6648 83.1882 33.7035 83.3829Q33.7422 83.5776 33.7714 83.774Q33.8005 83.9703 33.82 84.1679Q33.8394 84.3655 33.8491 84.5637Q33.8589 84.762 33.8589 84.9605L33.8589 84.9625Q33.8589 85.161 33.8491 85.3593Q33.8394 85.5576 33.82 85.7551Q33.8005 85.9527 33.7714 86.149Q33.7422 86.3454 33.7035 86.5401Q33.6648 86.7348 33.6165 86.9273Q33.5683 87.1199 33.5107 87.3099Q33.4531 87.4998 33.3862 87.6867Q33.3193 87.8736 33.2433 88.057Q33.1674 88.2404 33.0825 88.4199Q32.9976 88.5993 32.904 88.7744Q32.8105 88.9495 32.7084 89.1198Q32.6064 89.29 32.4961 89.4551Q32.3858 89.6201 32.2675 89.7796Q32.1493 89.939 32.0233 90.0925Q31.8974 90.2459 31.7641 90.393Q31.6308 90.5401 31.4904 90.6805Q31.3501 90.8209 31.203 90.9542Q31.0559 91.0875 30.9024 91.2134Q30.749 91.3393 30.5895 91.4576Q30.4301 91.5758 30.265 91.6861Q30.1 91.7964 29.9297 91.8985Q29.7594 92.0005 29.5844 92.0941Q29.4093 92.1877 29.2299 92.2725Q29.0504 92.3574 28.867 92.4334Q28.6836 92.5094 28.4967 92.5762Q28.3098 92.6431 28.1198 92.7007Q27.9299 92.7584 27.7373 92.8066Q27.5447 92.8548 27.35 92.8936Q27.1553 92.9323 26.959 92.9614Q26.7626 92.9905 26.5651 93.01Q26.3675 93.0295 26.1692 93.0392Q25.971 93.0489 25.7725 93.0489L16.8308 93.0489Q16.6323 93.0489 16.434 93.0392Q16.2358 93.0295 16.0382 93.01Q15.8406 92.9905 15.6443 92.9614Q15.4479 92.9323 15.2532 92.8936Q15.0585 92.8548 14.866 92.8066Q14.6734 92.7584 14.4834 92.7007Q14.2935 92.6431 14.1066 92.5762Q13.9197 92.5094 13.7363 92.4334Q13.5529 92.3574 13.3734 92.2725Q13.194 92.1877 13.0189 92.0941Q12.8438 92.0005 12.6736 91.8985Q12.5033 91.7964 12.3382 91.6861Q12.1732 91.5758 12.0137 91.4576Q11.8543 91.3393 11.7008 91.2134Q11.5474 91.0875 11.4003 90.9542Q11.2532 90.8209 11.1128 90.6805Q10.9725 90.5401 10.8392 90.393Q10.7059 90.2459 10.5799 90.0925Q10.454 89.939 10.3357 89.7796Q10.2175 89.6201 10.1072 89.4551Q9.99691 89.29 9.89485 89.1198Q9.7928 88.9495 9.69922 88.7744Q9.60564 88.5993 9.52077 88.4199Q9.43589 88.2404 9.35993 88.057Q9.28396 87.8736 9.21708 87.6867Q9.15021 87.4998 9.09258 87.3099Q9.03496 87.1199 8.98672 86.9274Q8.93849 86.7348 8.89976 86.5401Q8.86103 86.3454 8.83191 86.149Q8.80278 85.9527 8.78332 85.7551Q8.76387 85.5576 8.75413 85.3593Q8.74438 85.161 8.74438 84.9625L8.74438 84.9605Q8.74438 84.762 8.75413 84.5637Q8.76387 84.3655 8.78332 84.1679Q8.80278 83.9703 8.83191 83.774Q8.86103 83.5776 8.89976 83.3829Q8.93849 83.1882 8.98672 82.9957Q9.03496 82.8031 9.09258 82.6131Q9.15021 82.4232 9.21708 82.2363Q9.28396 82.0494 9.35993 81.866Q9.43589 81.6826 9.52077 81.5031Q9.60564 81.3237 9.69922 81.1486Q9.7928 80.9735 9.89485 80.8032Q9.99691 80.633 10.1072 80.4679Q10.2175 80.3029 10.3357 80.1434Q10.454 79.984 10.5799 79.8305Q10.7059 79.6771 10.8392 79.53Q10.9725 79.3829 11.1128 79.2425Q11.2532 79.1022 11.4003 78.9689Q11.5474 78.8355 11.7008 78.7096Q11.8543 78.5837 12.0137 78.4654Q12.1732 78.3472 12.3382 78.2369Q12.5033 78.1266 12.6736 78.0245Q12.8438 77.9225 13.0189 77.8289Q13.194 77.7353 13.3734 77.6505Q13.5529 77.5656 13.7363 77.4896Q13.9197 77.4137 14.1066 77.3468Q14.2935 77.2799 14.4834 77.2223Q14.6734 77.1647 14.866 77.1164Q15.0585 77.0682 15.2532 77.0295Q15.4479 76.9907 15.6443 76.9616Q15.8406 76.9325 16.0382 76.913Q16.2358 76.8936 16.434 76.8838Q16.6323 76.8741 16.8308 76.8741Z" id="Rectangle-Copy-8" fill="#CECECE" fill-rule="evenodd" stroke="none" />
    <path d="M16.8308 53.5526L26.1125 53.5526Q26.311 53.5526 26.5093 53.5623Q26.7075 53.572 26.9051 53.5915Q27.1026 53.6109 27.299 53.6401Q27.4954 53.6692 27.6901 53.7079Q27.8848 53.7467 28.0773 53.7949Q28.2699 53.8431 28.4599 53.9008Q28.6498 53.9584 28.8367 54.0252Q29.0236 54.0921 29.207 54.1681Q29.3904 54.2441 29.5699 54.3289Q29.7493 54.4138 29.9244 54.5074Q30.0995 54.601 30.2697 54.703Q30.44 54.8051 30.6051 54.9154Q30.7701 55.0256 30.9296 55.1439Q31.089 55.2622 31.2425 55.3881Q31.3959 55.514 31.543 55.6473Q31.6901 55.7806 31.8305 55.921Q31.9708 56.0614 32.1041 56.2085Q32.2375 56.3556 32.3634 56.509Q32.4893 56.6625 32.6076 56.8219Q32.7258 56.9813 32.8361 57.1464Q32.9464 57.3115 33.0485 57.4817Q33.1505 57.652 33.2441 57.8271Q33.3377 58.0021 33.4225 58.1816Q33.5074 58.361 33.5834 58.5444Q33.6593 58.7278 33.7262 58.9148Q33.7931 59.1017 33.8507 59.2916Q33.9084 59.4816 33.9566 59.6741Q34.0048 59.8667 34.0435 60.0614Q34.0823 60.2561 34.1114 60.4525Q34.1405 60.6488 34.16 60.8464Q34.1794 61.0439 34.1892 61.2422Q34.1989 61.4405 34.1989 61.639L34.1989 61.641Q34.1989 61.8395 34.1892 62.0378Q34.1794 62.236 34.16 62.4336Q34.1405 62.6312 34.1114 62.8275Q34.0823 63.0239 34.0435 63.2186Q34.0048 63.4133 33.9566 63.6058Q33.9084 63.7984 33.8507 63.9884Q33.7931 64.1783 33.7262 64.3652Q33.6593 64.5521 33.5834 64.7355Q33.5074 64.9189 33.4225 65.0984Q33.3377 65.2778 33.2441 65.4529Q33.1505 65.628 33.0485 65.7983Q32.9464 65.9685 32.8361 66.1336Q32.7258 66.2986 32.6076 66.4581Q32.4893 66.6175 32.3634 66.771Q32.2375 66.9244 32.1041 67.0715Q31.9708 67.2186 31.8305 67.359Q31.6901 67.4993 31.543 67.6326Q31.3959 67.766 31.2425 67.8919Q31.089 68.0178 30.9296 68.1361Q30.7701 68.2543 30.6051 68.3646Q30.44 68.4749 30.2697 68.577Q30.0995 68.679 29.9244 68.7726Q29.7493 68.8662 29.5699 68.9511Q29.3904 69.0359 29.207 69.1119Q29.0236 69.1879 28.8367 69.2547Q28.6498 69.3216 28.4599 69.3792Q28.2699 69.4369 28.0773 69.4851Q27.8848 69.5333 27.6901 69.5721Q27.4954 69.6108 27.299 69.6399Q27.1026 69.669 26.9051 69.6885Q26.7075 69.708 26.5093 69.7177Q26.311 69.7274 26.1125 69.7274L16.8308 69.7274Q16.6323 69.7274 16.434 69.7177Q16.2358 69.708 16.0382 69.6885Q15.8407 69.669 15.6443 69.6399Q15.4479 69.6108 15.2532 69.5721Q15.0585 69.5333 14.866 69.4851Q14.6734 69.4369 14.4835 69.3792Q14.2935 69.3216 14.1066 69.2547Q13.9197 69.1879 13.7363 69.1119Q13.5529 69.0359 13.3734 68.9511Q13.194 68.8662 13.0189 68.7726Q12.8438 68.679 12.6736 68.577Q12.5033 68.4749 12.3382 68.3646Q12.1732 68.2543 12.0137 68.1361Q11.8543 68.0178 11.7008 67.8919Q11.5474 67.766 11.4003 67.6327Q11.2532 67.4993 11.1129 67.359Q10.9725 67.2186 10.8392 67.0715Q10.7059 66.9244 10.5799 66.771Q10.454 66.6175 10.3357 66.4581Q10.2175 66.2986 10.1072 66.1336Q9.99691 65.9685 9.89486 65.7982Q9.7928 65.628 9.69922 65.4529Q9.60564 65.2778 9.52077 65.0984Q9.43589 64.9189 9.35993 64.7355Q9.28396 64.5521 9.21709 64.3652Q9.15021 64.1783 9.09258 63.9884Q9.03496 63.7984 8.98672 63.6058Q8.93849 63.4133 8.89976 63.2186Q8.86104 63.0239 8.83191 62.8275Q8.80278 62.6312 8.78332 62.4336Q8.76387 62.236 8.75413 62.0378Q8.74438 61.8395 8.74438 61.641L8.74438 61.639Q8.74438 61.4405 8.75413 61.2422Q8.76387 61.0439 8.78332 60.8464Q8.80278 60.6488 8.83191 60.4525Q8.86104 60.2561 8.89976 60.0614Q8.93849 59.8667 8.98672 59.6742Q9.03496 59.4816 9.09258 59.2916Q9.15021 59.1017 9.21709 58.9148Q9.28396 58.7278 9.35993 58.5444Q9.43589 58.361 9.52077 58.1816Q9.60564 58.0021 9.69922 57.8271Q9.7928 57.652 9.89486 57.4817Q9.99691 57.3115 10.1072 57.1464Q10.2175 56.9813 10.3357 56.8219Q10.454 56.6625 10.5799 56.509Q10.7059 56.3556 10.8392 56.2085Q10.9725 56.0614 11.1129 55.921Q11.2532 55.7806 11.4003 55.6473Q11.5474 55.514 11.7008 55.3881Q11.8543 55.2622 12.0137 55.1439Q12.1732 55.0256 12.3382 54.9154Q12.5033 54.8051 12.6736 54.703Q12.8438 54.601 13.0189 54.5074Q13.194 54.4138 13.3734 54.3289Q13.5529 54.2441 13.7363 54.1681Q13.9197 54.0921 14.1066 54.0252Q14.2935 53.9584 14.4835 53.9008Q14.6734 53.8431 14.866 53.7949Q15.0585 53.7467 15.2532 53.7079Q15.4479 53.6692 15.6443 53.6401Q15.8407 53.611 16.0382 53.5915Q16.2358 53.572 16.434 53.5623Q16.6323 53.5526 16.8308 53.5526Z" id="Rectangle-Copy-10" fill="#1B2C61" fill-rule="evenodd" stroke="none" />
    <path d="M9.40383 0L60.5297 0Q60.7605 0 60.9911 0.0113273Q61.2217 0.0226546 61.4514 0.045282Q61.6811 0.0679093 61.9095 0.101782Q62.1378 0.135655 62.3643 0.180692Q62.5907 0.225729 62.8146 0.281821Q63.0385 0.337913 63.2595 0.404926Q63.4804 0.471938 63.6977 0.549709Q63.9151 0.627481 64.1284 0.715824Q64.3416 0.804166 64.5503 0.902868Q64.759 1.00157 64.9626 1.11039Q65.1662 1.21921 65.3642 1.3379Q65.5622 1.45658 65.7542 1.58483Q65.9461 1.71308 66.1315 1.8506Q66.3169 1.98812 66.4954 2.13457Q66.6738 2.28102 66.8449 2.43605Q67.0159 2.59108 67.1792 2.75432Q67.3424 2.91755 67.4974 3.0886Q67.6525 3.25965 67.7989 3.4381Q67.9454 3.61655 68.0829 3.80197Q68.2204 3.98739 68.3487 4.17934Q68.4769 4.37129 68.5956 4.56929Q68.7143 4.7673 68.8231 4.97089Q68.9319 5.17449 69.0306 5.38317Q69.1293 5.59186 69.2177 5.80514Q69.306 6.01842 69.3838 6.23577Q69.4616 6.45313 69.5286 6.67404Q69.5956 6.89495 69.6517 7.11888Q69.7078 7.34282 69.7528 7.56923Q69.7979 7.79565 69.8317 8.024Q69.8656 8.25235 69.8882 8.48209Q69.9109 8.71183 69.9222 8.9424Q69.9335 9.17298 69.9335 9.40383L69.9335 18.8097L0 18.8097L0 9.40383Q0 9.17298 0.0113273 8.9424Q0.0226546 8.71183 0.045282 8.48209Q0.0679093 8.25235 0.101782 8.024Q0.135655 7.79565 0.180692 7.56923Q0.225729 7.34282 0.281821 7.11888Q0.337913 6.89495 0.404926 6.67404Q0.471938 6.45313 0.549709 6.23577Q0.627481 6.01842 0.715824 5.80514Q0.804166 5.59186 0.902868 5.38317Q1.00157 5.17449 1.11039 4.97089Q1.21921 4.7673 1.3379 4.56929Q1.45658 4.37129 1.58483 4.17934Q1.71308 3.98739 1.8506 3.80197Q1.98812 3.61655 2.13457 3.4381Q2.28102 3.25965 2.43605 3.0886Q2.59108 2.91755 2.75432 2.75432Q2.91755 2.59108 3.0886 2.43605Q3.25965 2.28102 3.4381 2.13457Q3.61655 1.98812 3.80197 1.8506Q3.98739 1.71308 4.17934 1.58483Q4.37129 1.45658 4.56929 1.3379Q4.7673 1.21921 4.97089 1.11039Q5.17449 1.00157 5.38317 0.902868Q5.59186 0.804166 5.80514 0.715824Q6.01842 0.627481 6.23577 0.549709Q6.45313 0.471938 6.67404 0.404926Q6.89495 0.337913 7.11888 0.281821Q7.34282 0.225729 7.56923 0.180692Q7.79565 0.135655 8.024 0.101782Q8.25235 0.0679093 8.48209 0.045282Q8.71183 0.0226546 8.9424 0.0113273Q9.17298 0 9.40383 0L9.40383 0Z" id="Rectangle-7" fill="#CECECE" fill-rule="evenodd" stroke="none" />
  </g>
</svg>