<?xml version="1.0" encoding="utf-8"?>
<svg width="1582.2427px" height="2004.9551px" viewBox="0 0 1582.2427 2004.9551" version="1.1" xmlns:xlink="http://www.w3.org/1999/xlink" xmlns="http://www.w3.org/2000/svg">
  <g id="Group" opacity="0.1">
    <path d="M210.364 276.391C210.364 244.359 236.332 218.391 268.364 218.391C300.397 218.391 326.364 244.359 326.364 276.391C326.364 308.424 300.397 334.391 268.364 334.391C236.332 334.391 210.364 308.424 210.364 276.391Z" id="Ellipse" fill="#B2D0FF" fill-opacity="0.8" fill-rule="evenodd" stroke="none" />
    <path d="M268.364 372.891C268.364 360.465 278.438 350.391 290.864 350.391C303.291 350.391 313.364 360.465 313.364 372.891C313.364 385.318 303.291 395.391 290.864 395.391C278.438 395.391 268.364 385.318 268.364 372.891Z" id="Ellipse-Copy" fill="#B2D0FF" fill-opacity="0.8" fill-rule="evenodd" stroke="none" />
    <path d="M172.364 372.391C172.364 351.404 189.377 334.391 210.364 334.391C231.351 334.391 248.364 351.404 248.364 372.391C248.364 393.378 231.351 410.391 210.364 410.391C189.377 410.391 172.364 393.378 172.364 372.391Z" id="Ellipse-Copy-2" fill="#D9DEFF" fill-opacity="0.8" fill-rule="evenodd" stroke="none" />
    <path d="M538.878 1075.28C550.687 1042.83 533.957 1006.96 501.511 995.147C469.065 983.337 433.189 1000.07 421.379 1032.51C409.57 1064.96 426.299 1100.84 458.746 1112.64C491.192 1124.45 527.068 1107.72 538.878 1075.28Z" id="Ellipse-Copy-6" fill="#74DEFE" fill-rule="evenodd" stroke="none" />
    <path d="M444.552 1151.64C449.133 1139.06 442.643 1125.14 430.057 1120.56C417.47 1115.98 403.552 1122.47 398.971 1135.05C394.39 1147.64 400.88 1161.56 413.466 1166.14C426.053 1170.72 439.971 1164.23 444.552 1151.64Z" id="Ellipse-Copy-7" fill="#D9DEFF" fill-opacity="0.8" fill-rule="evenodd" stroke="none" />
    <path d="M541.976 1186.53C549.713 1165.27 538.752 1141.76 517.495 1134.03C496.237 1126.29 472.731 1137.25 464.994 1158.51C457.257 1179.77 468.218 1203.27 489.476 1211.01C510.734 1218.75 534.239 1207.79 541.976 1186.53Z" id="Ellipse-Copy-8" fill="#B2D0FF" fill-opacity="0.8" fill-rule="evenodd" stroke="none" />
    <path d="M975.526 1797.8C964.837 1754.93 921.419 1728.84 878.549 1739.53C835.678 1750.22 809.59 1793.64 820.279 1836.51C830.968 1879.38 874.386 1905.47 917.257 1894.78C960.127 1884.09 986.215 1840.67 975.526 1797.8Z" id="Ellipse-Copy-18" fill="#74DEFE" fill-rule="evenodd" stroke="none" />
    <path d="M919.652 1941.59C917.013 1931.01 906.292 1924.56 895.707 1927.2C885.122 1929.84 878.68 1940.56 881.319 1951.15C883.959 1961.73 894.679 1968.18 905.265 1965.54C915.85 1962.9 922.292 1952.18 919.652 1941.59Z" id="Ellipse-Copy-19" fill="#D9DEFF" fill-opacity="0.8" fill-rule="evenodd" stroke="none" />
    <path d="M1067.95 1918.49C1060 1886.63 1027.73 1867.24 995.869 1875.18C964.005 1883.13 944.614 1915.4 952.559 1947.26C960.504 1979.12 992.775 1998.51 1024.64 1990.57C1056.5 1982.63 1075.89 1950.35 1067.95 1918.49Z" id="Ellipse-Copy-20" fill="#B2D0FF" fill-opacity="0.8" fill-rule="evenodd" stroke="none" />
    <path d="M211.885 1611.84C221.994 1584.07 207.673 1553.36 179.898 1543.25C152.122 1533.14 121.41 1547.46 111.301 1575.23C101.192 1603.01 115.513 1633.72 143.288 1643.83C171.064 1653.94 201.775 1639.62 211.885 1611.84Z" id="Ellipse-Copy-15" fill="#74DEFE" fill-rule="evenodd" stroke="none" />
    <path d="M67.2046 1663.6C72.9192 1647.9 64.8238 1630.54 49.123 1624.83C33.4222 1619.11 16.0616 1627.21 10.347 1642.91C4.63248 1658.61 12.7279 1675.97 28.4287 1681.69C44.1295 1687.4 61.49 1679.3 67.2046 1663.6Z" id="Ellipse-Copy-16" fill="#B2D0FF" fill-opacity="0.8" fill-rule="evenodd" stroke="none" />
    <path d="M224.436 1781.89C237.651 1745.58 218.931 1705.43 182.622 1692.22C146.314 1679 106.167 1697.72 92.9525 1734.03C79.7374 1770.34 98.4582 1810.49 134.766 1823.7C171.075 1836.92 211.221 1818.2 224.436 1781.89Z" id="Ellipse-Copy-17" fill="#D9DEFF" fill-opacity="0.8" fill-rule="evenodd" stroke="none" />
    <path d="M1555.57 126.651C1570.3 86.1705 1549.43 41.4109 1508.95 26.6774C1468.47 11.9439 1423.71 32.8158 1408.97 73.2961C1394.24 113.776 1415.11 158.536 1455.59 173.27C1496.07 188.003 1540.83 167.131 1555.57 126.651Z" id="Ellipse-Copy-12" fill="#74DEFE" fill-rule="evenodd" stroke="none" />
    <path d="M1437.15 231.592C1443.05 215.373 1434.69 197.438 1418.47 191.535C1402.25 185.631 1384.31 193.994 1378.41 210.214C1372.51 226.434 1380.87 244.368 1397.09 250.272C1413.31 256.175 1431.24 247.812 1437.15 231.592Z" id="Ellipse-Copy-13" fill="#D9DEFF" fill-opacity="0.8" fill-rule="evenodd" stroke="none" />
    <path d="M1554.49 349.93C1567.23 314.919 1549.18 276.207 1514.17 263.464C1479.16 250.721 1440.45 268.773 1427.71 303.784C1414.96 338.795 1433.02 377.507 1468.03 390.249C1503.04 402.992 1541.75 384.94 1554.49 349.93Z" id="Ellipse-Copy-14" fill="#B2D0FF" fill-opacity="0.8" fill-rule="evenodd" stroke="none" />
    <path d="M890.364 608.891C890.364 581 912.974 558.391 940.864 558.391C968.755 558.391 991.364 581 991.364 608.891C991.364 636.781 968.755 659.391 940.864 659.391C912.974 659.391 890.364 636.781 890.364 608.891Z" id="Ellipse-Copy-3" fill="#B2D0FF" fill-opacity="0.8" fill-rule="evenodd" stroke="none" />
    <path d="M890.364 736.891C890.364 724.464 900.438 714.391 912.864 714.391C925.291 714.391 935.364 724.464 935.364 736.891C935.364 749.317 925.291 759.391 912.864 759.391C900.438 759.391 890.364 749.317 890.364 736.891Z" id="Ellipse-Copy-4" fill="#74DEFE" fill-rule="evenodd" stroke="none" />
    <path d="M968.364 698.391C968.364 677.404 985.377 660.391 1006.36 660.391C1027.35 660.391 1044.36 677.404 1044.36 698.391C1044.36 719.378 1027.35 736.391 1006.36 736.391C985.377 736.391 968.364 719.378 968.364 698.391Z" id="Ellipse-Copy-5" fill="#D9DEFF" fill-opacity="0.8" fill-rule="evenodd" stroke="none" />
    <path d="M1412.36 1243.89C1412.36 1205.51 1443.48 1174.39 1481.86 1174.39C1520.25 1174.39 1551.36 1205.51 1551.36 1243.89C1551.36 1282.27 1520.25 1313.39 1481.86 1313.39C1443.48 1313.39 1412.36 1282.27 1412.36 1243.89Z" id="Ellipse-Copy-9" fill="#B2D0FF" fill-opacity="0.8" fill-rule="evenodd" stroke="none" />
    <path d="M1407.36 1442.13C1407.36 1425.02 1421.23 1411.16 1438.33 1411.16C1455.43 1411.16 1469.29 1425.02 1469.29 1442.13C1469.29 1459.23 1455.43 1473.09 1438.33 1473.09C1421.23 1473.09 1407.36 1459.23 1407.36 1442.13Z" id="Ellipse-Copy-10" fill="#74DEFE" fill-rule="evenodd" stroke="none" />
    <path d="M1369.36 1150.29C1369.36 1129.3 1386.38 1112.29 1407.36 1112.29C1428.35 1112.29 1445.36 1129.3 1445.36 1150.29C1445.36 1171.28 1428.35 1188.29 1407.36 1188.29C1386.38 1188.29 1369.36 1171.28 1369.36 1150.29Z" id="Ellipse-Copy-11" fill="#D9DEFF" fill-opacity="0.8" fill-rule="evenodd" stroke="none" />
  </g>
</svg>