<svg aria-hidden="true" style="position: absolute; width: 0; height: 0; overflow: hidden;" version="1.1" xmlns="http://www.w3.org/2000/svg" xmlns:xlink="http://www.w3.org/1999/xlink">
<defs>
<symbol id="icon-academic" viewBox="0 0 32 32">
<path d="M29.154 23.402v-9.602l-11.754 6.615q-0.176 0.099-0.364 0.175t-0.384 0.126-0.397 0.076-0.403 0.024-0.403-0.028-0.396-0.080-0.382-0.131-0.362-0.179l-13.139-7.579q-0.066-0.038-0.13-0.081t-0.125-0.089-0.118-0.097-0.112-0.105-0.105-0.112-0.097-0.118-0.089-0.125-0.081-0.13-0.072-0.135-0.063-0.14-0.054-0.143-0.044-0.147-0.035-0.149-0.025-0.151-0.015-0.152-0.005-0.153 0.005-0.153 0.015-0.152 0.025-0.151 0.035-0.149 0.044-0.147 0.054-0.143 0.063-0.14 0.072-0.135 0.081-0.13 0.089-0.125 0.097-0.118 0.105-0.112 0.112-0.105 0.118-0.097 0.125-0.089 0.13-0.081l13.118-7.567q0.177-0.102 0.366-0.18t0.387-0.131 0.401-0.079 0.408-0.026 0.408 0.027 0.4 0.080 0.387 0.131 0.366 0.181l13.451 7.777q0.088 0.051 0.17 0.113t0.153 0.135 0.134 0.153 0.113 0.17 0.090 0.183 0.066 0.193 0.040 0.2 0.013 0.203v13.075q0 0.061-0.006 0.122t-0.018 0.121-0.030 0.118-0.041 0.115-0.052 0.11-0.063 0.105-0.073 0.098-0.082 0.090-0.090 0.082-0.098 0.073-0.105 0.063-0.11 0.052-0.115 0.041-0.118 0.030-0.121 0.018-0.122 0.006h-0.002q-0.061 0-0.122-0.006t-0.121-0.018-0.118-0.030-0.115-0.041-0.11-0.052-0.105-0.063-0.098-0.073-0.090-0.082-0.082-0.090-0.073-0.098-0.063-0.105-0.052-0.11-0.041-0.115-0.030-0.118-0.018-0.121-0.006-0.122v0zM15.819 31.198c-4.437 0-8.307-3.025-9.719-4.277-0.322-0.286-0.569-0.882-0.569-1.312v-6.64q0-0.051 0.007-0.101t0.020-0.099 0.032-0.096 0.044-0.091 0.056-0.084 0.066-0.076 0.076-0.067 0.084-0.057 0.090-0.046 0.096-0.033 0.099-0.021 0.101-0.008 0.101 0.005 0.1 0.018 0.096 0.031 0.091 0.043l8.022 4.46q0.127 0.071 0.262 0.125t0.275 0.092 0.285 0.057 0.289 0.021 0.29-0.015 0.286-0.051 0.277-0.085 0.265-0.119l7.755-4.088q0.044-0.023 0.091-0.041t0.096-0.029 0.099-0.016 0.1-0.003 0.1 0.009 0.098 0.022 0.094 0.034 0.089 0.046 0.082 0.057 0.074 0.067 0.065 0.076 0.055 0.084 0.044 0.090 0.032 0.095 0.019 0.098 0.006 0.1v6.236c0 0.431-0.24 1.034-0.555 1.327-1.355 1.261-5.044 4.263-9.464 4.263z"></path>
</symbol>
<symbol id="icon-academic-circle" viewBox="0 0 32 32">
<path fill="none" stroke="currentColor" stroke-linejoin="miter" stroke-linecap="round" stroke-miterlimit="4" stroke-width="2" d="M1.091 16c0-8.234 6.675-14.909 14.909-14.909s14.909 6.675 14.909 14.909c0 8.234-6.675 14.909-14.909 14.909s-14.909-6.675-14.909-14.909z"></path>
<path d="M15.649 23.273c-2.708 0-4.984-1.764-5.965-2.66-0.296-0.271-0.518-0.834-0.518-1.236v-3.278l-2.254-1.252q-0.041-0.023-0.081-0.049t-0.078-0.054-0.074-0.059-0.070-0.064-0.065-0.068-0.061-0.073-0.056-0.076-0.051-0.080-0.045-0.083-0.039-0.086-0.034-0.088-0.028-0.091-0.022-0.092-0.015-0.093-0.009-0.094-0.003-0.095 0.003-0.095 0.010-0.094 0.016-0.093 0.022-0.092 0.028-0.090 0.034-0.088 0.040-0.086 0.046-0.083 0.051-0.080 0.056-0.076 0.061-0.072 0.066-0.068 0.070-0.063 0.074-0.059 0.078-0.053 0.082-0.048l6.292-3.44q0.279-0.153 0.575-0.269t0.604-0.196 0.624-0.119 0.634-0.040 0.634 0.039 0.624 0.118 0.605 0.194 0.576 0.268l6.245 3.399q0.086 0.047 0.164 0.104t0.149 0.125 0.131 0.144 0.11 0.16 0.088 0.174 0.064 0.184 0.039 0.191 0.013 0.194v5.674q0 0.042-0.004 0.083t-0.012 0.082-0.020 0.081-0.027 0.079-0.035 0.076-0.042 0.072-0.049 0.068-0.055 0.063-0.061 0.057-0.066 0.051-0.070 0.044-0.074 0.037-0.078 0.030-0.080 0.022-0.082 0.015-0.083 0.007l-0.001 0q-0.041 0.001-0.081-0.001t-0.081-0.009-0.079-0.018-0.077-0.025-0.074-0.033-0.071-0.040-0.066-0.047-0.061-0.053-0.055-0.059-0.049-0.065-0.043-0.069-0.035-0.073-0.028-0.076-0.020-0.079-0.012-0.080-0.004-0.081v-4.253l-1.233 1.029v3.278c0 0.401-0.224 0.963-0.522 1.232-0.993 0.895-3.299 2.664-6.011 2.664zM16.581 16.637l5.018-2.412q0.023-0.011 0.044-0.023t0.043-0.026 0.041-0.029 0.039-0.032 0.036-0.035 0.034-0.037 0.031-0.039 0.029-0.041 0.026-0.043 0.023-0.045 0.019-0.046 0.016-0.048 0.013-0.049 0.009-0.049 0.006-0.050 0.003-0.050-0.001-0.050-0.004-0.050-0.008-0.050-0.011-0.049-0.015-0.048-0.018-0.047-0.021-0.046-0.024-0.044-0.027-0.042-0.030-0.040-0.033-0.038-0.035-0.036-0.038-0.033-0.040-0.030-0.042-0.028-0.044-0.025l-4.978-2.585q-0.116-0.060-0.238-0.106t-0.249-0.077-0.257-0.047-0.261-0.016-0.261 0.016-0.257 0.047-0.249 0.077-0.238 0.106l-4.978 2.585q-0.022 0.012-0.044 0.025t-0.042 0.028-0.040 0.030-0.038 0.033-0.035 0.036-0.033 0.038-0.030 0.040-0.027 0.042-0.024 0.044-0.021 0.046-0.018 0.047-0.015 0.048-0.011 0.049-0.008 0.050-0.004 0.050-0.001 0.050 0.003 0.050 0.006 0.050 0.009 0.049 0.013 0.049 0.016 0.048 0.019 0.046 0.023 0.045 0.026 0.043 0.028 0.041 0.031 0.039 0.034 0.037 0.036 0.035 0.039 0.032 0.041 0.029 0.043 0.026 0.044 0.023l5.018 2.412q0.11 0.053 0.226 0.093t0.235 0.067 0.241 0.041 0.244 0.014 0.244-0.014 0.241-0.041 0.235-0.067 0.226-0.093zM15.649 21.455c2.978 0 4.715-2.178 4.715-2.178v-2.186l-2.58 1.196q-0.25 0.116-0.512 0.204t-0.531 0.148-0.544 0.090-0.55 0.030-0.55-0.029-0.544-0.089-0.531-0.147-0.512-0.203l-2.603-1.2c0 0 0 2.186 0 2.186s1.761 2.178 4.74 2.178z"></path>
</symbol>
<symbol id="icon-cert-date-icon" viewBox="0 0 32 32">
<path stroke="none" d="M16 0c-8.817 0-16 7.183-16 16s7.183 16 16 16c8.817 0 16-7.183 16-16s-7.183-16-16-16v0zM16 2.462c7.49 0 13.538 6.048 13.538 13.538s-6.048 13.538-13.538 13.538c-7.49 0-13.538-6.048-13.538-13.538s6.048-13.538 13.538-13.538v0zM22.425 9.955c-0.042-0.004-8.792 9.333-8.792 9.333s-3.332-3.494-3.622-3.747c-0.829-0.502-1.623-0.126-1.822 0.051s-0.707 0.745-0.104 1.945c0.135 0.162 2.897 3.021 4.472 4.65 0 0 0.822 0.819 2.203-0.055 0.015 0.030 9.924-10.285 9.92-10.286 0.474-1.155-0.021-1.801-0.096-1.89-0.124-0.147-0.981-0.754-2.159-0z" fill="currentColor"></path>
</symbol>
<symbol id="icon-cert-duration-icon" viewBox="0 0 32 32">
<path fill="none" stroke="currentColor" stroke-linejoin="round" stroke-linecap="round" stroke-miterlimit="4" stroke-width="3.1998" d="M5.269 6.4c-2.329 2.601-3.632 5.959-3.668 9.45-0.089 7.976 6.424 14.535 14.4 14.55 7.965 0.015 14.4-6.437 14.4-14.4 0-7.84-6.266-14.221-14.062-14.4-0.089-0.003-0.175 0.030-0.238 0.092s-0.099 0.147-0.099 0.236v6.272"></path>
<path fill="currentColor" d="M14.305 17.697l-5.925-8.475c-0.169-0.242-0.14-0.571 0.069-0.78s0.538-0.238 0.78-0.069l8.475 5.925c1.082 0.779 1.337 2.283 0.573 3.375s-2.264 1.368-3.367 0.62c-0.234-0.162-0.439-0.364-0.605-0.595v0z"></path>
</symbol>
<symbol id="icon-close-outline" viewBox="0 0 32 32">
<path stroke="#252525" style="stroke: var(--color-black)" stroke-linejoin="round" stroke-linecap="round" stroke-miterlimit="4" stroke-width="2" d="M23 23l-14-14M23 9l-14 14"></path>
</symbol>
<symbol id="icon-edu-duration" viewBox="0 0 32 32">
<path fill="none" style="stroke: currentColor" stroke-linejoin="round" stroke-linecap="round" stroke-miterlimit="4" stroke-width="4.5" d="M5.78 6.857c-2.218 2.477-3.459 5.675-3.494 9-0.084 7.596 6.118 13.843 13.714 13.857 7.586 0.014 13.714-6.131 13.714-13.714 0-7.467-5.968-13.543-13.393-13.714-0.084-0.003-0.166 0.029-0.227 0.088s-0.095 0.14-0.094 0.224v5.974"></path>
<path style="fill: currentColor" d="M14.385 17.616l-5.643-8.071c-0.161-0.231-0.134-0.544 0.066-0.743s0.512-0.227 0.743-0.066l8.071 5.643c1.030 0.742 1.273 2.174 0.546 3.214s-2.156 1.303-3.206 0.59c-0.223-0.155-0.418-0.346-0.576-0.567v0z"></path>
</symbol>
<symbol id="icon-edu-location" viewBox="0 0 32 32">
<path style="fill: currentColor" d="M16.302 0.615h0.004q0.316 0 0.631 0.020t0.628 0.061 0.623 0.101 0.615 0.141 0.605 0.18 0.592 0.219 0.577 0.256 0.559 0.293 0.539 0.328 0.517 0.362 0.492 0.394 0.466 0.425 0.438 0.454 0.408 0.482 0.376 0.507 0.343 0.53 0.308 0.551 0.272 0.569 0.234 0.586 0.197 0.6 0.158 0.611 0.118 0.62 0.078 0.626 0.038 0.63-0.003 0.631-0.044 0.629-0.084 0.625-0.124 0.619-0.164 0.609-0.202 0.598-0.24 0.583-0.277 0.567l-8.671 16.364-8.671-16.364q-0.148-0.279-0.277-0.567t-0.24-0.583-0.202-0.598-0.164-0.609-0.124-0.619-0.084-0.625-0.044-0.629-0.003-0.631 0.037-0.63 0.078-0.626 0.118-0.62 0.158-0.611 0.196-0.6 0.235-0.586 0.272-0.569 0.308-0.551 0.343-0.53 0.376-0.507 0.408-0.482 0.438-0.454 0.466-0.425 0.492-0.394 0.517-0.362 0.539-0.328 0.559-0.293 0.577-0.256 0.592-0.219 0.605-0.18 0.615-0.141 0.623-0.101 0.628-0.061 0.631-0.020z"></path>
<path fill="#ffffff" style="fill: var(--color-white);" d="M12.207 10.482c0-2.309 1.872-4.181 4.181-4.181s4.181 1.872 4.181 4.181c0 2.309-1.872 4.181-4.181 4.181s-4.181-1.872-4.181-4.181z"></path>
</symbol>
<symbol id="icon-email" viewBox="0 0 32 32">
<path fill="none" stroke-linejoin="miter" stroke-linecap="round" stroke-miterlimit="4" stroke-width="1.2152" d="M0.608 16c0-8.501 6.891-15.392 15.392-15.392s15.392 6.891 15.392 15.392c0 8.501-6.891 15.392-15.392 15.392s-15.392-6.891-15.392-15.392z"></path>
<path d="M17.978 18.917q-0.496 0-0.886-0.233t-0.543-0.751q-0.43 0.525-0.911 0.751t-1.035 0.226q-0.459 0-0.798-0.16t-0.569-0.441-0.343-0.663-0.113-0.835q0-0.416 0.106-0.842t0.317-0.824 0.529-0.744 0.747-0.605 0.962-0.408 1.181-0.149q0.561 0 0.962 0.088t0.773 0.248l-0.7 2.705q-0.117 0.467-0.117 0.78 0 0.219 0.055 0.365t0.146 0.233 0.222 0.12 0.284 0.033q0.306 0 0.58-0.193t0.478-0.543 0.324-0.831 0.12-1.050q0-0.948-0.295-1.67t-0.824-1.207-1.265-0.729-1.611-0.244q-0.955 0-1.775 0.361t-1.422 0.988-0.941 1.48-0.339 1.837q0 1.196 0.372 2.104t1.021 1.517c0.433 0.406 0.942 0.711 1.527 0.915q0.879 0.306 1.899 0.306 0.561 0 1.050-0.062t0.897-0.168 0.744-0.241 0.598-0.288q0.146-0.080 0.248-0.080 0.211 0 0.299 0.233l0.248 0.649q-0.758 0.496-1.772 0.809t-2.311 0.314q-1.32 0-2.443-0.416t-1.943-1.192-1.283-1.892-0.463-2.508q0-0.78 0.2-1.517t0.572-1.382 0.897-1.185 1.167-0.926 1.389-0.602 1.564-0.215q1.035 0 1.987 0.346t1.684 0.992 1.17 1.575 0.437 2.096q0 0.78-0.23 1.462t-0.642 1.185-0.97 0.791-1.214 0.288zM14.959 17.751q0.19 0 0.383-0.058t0.368-0.208 0.321-0.397 0.241-0.62l0.532-2.056q-0.233-0.044-0.481-0.044-0.452 0-0.846 0.197t-0.682 0.532-0.456 0.769-0.168 0.9 0.2 0.725 0.587 0.259z"></path>
</symbol>
<symbol id="icon-gears" viewBox="0 0 32 32">
<path d="M22.667 14.193v-3.053c-1.56-0.556-2.543-0.711-3.040-1.908-0.497-1.2 0.093-2.015 0.8-3.499l-2.157-2.159c-1.473 0.7-2.297 1.297-3.501 0.799-1.2-0.497-1.356-1.487-1.908-3.039h-3.053c-0.549 1.544-0.707 2.541-1.908 3.039h-0.001c-1.2 0.499-2.013-0.092-3.5-0.799l-2.156 2.159c0.703 1.48 1.297 2.297 0.8 3.499-0.5 1.201-1.497 1.36-3.041 1.909v3.052c1.54 0.549 2.543 0.707 3.040 1.907 0.501 1.211-0.108 2.045-0.8 3.5l2.157 2.159c1.476-0.7 2.299-1.299 3.5-0.8h0.001c1.2 0.497 1.357 1.491 1.908 3.040h3.052c0.549-1.544 0.707-2.54 1.916-3.043h0.001c1.192-0.496 2.001 0.095 3.492 0.803l2.157-2.159c-0.7-1.476-1.299-2.297-0.801-3.5 0.499-1.199 1.501-1.359 3.043-1.907v0zM11.333 16.445c-2.085 0-3.777-1.692-3.777-3.779s1.692-3.779 3.777-3.779c2.085 0 3.777 1.692 3.777 3.779s-1.692 3.779-3.777 3.779v0zM32 22.052v-1.436c-0.733-0.261-1.196-0.335-1.431-0.897-0.235-0.565 0.044-0.948 0.376-1.648l-1.016-1.016c-0.693 0.331-1.081 0.611-1.647 0.377s-0.639-0.7-0.899-1.431h-1.435c-0.259 0.727-0.333 1.196-0.899 1.431s-0.948-0.044-1.647-0.377l-1.016 1.016c0.331 0.697 0.611 1.083 0.376 1.648s-0.704 0.639-1.431 0.897v1.436c0.725 0.257 1.196 0.333 1.431 0.897 0.236 0.569-0.051 0.963-0.376 1.648l1.016 1.016c0.695-0.331 1.083-0.611 1.647-0.377 0.565 0.233 0.639 0.701 0.899 1.431h1.435c0.259-0.727 0.333-1.196 0.901-1.432h0.001c0.561-0.233 0.941 0.045 1.643 0.379l1.016-1.016c-0.329-0.695-0.611-1.083-0.376-1.647s0.705-0.641 1.431-0.899v0zM26.667 23.111c-0.981 0-1.777-0.796-1.777-1.777s0.796-1.777 1.777-1.777c0.981 0 1.777 0.796 1.777 1.777s-0.796 1.777-1.777 1.777v0zM21.333 27.205v-1.077c-0.549-0.196-0.897-0.251-1.073-0.673s0.032-0.711 0.283-1.236l-0.763-0.761c-0.519 0.248-0.809 0.459-1.235 0.283s-0.479-0.525-0.675-1.073h-1.076c-0.195 0.545-0.251 0.897-0.675 1.073-0.423 0.176-0.711-0.032-1.235-0.283l-0.763 0.761c0.249 0.524 0.459 0.812 0.283 1.236s-0.528 0.479-1.073 0.673v1.077c0.544 0.193 0.897 0.251 1.073 0.673 0.177 0.427-0.037 0.723-0.283 1.236l0.763 0.761c0.52-0.248 0.811-0.459 1.235-0.283s0.479 0.527 0.675 1.073h1.076c0.195-0.545 0.251-0.897 0.676-1.073h0.001c0.42-0.175 0.705 0.033 1.232 0.284l0.763-0.761c-0.248-0.521-0.459-0.812-0.283-1.236s0.529-0.481 1.073-0.675v0zM17.333 28c-0.736 0-1.333-0.596-1.333-1.333s0.597-1.333 1.333-1.333c0.736 0 1.333 0.596 1.333 1.333s-0.597 1.333-1.333 1.333v0z"></path>
</symbol>
<symbol id="icon-handshake-circle" viewBox="0 0 32 32">
<path stroke-linejoin="round" stroke-linecap="round" stroke-miterlimit="4" stroke-width="0.3636" d="M15.9 23.57c0.066 0 0.143-0.017 0.229-0.050s0.156-0.077 0.209-0.131l6.707-6.812c0.172-0.175 0.302-0.373 0.388-0.595s0.129-0.447 0.129-0.675-0.043-0.457-0.129-0.685c-0.086-0.228-0.216-0.43-0.388-0.605l-3.583-3.628c-0.172-0.175-0.372-0.306-0.597-0.393s-0.451-0.131-0.677-0.131c-0.226 0-0.448 0.044-0.667 0.131s-0.415 0.218-0.587 0.393l-0.358 0.363 1.612 1.653c0.172 0.188 0.325 0.406 0.458 0.655s0.199 0.521 0.199 0.816c0 0.511-0.196 0.961-0.587 1.35s-0.839 0.585-1.343 0.585c-0.332 0-0.607-0.050-0.826-0.151s-0.421-0.245-0.607-0.433l-1.453-1.471-3.603 3.648c-0.066 0.067-0.113 0.138-0.139 0.212s-0.040 0.151-0.040 0.232c0 0.175 0.056 0.319 0.169 0.433s0.255 0.171 0.428 0.171c0.080 0 0.156-0.020 0.229-0.061s0.136-0.087 0.189-0.141l2.747-2.781 0.836 0.847-2.727 2.761c-0.066 0.067-0.113 0.141-0.139 0.222s-0.040 0.161-0.040 0.242c0 0.161 0.060 0.302 0.179 0.423s0.259 0.181 0.418 0.181c0.080 0 0.156-0.017 0.229-0.050s0.136-0.077 0.189-0.131l2.747-2.781 0.836 0.847-2.727 2.761c-0.053 0.054-0.096 0.124-0.129 0.212s-0.050 0.171-0.050 0.252c0 0.161 0.060 0.302 0.179 0.423s0.259 0.181 0.418 0.181c0.080 0 0.153-0.013 0.219-0.040s0.133-0.074 0.199-0.141l2.747-2.781 0.836 0.847-2.747 2.781c-0.066 0.067-0.113 0.141-0.139 0.222s-0.040 0.155-0.040 0.222c0 0.188 0.053 0.336 0.159 0.443s0.252 0.161 0.438 0.161v0zM15.901 24.779c-0.438 0-0.829-0.165-1.174-0.494s-0.551-0.736-0.617-1.219c-0.451-0.067-0.829-0.255-1.135-0.564s-0.491-0.692-0.557-1.149c-0.451-0.067-0.826-0.259-1.125-0.574s-0.481-0.695-0.547-1.139c-0.491-0.067-0.896-0.269-1.214-0.605s-0.478-0.739-0.478-1.209c0-0.228 0.043-0.457 0.129-0.685s0.216-0.43 0.388-0.605l4.458-4.515 2.189 2.217c0.106 0.107 0.222 0.191 0.348 0.252s0.388-0 0.508-0c0.172 0 0.196 0.013 0.348-0.141s0.229-0.319 0.229-0.494c0-0.081-0.023-0.171-0.070-0.272s-0.123-0.205-0.229-0.312l-2.846-2.882c-0.172-0.175-0.372-0.306-0.597-0.393s-0.451-0.131-0.677-0.131c-0.226 0-0.448 0.044-0.667 0.131s-0.415 0.218-0.587 0.393l-3.025 3.064c-0.186 0.188-0.315 0.386-0.388 0.595s-0.116 0.44-0.129 0.695c-0.013 0.269 0.037 0.527 0.149 0.776s0.249 0.474 0.408 0.675l-0.856 0.867c-0.265-0.296-0.481-0.652-0.647-1.068s-0.249-0.84-0.249-1.27c0-0.403 0.076-0.789 0.229-1.159s0.368-0.695 0.647-0.977l3.005-3.043c0.292-0.296 0.624-0.514 0.995-0.655s0.75-0.212 1.134-0.212c0.385 0 0.76 0.071 1.125 0.212s0.693 0.359 0.985 0.655l0.358 0.363 0.358-0.363c0.292-0.296 0.624-0.514 0.995-0.655s0.75-0.212 1.134-0.212c0.385 0 0.76 0.071 1.125 0.212s0.693 0.359 0.985 0.655l3.563 3.608c0.292 0.296 0.511 0.632 0.657 1.008s0.219 0.759 0.219 1.149c0 0.39-0.073 0.769-0.219 1.139s-0.365 0.702-0.657 0.998l-6.708 6.792c-0.172 0.175-0.368 0.309-0.587 0.403s-0.448 0.141-0.687 0.141v0z"></path>
<path stroke-linejoin="miter" fill="#00000000" stroke-linecap="round" stroke="currentColor" stroke-miterlimit="4" stroke-width="2" d="M1.091 16c0-8.234 6.675-14.909 14.909-14.909s14.909 6.675 14.909 14.909c0 8.234-6.675 14.909-14.909 14.909s-14.909-6.675-14.909-14.909z"></path>
</symbol>
<symbol id="icon-linkedin" viewBox="0 0 32 32">
<path fill="none" stroke-linejoin="miter" stroke-linecap="round" stroke-miterlimit="4" stroke-width="1.2152" d="M0.608 16c0-8.501 6.891-15.392 15.392-15.392s15.392 6.891 15.392 15.392c0 8.501-6.891 15.392-15.392 15.392s-15.392-6.891-15.392-15.392z"></path>
<path d="M12.085 11.98q0.095-0.204 0.095-0.437 0-0.241-0.095-0.452t-0.252-0.365-0.368-0.244-0.452-0.091q-0.233 0-0.441 0.091t-0.361 0.244-0.244 0.365-0.091 0.452q0 0.233 0.091 0.437t0.244 0.357 0.361 0.244 0.441 0.091q0.241 0 0.452-0.091t0.368-0.244 0.252-0.357zM14.755 13.723v7.481h1.801v-5.41q0.365-0.365 0.773-0.576t0.875-0.211q0.634 0 0.951 0.376t0.317 1.061v4.761h1.801v-4.761q0-0.627-0.164-1.148t-0.481-0.897-0.791-0.583-1.086-0.208q-0.379 0-0.7 0.073t-0.602 0.211-0.532 0.328-0.478 0.423l-0.124-0.591q-0.109-0.328-0.459-0.328h-1.101zM11.91 21.203v-7.481h-1.801v7.481h1.801z"></path>
</symbol>
<symbol id="icon-logo" viewBox="0 0 55.5 55.881714">
 <g id="Group-40-Copy" transform="translate(2 2)">
    <path d="M7.20363 0L44.8451 0Q45.0074 0 45.1695 0.00796365Q45.3316 0.0159273 45.4932 0.0318354Q45.6547 0.0477436 45.8152 0.0715578Q45.9757 0.0953721 46.1349 0.127035Q46.2941 0.158698 46.4515 0.198134Q46.609 0.237569 46.7643 0.284682Q46.9196 0.331795 47.0724 0.386472Q47.2252 0.441149 47.3752 0.503259Q47.5251 0.565368 47.6718 0.63476Q47.8186 0.704152 47.9617 0.780659Q48.1048 0.857167 48.244 0.940605Q48.3832 1.02404 48.5182 1.11421Q48.6531 1.20438 48.7835 1.30106Q48.9139 1.39774 49.0393 1.50071Q49.1648 1.60367 49.285 1.71266Q49.4053 1.82166 49.5201 1.93642Q49.6348 2.05118 49.7438 2.17144Q49.8528 2.29169 49.9558 2.41715Q50.0587 2.54261 50.1554 2.67297Q50.2521 2.80333 50.3423 2.93828Q50.4324 3.07323 50.5159 3.21243Q50.5993 3.35164 50.6758 3.49478Q50.7523 3.63791 50.8217 3.78463Q50.8911 3.93135 50.9532 4.08129Q51.0153 4.23124 51.07 4.38405Q51.1247 4.53686 51.1718 4.69217Q51.2189 4.84748 51.2583 5.00492Q51.2978 5.16235 51.3294 5.32154Q51.3611 5.48072 51.3849 5.64126Q51.4087 5.8018 51.4246 5.96332Q51.4405 6.12484 51.4485 6.28694Q51.4565 6.44905 51.4565 6.61135L51.4565 6.61335Q51.4565 6.77565 51.4485 6.93775Q51.4405 7.09985 51.4246 7.26137Q51.4087 7.42289 51.3849 7.58343Q51.3611 7.74397 51.3294 7.90315Q51.2978 8.06233 51.2583 8.21977Q51.2189 8.37721 51.1718 8.53252Q51.1247 8.68783 51.07 8.84064Q51.0153 8.99345 50.9532 9.1434Q50.8911 9.29334 50.8217 9.44006Q50.7523 9.58678 50.6758 9.72991Q50.5993 9.87305 50.5159 10.0123Q50.4324 10.1515 50.3423 10.2864Q50.2521 10.4214 50.1554 10.5517Q50.0587 10.6821 49.9558 10.8075Q49.8528 10.933 49.7438 11.0533Q49.6348 11.1735 49.5201 11.2883Q49.4053 11.403 49.285 11.512Q49.1648 11.621 49.0393 11.724Q48.9139 11.8269 48.7835 11.9236Q48.6531 12.0203 48.5182 12.1105Q48.3832 12.2006 48.244 12.2841Q48.1048 12.3675 47.9617 12.444Q47.8186 12.5205 47.6718 12.5899Q47.5251 12.6593 47.3752 12.7214Q47.2252 12.7835 47.0724 12.8382Q46.9196 12.8929 46.7643 12.94Q46.609 12.9871 46.4515 13.0266Q46.2941 13.066 46.1349 13.0977Q45.9757 13.1293 45.8152 13.1531Q45.6547 13.1769 45.4932 13.1929Q45.3316 13.2088 45.1695 13.2167Q45.0074 13.2247 44.8451 13.2247L7.20363 13.2247Q7.04133 13.2247 6.87923 13.2167Q6.71712 13.2088 6.55561 13.1929Q6.39409 13.1769 6.23354 13.1531Q6.073 13.1293 5.91382 13.0977Q5.75464 13.066 5.5972 13.0266Q5.43977 12.9871 5.28446 12.94Q5.12915 12.8929 4.97634 12.8382Q4.82352 12.7835 4.67358 12.7214Q4.52363 12.6593 4.37692 12.5899Q4.2302 12.5205 4.08706 12.444Q3.94393 12.3675 3.80472 12.2841Q3.66551 12.2006 3.53056 12.1105Q3.39562 12.0203 3.26526 11.9236Q3.1349 11.8269 3.00944 11.724Q2.88398 11.621 2.76372 11.512Q2.64347 11.403 2.5287 11.2883Q2.41394 11.1735 2.30495 11.0533Q2.19595 10.933 2.09299 10.8075Q1.99003 10.6821 1.89335 10.5517Q1.79667 10.4214 1.7065 10.2864Q1.61633 10.1515 1.53289 10.0123Q1.44945 9.87305 1.37294 9.72991Q1.29644 9.58678 1.22704 9.44006Q1.15765 9.29334 1.09554 9.1434Q1.03343 8.99345 0.978757 8.84064Q0.92408 8.68783 0.876967 8.53252Q0.829854 8.37721 0.790419 8.21977Q0.750983 8.06233 0.71932 7.90315Q0.687657 7.74397 0.663843 7.58343Q0.640029 7.42289 0.624121 7.26137Q0.608212 7.09985 0.600249 6.93775Q0.592285 6.77565 0.592285 6.61335L0.592285 6.61135Q0.592285 6.44905 0.600249 6.28694Q0.608212 6.12484 0.624121 5.96332Q0.640029 5.8018 0.663843 5.64126Q0.687657 5.48072 0.71932 5.32154Q0.750983 5.16235 0.790419 5.00492Q0.829854 4.84748 0.876967 4.69217Q0.92408 4.53686 0.978757 4.38405Q1.03343 4.23124 1.09554 4.08129Q1.15765 3.93135 1.22704 3.78463Q1.29644 3.63791 1.37294 3.49478Q1.44945 3.35164 1.53289 3.21243Q1.61633 3.07323 1.7065 2.93828Q1.79667 2.80333 1.89335 2.67297Q1.99003 2.54261 2.09299 2.41715Q2.19595 2.29169 2.30495 2.17144Q2.41394 2.05118 2.5287 1.93642Q2.64347 1.82166 2.76372 1.71266Q2.88398 1.60367 3.00944 1.50071Q3.1349 1.39774 3.26526 1.30106Q3.39562 1.20438 3.53056 1.11421Q3.66551 1.02404 3.80472 0.940605Q3.94393 0.857167 4.08706 0.780659Q4.2302 0.704152 4.37692 0.63476Q4.52363 0.565368 4.67358 0.503259Q4.82352 0.441149 4.97634 0.386472Q5.12915 0.331795 5.28446 0.284682Q5.43977 0.237569 5.5972 0.198134Q5.75464 0.158698 5.91382 0.127035Q6.073 0.0953721 6.23354 0.0715578Q6.39409 0.0477436 6.55561 0.0318354Q6.71712 0.0159273 6.87923 0.00796365Q7.04133 0 7.20363 0L7.20363 0Z" id="Rectangle-6" fill="#FBCD00" fill-rule="evenodd" stroke="none" />
    <path d="M25.646 6.10345L25.648 6.10345Q25.7933 6.10345 25.9384 6.11058Q26.0835 6.11771 26.228 6.13195Q26.3726 6.14619 26.5163 6.1675Q26.66 6.18882 26.8025 6.21716Q26.9449 6.2455 27.0858 6.28079Q27.2268 6.31609 27.3658 6.35826Q27.5048 6.40043 27.6416 6.44937Q27.7783 6.4983 27.9125 6.5539Q28.0467 6.60949 28.1781 6.6716Q28.3094 6.73371 28.4375 6.80218Q28.5656 6.87066 28.6902 6.94534Q28.8148 7.02003 28.9356 7.10073Q29.0564 7.18144 29.1731 7.26797Q29.2897 7.35451 29.402 7.44666Q29.5143 7.53882 29.622 7.63637Q29.7296 7.73393 29.8323 7.83665Q29.935 7.93937 30.0326 8.047Q30.1301 8.15464 30.2223 8.26693Q30.3144 8.37922 30.401 8.4959Q30.4875 8.61258 30.5682 8.73336Q30.6489 8.85415 30.7236 8.97875Q30.7983 9.10335 30.8668 9.23146Q30.9353 9.35957 30.9974 9.49089Q31.0595 9.62221 31.1151 9.75642Q31.1707 9.89063 31.2196 10.0274Q31.2685 10.1642 31.3107 10.3032Q31.3529 10.4422 31.3882 10.5831Q31.4235 10.724 31.4518 10.8665Q31.4801 11.009 31.5015 11.1527Q31.5228 11.2964 31.537 11.4409Q31.5512 11.5855 31.5584 11.7306Q31.5655 11.8757 31.5655 12.0209L31.5655 43.9292Q31.5655 44.0744 31.5584 44.2195Q31.5512 44.3646 31.537 44.5092Q31.5228 44.6537 31.5015 44.7974Q31.4801 44.9411 31.4518 45.0836Q31.4235 45.2261 31.3882 45.367Q31.3529 45.5079 31.3107 45.6469Q31.2685 45.7859 31.2196 45.9227Q31.1706 46.0595 31.1151 46.1937Q31.0595 46.3279 30.9974 46.4592Q30.9352 46.5905 30.8668 46.7186Q30.7983 46.8468 30.7236 46.9714Q30.6489 47.096 30.5682 47.2167Q30.4875 47.3375 30.401 47.4542Q30.3144 47.5709 30.2223 47.6832Q30.1301 47.7955 30.0326 47.9031Q29.935 48.0107 29.8323 48.1135Q29.7296 48.2162 29.622 48.3137Q29.5143 48.4113 29.402 48.5035Q29.2897 48.5956 29.1731 48.6821Q29.0564 48.7687 28.9356 48.8494Q28.8148 48.9301 28.6902 49.0048Q28.5656 49.0794 28.4375 49.1479Q28.3094 49.2164 28.1781 49.2785Q28.0467 49.3406 27.9125 49.3962Q27.7783 49.4518 27.6416 49.5007Q27.5048 49.5497 27.3658 49.5919Q27.2268 49.634 27.0858 49.6693Q26.9449 49.7046 26.8025 49.733Q26.66 49.7613 26.5163 49.7826Q26.3726 49.8039 26.228 49.8182Q26.0835 49.8324 25.9384 49.8395Q25.7933 49.8467 25.648 49.8467L25.646 49.8467Q25.5007 49.8467 25.3557 49.8395Q25.2106 49.8324 25.066 49.8182Q24.9214 49.8039 24.7777 49.7826Q24.634 49.7613 24.4916 49.733Q24.3491 49.7046 24.2082 49.6693Q24.0673 49.634 23.9282 49.5919Q23.7892 49.5497 23.6525 49.5007Q23.5157 49.4518 23.3815 49.3962Q23.2473 49.3406 23.116 49.2785Q22.9846 49.2164 22.8565 49.1479Q22.7284 49.0794 22.6038 49.0048Q22.4792 48.9301 22.3584 48.8494Q22.2376 48.7687 22.121 48.6821Q22.0043 48.5956 21.892 48.5035Q21.7797 48.4113 21.6721 48.3137Q21.5644 48.2162 21.4617 48.1135Q21.359 48.0107 21.2614 47.9031Q21.1639 47.7955 21.0717 47.6832Q20.9796 47.5709 20.893 47.4542Q20.8065 47.3375 20.7258 47.2167Q20.6451 47.096 20.5704 46.9714Q20.4957 46.8468 20.4272 46.7186Q20.3588 46.5905 20.2967 46.4592Q20.2345 46.3279 20.179 46.1937Q20.1234 46.0595 20.0744 45.9227Q20.0255 45.7859 19.9833 45.6469Q19.9412 45.5079 19.9059 45.367Q19.8706 45.2261 19.8422 45.0836Q19.8139 44.9411 19.7926 44.7974Q19.7712 44.6537 19.757 44.5092Q19.7428 44.3646 19.7356 44.2195Q19.7285 44.0744 19.7285 43.9292L19.7285 12.0209Q19.7285 11.8757 19.7356 11.7306Q19.7428 11.5855 19.757 11.4409Q19.7712 11.2964 19.7926 11.1527Q19.8139 11.009 19.8422 10.8665Q19.8706 10.724 19.9059 10.5831Q19.9412 10.4422 19.9833 10.3032Q20.0255 10.1642 20.0744 10.0274Q20.1234 9.89063 20.179 9.75642Q20.2345 9.62221 20.2967 9.49089Q20.3588 9.35957 20.4272 9.23146Q20.4957 9.10335 20.5704 8.97875Q20.6451 8.85415 20.7258 8.73336Q20.8065 8.61258 20.893 8.4959Q20.9796 8.37922 21.0717 8.26693Q21.1639 8.15464 21.2614 8.047Q21.359 7.93937 21.4617 7.83665Q21.5644 7.73393 21.6721 7.63637Q21.7797 7.53882 21.892 7.44666Q22.0043 7.35451 22.121 7.26797Q22.2376 7.18144 22.3584 7.10073Q22.4792 7.02003 22.6038 6.94534Q22.7284 6.87066 22.8565 6.80218Q22.9846 6.73371 23.116 6.6716Q23.2473 6.60949 23.3815 6.5539Q23.5157 6.4983 23.6525 6.44937Q23.7892 6.40043 23.9282 6.35826Q24.0673 6.31609 24.2082 6.28079Q24.3491 6.2455 24.4916 6.21716Q24.634 6.18882 24.7777 6.1675Q24.9214 6.14619 25.066 6.13195Q25.2106 6.11771 25.3557 6.11058Q25.5007 6.10345 25.646 6.10345Z" id="Rectangle-7" fill="#FBCD00" fill-opacity="0.5411765" fill-rule="evenodd" stroke="none" />
    <path d="M6.1027 39.6743L25.4626 39.6743Q25.6124 39.6743 25.762 39.6817Q25.9117 39.689 26.0608 39.7037Q26.2099 39.7184 26.358 39.7404Q26.5062 39.7623 26.6532 39.7916Q26.8001 39.8208 26.9454 39.8572Q27.0908 39.8936 27.2341 39.9371Q27.3775 39.9806 27.5185 40.0311Q27.6596 40.0815 27.798 40.1389Q27.9364 40.1962 28.0718 40.2602Q28.2073 40.3243 28.3394 40.3949Q28.4715 40.4655 28.6 40.5426Q28.7285 40.6196 28.8531 40.7028Q28.9776 40.786 29.098 40.8753Q29.2183 40.9645 29.3341 41.0596Q29.4499 41.1546 29.5609 41.2552Q29.6719 41.3558 29.7779 41.4618Q29.8838 41.5677 29.9844 41.6787Q30.085 41.7897 30.18 41.9055Q30.2751 42.0213 30.3643 42.1416Q30.4536 42.262 30.5368 42.3865Q30.62 42.5111 30.6971 42.6396Q30.7741 42.7681 30.8447 42.9002Q30.9153 43.0323 30.9794 43.1678Q31.0434 43.3032 31.1008 43.4416Q31.1581 43.58 31.2086 43.7211Q31.259 43.8621 31.3025 44.0055Q31.346 44.1489 31.3824 44.2942Q31.4188 44.4395 31.448 44.5864Q31.4773 44.7334 31.4992 44.8816Q31.5212 45.0298 31.5359 45.1789Q31.5506 45.3279 31.5579 45.4776Q31.5653 45.6272 31.5653 45.777L31.5653 45.779Q31.5653 45.9288 31.5579 46.0785Q31.5506 46.2281 31.5359 46.3772Q31.5212 46.5263 31.4992 46.6745Q31.4773 46.8227 31.448 46.9696Q31.4188 47.1165 31.3824 47.2618Q31.346 47.4072 31.3025 47.5505Q31.259 47.6939 31.2086 47.835Q31.1581 47.976 31.1008 48.1144Q31.0434 48.2528 30.9794 48.3883Q30.9153 48.5237 30.8447 48.6558Q30.7741 48.7879 30.6971 48.9164Q30.62 49.0449 30.5368 49.1695Q30.4536 49.2941 30.3643 49.4144Q30.2751 49.5347 30.18 49.6505Q30.085 49.7663 29.9844 49.8773Q29.8838 49.9883 29.7779 50.0943Q29.6719 50.2002 29.5609 50.3008Q29.4499 50.4014 29.3341 50.4965Q29.2183 50.5915 29.098 50.6808Q28.9776 50.77 28.8531 50.8532Q28.7285 50.9365 28.6 51.0135Q28.4715 51.0905 28.3394 51.1611Q28.2073 51.2317 28.0718 51.2958Q27.9364 51.3598 27.798 51.4172Q27.6596 51.4745 27.5185 51.525Q27.3775 51.5754 27.2341 51.6189Q27.0908 51.6624 26.9454 51.6988Q26.8001 51.7352 26.6532 51.7645Q26.5062 51.7937 26.358 51.8157Q26.2099 51.8377 26.0608 51.8523Q25.9117 51.867 25.762 51.8744Q25.6124 51.8817 25.4626 51.8817L6.1027 51.8817Q5.95289 51.8817 5.80326 51.8744Q5.65363 51.867 5.50453 51.8523Q5.35544 51.8377 5.20725 51.8157Q5.05906 51.7937 4.91213 51.7645Q4.76519 51.7352 4.61987 51.6988Q4.47454 51.6624 4.33118 51.6189Q4.18782 51.5754 4.04676 51.525Q3.90571 51.4745 3.7673 51.4172Q3.62889 51.3598 3.49346 51.2958Q3.35803 51.2317 3.22591 51.1611Q3.09379 51.0905 2.96529 51.0135Q2.83679 50.9365 2.71222 50.8532Q2.58766 50.77 2.46733 50.6808Q2.347 50.5915 2.23119 50.4965Q2.11538 50.4014 2.00438 50.3008Q1.89337 50.2002 1.78744 50.0943Q1.68151 49.9883 1.5809 49.8773Q1.48029 49.7663 1.38525 49.6505Q1.29021 49.5347 1.20097 49.4144Q1.11172 49.2941 1.02849 49.1695Q0.945259 49.0449 0.86824 48.9164Q0.791221 48.7879 0.7206 48.6558Q0.649978 48.5237 0.585925 48.3883Q0.521872 48.2528 0.464541 48.1144Q0.40721 47.976 0.356739 47.835Q0.306269 47.6939 0.26278 47.5505Q0.219292 47.4072 0.18289 47.2619Q0.146489 47.1165 0.117262 46.9696Q0.0880347 46.8227 0.0660525 46.6745Q0.0440704 46.5263 0.0293862 46.3772Q0.0147019 46.2281 0.00735097 46.0785Q0 45.9288 0 45.779L0 45.777Q0 45.6272 0.00735097 45.4776Q0.0147019 45.3279 0.0293862 45.1789Q0.0440704 45.0298 0.0660525 44.8816Q0.0880347 44.7334 0.117262 44.5864Q0.146489 44.4395 0.18289 44.2942Q0.219292 44.1489 0.26278 44.0055Q0.306269 43.8621 0.356739 43.7211Q0.40721 43.58 0.464541 43.4416Q0.521872 43.3032 0.585925 43.1678Q0.649978 43.0323 0.7206 42.9002Q0.791221 42.7681 0.86824 42.6396Q0.945259 42.5111 1.02849 42.3865Q1.11172 42.262 1.20097 42.1416Q1.29021 42.0213 1.38525 41.9055Q1.48029 41.7897 1.5809 41.6787Q1.68151 41.5677 1.78744 41.4618Q1.89337 41.3558 2.00438 41.2552Q2.11538 41.1546 2.23119 41.0596Q2.347 40.9645 2.46733 40.8753Q2.58766 40.786 2.71222 40.7028Q2.83679 40.6196 2.96529 40.5426Q3.09379 40.4655 3.22591 40.3949Q3.35803 40.3243 3.49346 40.2602Q3.62889 40.1962 3.7673 40.1389Q3.90571 40.0815 4.04676 40.0311Q4.18782 39.9806 4.33118 39.9371Q4.47455 39.8936 4.61987 39.8572Q4.76519 39.8208 4.91213 39.7916Q5.05906 39.7623 5.20725 39.7404Q5.35544 39.7184 5.50453 39.7037Q5.65363 39.689 5.80326 39.6817Q5.95289 39.6743 6.1027 39.6743Z" id="Rectangle-8" fill="#FBCD00" fill-rule="evenodd" stroke="none" />
    <path d="M11.4328 26.468C9.87449 29.9413 8.57374 31.8184 5.52331 31.6051C2.4729 31.3917 0.172968 28.746 0.386274 25.6955C0.59958 22.6451 7.37454 19.0193 10.425 19.2326C13.4754 19.446 12.9912 22.9947 11.4328 26.468Z" id="Ellipse-Copy" fill="#0A4BFF" fill-rule="evenodd" stroke="none" />
    <path d="M49.4653 20.0916L39.5818 21.4484" id="Line-15-Copy-46" fill="none" fill-rule="evenodd" stroke="#0A4BFF" stroke-width="4" stroke-linecap="round" />
    <path d="M49.4652 46.7953L39.645 43.538" id="Line-15-Copy-47" fill="none" fill-rule="evenodd" stroke="#0A4BFF" stroke-width="4" stroke-linecap="round" />
    <path d="M51.5001 33.4434L39.6819 31.9326" id="Line-15-Copy-48" fill="none" fill-rule="evenodd" stroke="#0A4BFF" stroke-opacity="0.9" stroke-width="4" stroke-linecap="round" />
  </g>

</symbol>
<symbol id="icon-moon" width="134.75513px" height="54.978638px"  viewBox="0 0 134.75513 54.978638" >
<path stroke-linejoin="miter" stroke-linecap="round" stroke-miterlimit="1" d="M27.669 21.269c-4.854 2.195-10.559 1.155-14.326-2.611s-4.807-9.473-2.611-14.326c-5.188 2.345-8.205 7.834-7.402 13.471s5.232 10.066 10.868 10.869c5.637 0.803 11.126-2.213 13.471-7.402v-0z"></path>
</symbol>
<symbol id="icon-node-icon" viewBox="0 0 32 32">
<path fill="none" stroke="#444343" style="stroke: var(--color7, #444343)" stroke-linejoin="miter" stroke-linecap="round" stroke-miterlimit="4" stroke-width="1.2152" d="M0.608 16c0-8.501 6.891-15.392 15.392-15.392s15.392 6.891 15.392 15.392c0 8.501-6.891 15.392-15.392 15.392s-15.392-6.891-15.392-15.392z"></path>
<path fill="#388e3c" style="fill: var(--color14, #388e3c)" d="M13.217 13.37l-2.36 1.306c-0.088 0.049-0.143 0.139-0.143 0.237v2.613c0 0.098 0.054 0.188 0.143 0.237l2.361 1.307c0.088 0.049 0.197 0.049 0.285 0l2.36-1.307c0.088-0.049 0.142-0.139 0.142-0.237v-2.613c0-0.098-0.054-0.188-0.143-0.237l-2.36-1.306c-0.044-0.025-0.094-0.037-0.143-0.037s-0.099 0.012-0.143 0.037zM25.361 15.723l-0.393 0.217c-0.015 0.008-0.024 0.023-0.024 0.039v0.436c0 0.016 0.009 0.031 0.024 0.039l0.393 0.218c0.015 0.008 0.033 0.008 0.048 0l0.393-0.218c0.014-0.008 0.024-0.023 0.024-0.039v-0.436c0-0.016-0.009-0.031-0.024-0.039l-0.393-0.217c-0.007-0.004-0.015-0.006-0.024-0.006s-0.016 0.002-0.024 0.006z"></path>
<path fill="#37474f" style="fill: var(--color15, #37474f)" d="M22.139 10.6l-1.149-0.641c-0.036-0.020-0.080-0.020-0.116 0.001s-0.058 0.059-0.058 0.101l-0 3.873-1.060-0.586c-0.044-0.024-0.094-0.037-0.143-0.037s-0.099 0.012-0.143 0.037h0l-2.36 1.306c-0.088 0.049-0.143 0.139-0.143 0.236v2.613c0 0.098 0.054 0.188 0.143 0.237l2.361 1.307c0.088 0.049 0.197 0.049 0.285 0l2.36-1.307c0.088-0.049 0.142-0.139 0.142-0.237v-6.699c0-0.085-0.046-0.163-0.12-0.204v0zM20.751 16.899l-1.073 0.594c-0.040 0.022-0.089 0.022-0.129 0l-1.073-0.594c-0.041-0.022-0.065-0.064-0.065-0.108v-1.188c0-0.044 0.025-0.085 0.065-0.108l1.073-0.594c0.020-0.011 0.042-0.016 0.065-0.016s0.045 0.006 0.065 0.016l1.073 0.594c0.040 0.023 0.065 0.064 0.065 0.108v1.188c0 0.044-0.025 0.085-0.064 0.107v0z"></path>
<path fill="#2e7d32" style="fill: var(--color16, #2e7d32)" d="M13.217 13.37l-2.503 4.156c0 0.098 0.054 0.188 0.143 0.237l2.361 1.307c0.088 0.049 0.197 0.049 0.285 0l2.502-4.157c0-0.098-0.054-0.188-0.143-0.237l-2.36-1.306c-0.044-0.025-0.094-0.037-0.143-0.037s-0.099 0.012-0.143 0.037z"></path>
<path fill="#4caf50" style="fill: var(--color17, #4caf50)" d="M13.217 13.37l-2.36 1.306c-0.088 0.049-0.143 0.139-0.143 0.237l2.503 4.157c0.088 0.049 0.197 0.049 0.285 0l2.36-1.307c0.088-0.049 0.142-0.139 0.142-0.237l-2.503-4.156c-0.044-0.025-0.094-0.037-0.143-0.037s-0.099 0.012-0.143 0.037z"></path>
<path fill="#37474f" style="fill: var(--color15, #37474f)" d="M27.888 14.654l-2.36-1.306c-0.044-0.025-0.094-0.037-0.143-0.037s-0.099 0.012-0.143 0.037h0l-2.36 1.306c-0.088 0.049-0.143 0.141-0.143 0.242v2.603c0 0.101 0.055 0.193 0.143 0.242l2.361 1.307c0.088 0.049 0.197 0.049 0.285 0l1.089-0.603c0.1-0.055 0.099-0.198-0.001-0.253l-2.369-1.292c-0.040-0.023-0.065-0.064-0.065-0.11v-1.186c0-0.044 0.024-0.085 0.063-0.106l1.075-0.595c0.020-0.011 0.042-0.016 0.065-0.016s0.045 0.006 0.065 0.016l1.075 0.595c0.038 0.021 0.063 0.062 0.063 0.106v0.968c0 0.041 0.022 0.080 0.058 0.101s0.080 0.020 0.116-0l1.153-0.67c0.071-0.041 0.115-0.118 0.115-0.201v-0.904c0-0.101-0.055-0.194-0.143-0.243v0zM10.090 14.654l-2.36-1.306c-0.044-0.025-0.094-0.037-0.143-0.037s-0.099 0.012-0.143 0.037h0l-2.36 1.306c-0.088 0.049-0.143 0.141-0.143 0.242v3.591c0 0.041 0.022 0.080 0.058 0.101s0.080 0.020 0.116-0l1.153-0.67c0.071-0.041 0.115-0.118 0.115-0.201v-2.113c0-0.044 0.024-0.085 0.063-0.106l1.075-0.595c0.020-0.011 0.042-0.016 0.065-0.016s0.045 0.006 0.065 0.016l1.075 0.595c0.038 0.021 0.063 0.062 0.063 0.106v2.113c0 0.083 0.044 0.159 0.115 0.201l1.153 0.67c0.036 0.021 0.080 0.021 0.116 0s0.058-0.060 0.058-0.101v-3.59c0-0.101-0.055-0.194-0.143-0.242v0z"></path>
</symbol>
<symbol id="icon-node-icon-dark" viewBox="0 0 32 32">
<path fill="none" stroke="#444343" style="stroke: var(--color1, #444343)" stroke-linejoin="miter" stroke-linecap="round" stroke-miterlimit="4" stroke-width="1.2152" d="M0.608 16c0-8.501 6.891-15.392 15.392-15.392s15.392 6.891 15.392 15.392c0 8.501-6.891 15.392-15.392 15.392s-15.392-6.891-15.392-15.392z"></path>
<path fill="#9e629b" style="fill: var(--color2, #9e629b)" d="M13.217 13.37l-2.36 1.306c-0.088 0.049-0.143 0.139-0.143 0.237v2.613c0 0.098 0.054 0.188 0.143 0.237l2.361 1.307c0.088 0.049 0.197 0.049 0.285 0l2.36-1.307c0.088-0.049 0.142-0.139 0.142-0.237v-2.613c0-0.098-0.054-0.188-0.143-0.237l-2.36-1.306c-0.044-0.025-0.094-0.037-0.143-0.037s-0.099 0.012-0.143 0.037zM25.361 15.723l-0.393 0.217c-0.015 0.008-0.024 0.023-0.024 0.039v0.436c0 0.016 0.009 0.031 0.024 0.039l0.393 0.218c0.015 0.008 0.033 0.008 0.048 0l0.393-0.218c0.014-0.008 0.024-0.023 0.024-0.039v-0.436c0-0.016-0.009-0.031-0.024-0.039l-0.393-0.217c-0.007-0.004-0.015-0.006-0.024-0.006s-0.016 0.002-0.024 0.006z"></path>
<path fill="#37474f" style="fill: var(--color3, #37474f)" d="M22.139 10.6l-1.149-0.641c-0.036-0.020-0.080-0.020-0.116 0.001s-0.058 0.059-0.058 0.101l-0 3.873-1.060-0.586c-0.044-0.024-0.094-0.037-0.143-0.037s-0.099 0.012-0.143 0.037h0l-2.36 1.306c-0.088 0.049-0.143 0.139-0.143 0.236v2.613c0 0.098 0.054 0.188 0.143 0.237l2.361 1.307c0.088 0.049 0.197 0.049 0.285 0l2.36-1.307c0.088-0.049 0.142-0.139 0.142-0.237v-6.699c0-0.085-0.046-0.163-0.12-0.204v0zM20.751 16.899l-1.073 0.594c-0.040 0.022-0.089 0.022-0.129 0l-1.073-0.594c-0.041-0.022-0.065-0.064-0.065-0.108v-1.188c0-0.044 0.025-0.085 0.065-0.108l1.073-0.594c0.020-0.011 0.042-0.016 0.065-0.016s0.045 0.006 0.065 0.016l1.073 0.594c0.040 0.023 0.065 0.064 0.065 0.108v1.188c0 0.044-0.025 0.085-0.064 0.107v0z"></path>
<path fill="#9d809b" style="fill: var(--color4, #9d809b)" d="M13.217 13.37l-2.503 4.156c0 0.098 0.054 0.188 0.143 0.237l2.361 1.307c0.088 0.049 0.197 0.049 0.285 0l2.502-4.157c0-0.098-0.054-0.188-0.143-0.237l-2.36-1.306c-0.044-0.025-0.094-0.037-0.143-0.037s-0.099 0.012-0.143 0.037z"></path>
<path fill="#9e629b" style="fill: var(--color2, #9e629b)" d="M13.217 13.37l-2.36 1.306c-0.088 0.049-0.143 0.139-0.143 0.237l2.503 4.157c0.088 0.049 0.197 0.049 0.285 0l2.36-1.307c0.088-0.049 0.142-0.139 0.142-0.237l-2.503-4.156c-0.044-0.025-0.094-0.037-0.143-0.037s-0.099 0.012-0.143 0.037z"></path>
<path fill="#37474f" style="fill: var(--color3, #37474f)" d="M27.888 14.654l-2.36-1.306c-0.044-0.025-0.094-0.037-0.143-0.037s-0.099 0.012-0.143 0.037h0l-2.36 1.306c-0.088 0.049-0.143 0.141-0.143 0.242v2.603c0 0.101 0.055 0.193 0.143 0.242l2.361 1.307c0.088 0.049 0.197 0.049 0.285 0l1.089-0.603c0.1-0.055 0.099-0.198-0.001-0.253l-2.369-1.292c-0.040-0.023-0.065-0.064-0.065-0.11v-1.186c0-0.044 0.024-0.085 0.063-0.106l1.075-0.595c0.020-0.011 0.042-0.016 0.065-0.016s0.045 0.006 0.065 0.016l1.075 0.595c0.038 0.021 0.063 0.062 0.063 0.106v0.968c0 0.041 0.022 0.080 0.058 0.101s0.080 0.020 0.116-0l1.153-0.67c0.071-0.041 0.115-0.118 0.115-0.201v-0.904c0-0.101-0.055-0.194-0.143-0.243v0zM10.090 14.654l-2.36-1.306c-0.044-0.025-0.094-0.037-0.143-0.037s-0.099 0.012-0.143 0.037h0l-2.36 1.306c-0.088 0.049-0.143 0.141-0.143 0.242v3.591c0 0.041 0.022 0.080 0.058 0.101s0.080 0.020 0.116-0l1.153-0.67c0.071-0.041 0.115-0.118 0.115-0.201v-2.113c0-0.044 0.024-0.085 0.063-0.106l1.075-0.595c0.020-0.011 0.042-0.016 0.065-0.016s0.045 0.006 0.065 0.016l1.075 0.595c0.038 0.021 0.063 0.062 0.063 0.106v2.113c0 0.083 0.044 0.159 0.115 0.201l1.153 0.67c0.036 0.021 0.080 0.021 0.116 0s0.058-0.060 0.058-0.101v-3.59c0-0.101-0.055-0.194-0.143-0.242v0z"></path>
</symbol>
<symbol id="icon-swirl" viewBox="0 0 78 32">
<path fill="none" stroke-linejoin="miter" stroke-linecap="round" stroke-miterlimit="4" stroke-width="6.9845" d="M3.492 15.261c0 0 8.894 15.006 21.217 13.075s15.072-21.062 26.971-24.395c11.899-3.333 23.261 13.010 23.261 13.010"></path>
</symbol>
<symbol id="icon-back-end-icon" viewBox="0 0 32 32">
<path d="M11.046 19.703q-0.16 0-0.248-0.073l-3.762-2.45q-0.204-0.131-0.299-0.335t-0.095-0.365 0.095-0.365 0.299-0.335l3.762-2.464q0.088-0.058 0.248-0.058 0.292 0 0.569 0.255t0.277 0.634q0 0.35-0.233 0.481l-2.829 1.852 2.829 1.837q0.233 0.146 0.233 0.496 0 0.379-0.277 0.634t-0.569 0.255z"></path>
<path d="M13.525 21.19q-0.365 0-0.591-0.248t-0.226-0.525q0-0.131 0.073-0.277l5.118-10.514q0.175-0.365 0.612-0.365 0.306 0 0.583 0.211t0.277 0.561q0 0.16-0.058 0.277l-5.133 10.514q-0.073 0.16-0.262 0.262t-0.394 0.102z"></path>
<path d="M21.035 19.703q-0.277 0-0.561-0.255t-0.284-0.634q0-0.35 0.248-0.496l2.814-1.837-2.814-1.852q-0.248-0.131-0.248-0.481 0-0.379 0.284-0.634t0.561-0.255q0.16 0 0.248 0.058l3.762 2.464q0.204 0.131 0.299 0.335t0.095 0.365-0.095 0.365-0.299 0.335l-3.762 2.45q-0.087 0.073-0.248 0.073z"></path>
<path fill="none" stroke="#444343" style="stroke: var(--color1, #444343)" stroke-linejoin="miter" stroke-linecap="round" stroke-miterlimit="4" stroke-width="1.2152" d="M0.608 16c0-8.501 6.891-15.392 15.392-15.392s15.392 6.891 15.392 15.392c0 8.501-6.891 15.392-15.392 15.392s-15.392-6.891-15.392-15.392z"></path>
</symbol>
<symbol id="icon-notes" viewBox="0 0 22.170898 22.20935">
  <g id="svg-2" transform="translate(1.5 1.5)">
    <path d="M13.0271 2.37787L16.793 6.14375M14.6248 0.780356C15.6644 -0.259792 17.3505 -0.260166 18.3906 0.77952C19.4308 1.81921 19.4312 3.50525 18.3915 4.5454L3.72754 19.2093L0 19.2093L0 15.4051L14.6248 0.780356L14.6248 0.780356Z" id="Shape" fill="none" fill-rule="evenodd" stroke="currentColor" stroke-width="3" stroke-linecap="round" stroke-linejoin="round" />
  </g>
</symbol>
<symbol id="icon-design" viewBox="0 0 32 32">
<path fill="none" stroke-linejoin="miter" stroke-linecap="round" stroke-miterlimit="4" stroke-width="1.2152" d="M0.608 16c0-8.501 6.891-15.392 15.392-15.392s15.392 6.891 15.392 15.392c0 8.501-6.891 15.392-15.392 15.392s-15.392-6.891-15.392-15.392z"></path>
<path fill="none" stroke-linejoin="miter" stroke-linecap="round" stroke-miterlimit="4" stroke-width="1.2152" stroke-dashoffset="0" d="M10.086 12.030l-0.81 0.81"></path>
<path fill="none" stroke-linejoin="miter" stroke-linecap="round" stroke-miterlimit="4" stroke-width="1.2152" stroke-dashoffset="0" d="M11.423 13.569l-0.81 0.81"></path>
<path fill="none" stroke-linejoin="miter" stroke-linecap="round" stroke-miterlimit="4" stroke-width="1.2152" stroke-dashoffset="0" d="M19.808 22.157l-0.81 0.81"></path>
<path fill="none" stroke-linejoin="miter" stroke-linecap="butt" stroke-miterlimit="4" stroke-width="1.2152" stroke-dashoffset="0" d="M19.322 9.114c0 0 2.171-1.51 3.646 0s0 3.646 0 3.646l-9.722 9.721c0 0-5.024 1.792-5.266 1.62s1.62-5.266 1.62-5.266l9.722-9.722z"></path>
<path fill="none" stroke-linejoin="miter" stroke-linecap="butt" stroke-miterlimit="4" stroke-width="1.2152" stroke-dashoffset="0" d="M8.229 11.117l2.578-2.578q0.028-0.028 0.059-0.053t0.064-0.047 0.068-0.041 0.072-0.034 0.075-0.027 0.077-0.019 0.079-0.012 0.079-0.004 0.079 0.004 0.079 0.012 0.077 0.019 0.075 0.027 0.072 0.034 0.068 0.041 0.064 0.047 0.059 0.053l11.744 11.744q0.028 0.028 0.053 0.059t0.047 0.064 0.041 0.068 0.034 0.072 0.027 0.075 0.019 0.077 0.012 0.079 0.004 0.079-0.004 0.079-0.012 0.079-0.019 0.077-0.027 0.075-0.034 0.072-0.041 0.068-0.047 0.064-0.053 0.059l-2.578 2.578q-0.028 0.028-0.059 0.053t-0.064 0.047-0.068 0.041-0.072 0.034-0.075 0.027-0.077 0.019-0.079 0.012-0.079 0.004-0.079-0.004-0.079-0.012-0.077-0.019-0.075-0.027-0.072-0.034-0.068-0.041-0.064-0.047-0.059-0.053l-11.744-11.744q-0.028-0.028-0.053-0.059t-0.047-0.064-0.041-0.068-0.034-0.072-0.027-0.075-0.019-0.077-0.012-0.079-0.004-0.079 0.004-0.079 0.012-0.079 0.019-0.077 0.027-0.075 0.034-0.072 0.041-0.068 0.047-0.064 0.053-0.059z"></path>
<path fill="none" stroke-linejoin="miter" stroke-linecap="square" stroke-miterlimit="4" stroke-width="1.2152" stroke-dashoffset="0" d="M18.592 10.005l3.443 3.443"></path>
<path fill="none" stroke-linejoin="miter" stroke-linecap="square" stroke-miterlimit="4" stroke-width="1.2152" stroke-dashoffset="0" d="M8.668 22.764l0.405 0.405"></path>
</symbol>
<symbol id="icon-skill" viewBox="0 0 32 32">
<path d="M20.689 32h-14.196c-0.736 0-1.249-0.591-1.173-1.322 0.254-2.427 0.597-7.515-0.722-9.382-2.221-3.143-3.24-6.323-3.265-9.177-0.060-6.92 5.641-12.152 13.604-12.119 9.648 0.040 12.437 8.208 13.031 10.591 0.453 1.825-1.197 2.492-0.221 3.603 0.795 0.905 1.38 1.819 2.385 2.903 0.389 0.42 0.54 0.861 0.535 1.257-0.008 0.579-0.388 1.064-0.997 1.277-0.572 0.2-1.013 0.427-1.62 0.591-0.193 1.547-0.695 3.429-1.064 4.743-0.983 3.493-3.861 1.412-5.175 3.476-0.568 0.891-0.853 2.317-1.121 3.56zM15.564 6.667h-1.795c-0.324 0.908-0.416 1.496-1.123 1.788-0.707 0.293-1.184-0.055-2.060-0.471l-1.269 1.269c0.415 0.872 0.764 1.353 0.471 2.060-0.292 0.707-0.88 0.799-1.788 1.121v1.796c0.907 0.323 1.496 0.416 1.788 1.123 0.296 0.712-0.063 1.203-0.471 2.059l1.269 1.269c0.869-0.412 1.353-0.764 2.060-0.471v0.001c0.705 0.292 0.799 0.876 1.123 1.788h1.795c0.324-0.909 0.417-1.495 1.127-1.791h0.001c0.701-0.292 1.177 0.056 2.055 0.472l1.269-1.269c-0.413-0.868-0.764-1.352-0.472-2.059 0.292-0.705 0.883-0.8 1.789-1.123v-1.796c-0.917-0.325-1.497-0.417-1.788-1.121-0.293-0.707 0.055-1.187 0.471-2.060l-1.269-1.269c-0.868 0.413-1.352 0.764-2.060 0.471-0.705-0.292-0.797-0.876-1.123-1.788v0zM14.666 15.556c-1.227 0-2.223-0.996-2.223-2.223 0-1.228 0.996-2.223 2.223-2.223s2.223 0.995 2.223 2.223c0 1.227-0.996 2.223-2.223 2.223v0z"></path>
</symbol>
<symbol id="icon-sun" viewBox="0 0 32 32">
<path fill="var(--color-secondary, #ffff55)" stroke-linejoin="miter" stroke-linecap="round" stroke-miterlimit="2" d="M16 3.2c0.884 0 1.6 0.716 1.6 1.6v1.6c0 0.572-0.305 1.1-0.8 1.386s-1.105 0.286-1.6 0c-0.495-0.286-0.8-0.814-0.8-1.386v-1.6c0-0.884 0.716-1.6 1.6-1.6v0zM22.4 16c0 2.287-1.22 4.399-3.2 5.543s-4.42 1.143-6.4 0c-1.98-1.143-3.2-3.256-3.2-5.543s1.22-4.399 3.2-5.543c1.98-1.143 4.42-1.143 6.4 0s3.2 3.256 3.2 5.543v0zM21.658 23.92l1.131 1.131c0.628 0.606 1.626 0.598 2.243-0.020s0.626-1.615 0.020-2.243l-1.131-1.131c-0.628-0.606-1.626-0.598-2.243 0.019s-0.626 1.615-0.019 2.243v0zM25.050 6.949c0.625 0.625 0.625 1.638 0 2.262l-1.13 1.131c-0.402 0.416-0.997 0.583-1.556 0.436s-0.996-0.583-1.143-1.143c-0.146-0.559 0.020-1.154 0.436-1.556l1.131-1.131c0.625-0.625 1.638-0.625 2.262 0h-0.002zM27.2 17.6c0.884 0 1.6-0.716 1.6-1.6s-0.716-1.6-1.6-1.6h-1.6c-0.884 0-1.6 0.716-1.6 1.6s0.716 1.6 1.6 1.6h1.6zM16 24c0.884 0 1.6 0.716 1.6 1.6v1.6c0 0.572-0.305 1.1-0.8 1.386s-1.105 0.286-1.6 0c-0.495-0.286-0.8-0.814-0.8-1.386v-1.6c0-0.884 0.716-1.6 1.6-1.6v0zM8.080 10.342c0.404 0.404 0.994 0.563 1.546 0.415s0.984-0.579 1.132-1.132c0.148-0.552-0.010-1.142-0.414-1.546l-1.132-1.131c-0.628-0.606-1.626-0.598-2.243 0.019s-0.626 1.615-0.019 2.243l1.131 1.131zM10.342 23.92l-1.131 1.131c-0.628 0.606-1.626 0.598-2.243-0.020s-0.626-1.615-0.019-2.243l1.131-1.131c0.628-0.606 1.626-0.598 2.243 0.020s0.626 1.615 0.020 2.243v0zM6.4 17.6c0.884 0 1.6-0.716 1.6-1.6s-0.716-1.6-1.6-1.6h-1.6c-0.884 0-1.6 0.716-1.6 1.6s0.716 1.6 1.6 1.6h1.6z"></path>
</symbol>
<symbol xmlns="http://www.w3.org/2000/svg" fill="currentColor" viewBox="0 0 20 20" id="icon-right-arrow">
  <path fill-rule="evenodd" d="M12.293 5.293a1 1 0 011.414 0l4 4a1 1 0 010 1.414l-4 4a1 1 0 01-1.414-1.414L14.586 11H3a1 1 0 110-2h11.586l-2.293-2.293a1 1 0 010-1.414z" clip-rule="evenodd"></path>
</symbol>
<symbol id="icon-location" viewBox="0 0 32 32">
<path fill="none" stroke="#444343" style="stroke: var(--color1, #444343)" stroke-linejoin="miter" stroke-linecap="round" stroke-miterlimit="4" stroke-width="1.2152" d="M0.608 16c0-8.501 6.891-15.392 15.392-15.392s15.392 6.891 15.392 15.392c0 8.501-6.891 15.392-15.392 15.392s-15.392-6.891-15.392-15.392z"></path>
<path fill="#404040" style="fill: var(--color2, #404040)" d="M15.969 7.923h0.001q0.175 0 0.349 0.011t0.348 0.034 0.345 0.056 0.34 0.078 0.335 0.1 0.328 0.121 0.319 0.142 0.309 0.162 0.298 0.181 0.286 0.2 0.273 0.218 0.258 0.235 0.242 0.251 0.226 0.266 0.208 0.28 0.19 0.293 0.17 0.305 0.15 0.315 0.13 0.324 0.109 0.332 0.087 0.338 0.065 0.343 0.043 0.347 0.021 0.349-0.002 0.349-0.024 0.348-0.047 0.346-0.069 0.342-0.090 0.337-0.112 0.331-0.133 0.323-0.153 0.314l-4.799 9.056-4.799-9.056q-0.082-0.154-0.153-0.314t-0.133-0.323-0.112-0.331-0.091-0.337-0.069-0.342-0.046-0.346-0.024-0.348-0.002-0.349 0.021-0.349 0.043-0.347 0.065-0.343 0.087-0.338 0.109-0.332 0.13-0.324 0.15-0.315 0.17-0.305 0.19-0.293 0.208-0.28 0.226-0.266 0.242-0.251 0.258-0.235 0.273-0.218 0.286-0.2 0.298-0.181 0.309-0.162 0.319-0.142 0.328-0.121 0.335-0.1 0.34-0.078 0.345-0.056 0.348-0.034 0.349-0.011v0z"></path>
<path fill="#fff" style="fill: var(--color3, #fff)" d="M13.702 13.383c0-1.278 1.036-2.314 2.314-2.314s2.314 1.036 2.314 2.314c0 1.278-1.036 2.314-2.314 2.314s-2.314-1.036-2.314-2.314z"></path>
</symbol>
<symbol id="icon-moon-circle" viewBox="0 0 32 32">
<path d="M28.255 21.934c-5.163 2.335-11.233 1.229-15.241-2.778s-5.114-10.077-2.778-15.241c-5.519 2.494-8.728 8.334-7.874 14.331s5.566 10.708 11.562 11.562c5.996 0.854 11.836-2.355 14.331-7.874l0-0z"></path>
<path fill="none" stroke-linejoin="miter" stroke-linecap="butt" stroke-miterlimit="4" stroke-width="1.0213" d="M0.511 16c0-8.555 6.935-15.489 15.489-15.489s15.489 6.935 15.489 15.489c0 8.555-6.935 15.489-15.489 15.489s-15.489-6.935-15.489-15.489z"></path>
</symbol>
<symbol id="icon-sun-circle" viewBox="0 0 32 32">
<path d="M16 2.383c0.94 0 1.702 0.762 1.702 1.702v1.702c0 0.608-0.324 1.17-0.851 1.474s-1.175 0.304-1.702 0c-0.527-0.304-0.851-0.866-0.851-1.474v-1.702c0-0.94 0.762-1.702 1.702-1.702v0zM22.808 16c0 2.432-1.298 4.68-3.404 5.896s-4.702 1.216-6.809 0c-2.107-1.216-3.404-3.464-3.404-5.896s1.298-4.68 3.404-5.896c2.107-1.216 4.702-1.216 6.808 0s3.404 3.464 3.404 5.896v0zM22.019 24.426l1.203 1.203c0.668 0.645 1.73 0.636 2.386-0.021s0.666-1.718 0.021-2.386l-1.203-1.203c-0.668-0.645-1.73-0.636-2.386 0.021s-0.666 1.718-0.021 2.386v0zM25.627 6.371c0.664 0.665 0.664 1.742 0 2.407l-1.202 1.203c-0.427 0.443-1.060 0.62-1.655 0.464s-1.060-0.62-1.216-1.216c-0.156-0.595 0.022-1.228 0.464-1.655l1.203-1.203c0.665-0.664 1.742-0.664 2.407 0h-0.002zM27.915 17.702c0.94 0 1.702-0.762 1.702-1.702s-0.762-1.702-1.702-1.702h-1.702c-0.94 0-1.702 0.762-1.702 1.702s0.762 1.702 1.702 1.702h1.702zM16 24.511c0.94 0 1.702 0.762 1.702 1.702v1.702c0 0.608-0.324 1.17-0.851 1.474s-1.175 0.304-1.702 0c-0.527-0.304-0.851-0.866-0.851-1.474v-1.702c0-0.94 0.762-1.702 1.702-1.702v0zM7.574 9.981c0.43 0.43 1.057 0.598 1.645 0.441s1.047-0.616 1.204-1.204c0.157-0.588-0.011-1.215-0.441-1.645l-1.205-1.203c-0.668-0.645-1.729-0.636-2.386 0.021s-0.666 1.718-0.021 2.386l1.203 1.203zM9.981 24.426l-1.203 1.203c-0.668 0.645-1.729 0.636-2.386-0.021s-0.666-1.718-0.021-2.386l1.203-1.203c0.668-0.645 1.729-0.636 2.386 0.021s0.666 1.718 0.021 2.386v0zM5.787 17.702c0.94 0 1.702-0.762 1.702-1.702s-0.762-1.702-1.702-1.702h-1.702c-0.94 0-1.702 0.762-1.702 1.702s0.762 1.702 1.702 1.702h1.702z"></path>
<path fill="none" stroke-linejoin="miter" stroke-linecap="butt" stroke-miterlimit="4" stroke-width="1.0213" d="M0.511 16c0-8.555 6.935-15.489 15.489-15.489s15.489 6.935 15.489 15.489c0 8.555-6.935 15.489-15.489 15.489s-15.489-6.935-15.489-15.489z"></path>
</symbol>
<symbol id="icon-up-arr" viewBox="0 0 20 20">
<path fill-rule="evenodd" d="M14.707 12.707a1 1 0 01-1.414 0L10 9.414l-3.293 3.293a1 1 0 01-1.414-1.414l4-4a1 1 0 011.414 0l4 4a1 1 0 010 1.414z" clip-rule="evenodd" />
</symbol>
</defs>
</svg>
