<?xml version="1.0" encoding="utf-8"?>
<svg width="115px" height="148px" viewBox="0 0 115 148" version="1.1" xmlns:xlink="http://www.w3.org/1999/xlink" xmlns="http://www.w3.org/2000/svg">
  <g id="Group-36-Copy-2" transform="translate(2.5 2.5)">
    <path d="M7.75024 6.49689C7.75024 3.84923 8.81357 1.70288 10.1252 1.70288C11.4369 1.70288 12.5002 3.84923 12.5002 6.49689C12.5002 9.14455 11.4369 11.2909 10.1252 11.2909C8.81357 11.2909 7.75024 9.14455 7.75024 6.49689Z" id="Ellipse-9" fill="#D92222" fill-rule="evenodd" stroke="none" />
    <path d="M14.999 1.70288L95.001 1.70288Q95.3692 1.70288 95.737 1.72095Q96.1047 1.73901 96.4712 1.77511Q96.8376 1.8112 97.2018 1.86522Q97.566 1.91925 97.9271 1.99108Q98.2883 2.06292 98.6455 2.15238Q99.0026 2.24185 99.355 2.34873Q99.7073 2.45562 100.054 2.57966Q100.401 2.70371 100.741 2.84461Q101.081 2.98552 101.414 3.14295Q101.747 3.30037 102.071 3.47394Q102.396 3.64751 102.712 3.83681Q103.028 4.0261 103.334 4.23067Q103.64 4.43523 103.936 4.65457Q104.232 4.87391 104.516 5.1075Q104.801 5.34108 105.074 5.58835Q105.347 5.83563 105.607 6.09599Q105.867 6.35635 106.115 6.62917Q106.362 6.90199 106.595 7.18662Q106.829 7.47124 107.048 7.76699Q107.268 8.06273 107.472 8.36888Q107.677 8.67503 107.866 8.99085Q108.055 9.30667 108.229 9.6314Q108.402 9.95613 108.56 10.289Q108.717 10.6218 108.858 10.962Q108.999 11.3022 109.123 11.6489Q109.247 11.9956 109.354 12.3479Q109.461 12.7003 109.55 13.0574Q109.64 13.4146 109.712 13.7757Q109.784 14.1369 109.838 14.5011Q109.892 14.8653 109.928 15.2317Q109.964 15.5982 109.982 15.9659Q110 16.3337 110 16.7019L110 128.001Q110 128.369 109.982 128.737Q109.964 129.105 109.928 129.471Q109.892 129.838 109.838 130.202Q109.784 130.566 109.712 130.927Q109.64 131.288 109.55 131.645Q109.461 132.003 109.354 132.355Q109.247 132.707 109.123 133.054Q108.999 133.401 108.858 133.741Q108.717 134.081 108.56 134.414Q108.402 134.747 108.229 135.071Q108.055 135.396 107.866 135.712Q107.677 136.028 107.472 136.334Q107.268 136.64 107.048 136.936Q106.829 137.232 106.595 137.516Q106.362 137.801 106.115 138.074Q105.867 138.347 105.607 138.607Q105.347 138.867 105.074 139.115Q104.801 139.362 104.516 139.595Q104.232 139.829 103.936 140.048Q103.64 140.268 103.334 140.472Q103.028 140.677 102.712 140.866Q102.396 141.055 102.071 141.229Q101.747 141.403 101.414 141.56Q101.081 141.717 100.741 141.858Q100.401 141.999 100.054 142.123Q99.7073 142.247 99.355 142.354Q99.0026 142.461 98.6455 142.551Q98.2883 142.64 97.9272 142.712Q97.566 142.784 97.2018 142.838Q96.8376 142.892 96.4712 142.928Q96.1047 142.964 95.737 142.982Q95.3692 143 95.001 143L14.999 143Q14.6308 143 14.263 142.982Q13.8953 142.964 13.5288 142.928Q13.1624 142.892 12.7982 142.838Q12.434 142.784 12.0728 142.712Q11.7117 142.64 11.3545 142.551Q10.9974 142.461 10.645 142.354Q10.2927 142.247 9.94599 142.123Q9.59931 141.999 9.25913 141.858Q8.91895 141.717 8.5861 141.56Q8.25325 141.403 7.92852 141.229Q7.60379 141.055 7.28797 140.866Q6.97215 140.677 6.666 140.472Q6.35985 140.268 6.06411 140.048Q5.76836 139.829 5.48373 139.595Q5.19911 139.362 4.92629 139.115Q4.65346 138.867 4.39311 138.607Q4.13274 138.347 3.88547 138.074Q3.6382 137.801 3.40462 137.516Q3.17103 137.232 2.95169 136.936Q2.73235 136.64 2.52779 136.334Q2.32322 136.028 2.13393 135.712Q1.94463 135.396 1.77106 135.071Q1.59749 134.747 1.44006 134.414Q1.28264 134.081 1.14173 133.741Q1.00082 133.401 0.87678 133.054Q0.752736 132.707 0.645852 132.355Q0.538968 132.003 0.449501 131.645Q0.360035 131.288 0.288202 130.927Q0.216368 130.566 0.162341 130.202Q0.108315 129.838 0.0722243 129.471Q0.0361339 129.105 0.0180669 128.737Q0 128.369 0 128.001L0 16.7019Q0 16.3337 0.0180669 15.9659Q0.0361339 15.5982 0.0722243 15.2317Q0.108315 14.8653 0.162341 14.5011Q0.216368 14.1369 0.288202 13.7757Q0.360035 13.4146 0.449501 13.0574Q0.538968 12.7003 0.645852 12.3479Q0.752736 11.9956 0.87678 11.6489Q1.00082 11.3022 1.14173 10.962Q1.28264 10.6218 1.44006 10.289Q1.59749 9.95613 1.77106 9.6314Q1.94463 9.30667 2.13393 8.99085Q2.32322 8.67503 2.52779 8.36888Q2.73235 8.06273 2.95169 7.76699Q3.17103 7.47124 3.40462 7.18662Q3.6382 6.90199 3.88547 6.62917Q4.13274 6.35635 4.39311 6.09599Q4.65346 5.83563 4.92629 5.58835Q5.19911 5.34108 5.48373 5.1075Q5.76836 4.87391 6.06411 4.65457Q6.35985 4.43523 6.666 4.23067Q6.97215 4.0261 7.28797 3.83681Q7.60379 3.64751 7.92852 3.47394Q8.25325 3.30037 8.5861 3.14295Q8.91895 2.98552 9.25913 2.84461Q9.59931 2.70371 9.94599 2.57966Q10.2927 2.45562 10.645 2.34873Q10.9974 2.24185 11.3545 2.15238Q11.7117 2.06292 12.0728 1.99108Q12.434 1.91925 12.7982 1.86522Q13.1624 1.8112 13.5288 1.77511Q13.8953 1.73901 14.263 1.72095Q14.6308 1.70288 14.999 1.70288L14.999 1.70288Z" id="Rectangle" fill="#FFFFFF" fill-rule="evenodd" stroke="#CECECE" stroke-width="5" />
    <path d="M21.7975 35.0125L61.268 35.0125Q61.4863 35.0125 61.7044 35.0232Q61.9225 35.0339 62.1398 35.0553Q62.3571 35.0767 62.5731 35.1087Q62.7891 35.1408 63.0033 35.1834Q63.2174 35.226 63.4293 35.279Q63.6411 35.3321 63.85 35.3955Q64.059 35.4588 64.2646 35.5324Q64.4702 35.606 64.6719 35.6895Q64.8736 35.7731 65.071 35.8665Q65.2684 35.9598 65.461 36.0627Q65.6536 36.1657 65.8409 36.2779Q66.0282 36.3902 66.2097 36.5115Q66.3913 36.6328 66.5667 36.7629Q66.742 36.893 66.9108 37.0315Q67.0796 37.17 67.2414 37.3167Q67.4032 37.4633 67.5576 37.6177Q67.712 37.7721 67.8587 37.9339Q68.0053 38.0957 68.1438 38.2645Q68.2823 38.4333 68.4124 38.6087Q68.5425 38.784 68.6638 38.9656Q68.7851 39.1472 68.8974 39.3344Q69.0096 39.5217 69.1126 39.7143Q69.2155 39.9069 69.3089 40.1043Q69.4022 40.3017 69.4858 40.5034Q69.5693 40.7051 69.6429 40.9107Q69.7165 41.1163 69.7798 41.3253Q69.8432 41.5342 69.8963 41.7461Q69.9494 41.9579 69.992 42.172Q70.0345 42.3862 70.0666 42.6022Q70.0986 42.8182 70.12 43.0355Q70.1414 43.2528 70.1522 43.4709Q70.1629 43.689 70.1629 43.9073L70.1629 43.9093Q70.1629 44.1277 70.1522 44.3458Q70.1414 44.5639 70.12 44.7812Q70.0986 44.9985 70.0666 45.2145Q70.0345 45.4305 69.992 45.6446Q69.9494 45.8588 69.8963 46.0706Q69.8432 46.2824 69.7799 46.4914Q69.7165 46.7003 69.6429 46.9059Q69.5693 47.1115 69.4858 47.3133Q69.4022 47.515 69.3089 47.7124Q69.2155 47.9098 69.1126 48.1024Q69.0096 48.2949 68.8974 48.4822Q68.7851 48.6695 68.6638 48.8511Q68.5425 49.0326 68.4124 49.208Q68.2823 49.3834 68.1438 49.5522Q68.0053 49.721 67.8587 49.8828Q67.712 50.0446 67.5576 50.199Q67.4032 50.3534 67.2414 50.5Q67.0796 50.6467 66.9108 50.7852Q66.742 50.9237 66.5667 51.0538Q66.3913 51.1838 66.2097 51.3052Q66.0282 51.4265 65.8409 51.5387Q65.6536 51.651 65.461 51.7539Q65.2684 51.8568 65.071 51.9502Q64.8736 52.0436 64.6719 52.1271Q64.4702 52.2107 64.2646 52.2843Q64.059 52.3578 63.85 52.4212Q63.6411 52.4846 63.4293 52.5376Q63.2174 52.5907 63.0033 52.6333Q62.7891 52.6759 62.5731 52.7079Q62.3571 52.74 62.1398 52.7614Q61.9225 52.7828 61.7044 52.7935Q61.4863 52.8042 61.268 52.8042L21.7975 52.8042Q21.5791 52.8042 21.361 52.7935Q21.1429 52.7828 20.9256 52.7614Q20.7083 52.74 20.4923 52.7079Q20.2763 52.6759 20.0622 52.6333Q19.848 52.5907 19.6362 52.5376Q19.4244 52.4846 19.2154 52.4212Q19.0065 52.3578 18.8009 52.2843Q18.5953 52.2107 18.3935 52.1271Q18.1918 52.0436 17.9944 51.9502Q17.797 51.8568 17.6045 51.7539Q17.4119 51.651 17.2246 51.5387Q17.0373 51.4265 16.8557 51.3052Q16.6742 51.1838 16.4988 51.0538Q16.3234 50.9237 16.1546 50.7852Q15.9858 50.6466 15.824 50.5Q15.6622 50.3534 15.5078 50.199Q15.3534 50.0446 15.2068 49.8828Q15.0602 49.721 14.9216 49.5522Q14.7831 49.3834 14.653 49.208Q14.523 49.0326 14.4016 48.8511Q14.2803 48.6695 14.1681 48.4822Q14.0558 48.2949 13.9529 48.1024Q13.8499 47.9098 13.7566 47.7124Q13.6632 47.515 13.5797 47.3133Q13.4961 47.1115 13.4225 46.9059Q13.349 46.7003 13.2856 46.4914Q13.2222 46.2824 13.1692 46.0706Q13.1161 45.8588 13.0735 45.6446Q13.0309 45.4305 12.9989 45.2145Q12.9668 44.9985 12.9454 44.7812Q12.924 44.5639 12.9133 44.3458Q12.9026 44.1277 12.9026 43.9093L12.9026 43.9073Q12.9026 43.689 12.9133 43.4709Q12.924 43.2528 12.9454 43.0355Q12.9668 42.8182 12.9989 42.6022Q13.0309 42.3862 13.0735 42.172Q13.1161 41.9579 13.1692 41.7461Q13.2222 41.5342 13.2856 41.3253Q13.349 41.1163 13.4225 40.9107Q13.4961 40.7051 13.5797 40.5034Q13.6632 40.3017 13.7566 40.1043Q13.8499 39.9069 13.9529 39.7143Q14.0558 39.5217 14.1681 39.3344Q14.2803 39.1472 14.4016 38.9656Q14.523 38.784 14.653 38.6087Q14.7831 38.4333 14.9216 38.2645Q15.0602 38.0957 15.2068 37.9339Q15.3534 37.7721 15.5078 37.6177Q15.6622 37.4633 15.824 37.3167Q15.9858 37.17 16.1546 37.0315Q16.3234 36.893 16.4988 36.7629Q16.6742 36.6328 16.8557 36.5115Q17.0373 36.3902 17.2246 36.2779Q17.4119 36.1657 17.6045 36.0627Q17.797 35.9598 17.9944 35.8665Q18.1918 35.7731 18.3935 35.6895Q18.5953 35.606 18.8009 35.5324Q19.0065 35.4588 19.2154 35.3955Q19.4244 35.3321 19.6362 35.279Q19.848 35.226 20.0622 35.1834Q20.2763 35.1408 20.4923 35.1087Q20.7083 35.0767 20.9256 35.0553Q21.1429 35.0339 21.361 35.0232Q21.5791 35.0125 21.7975 35.0125Z" id="Rectangle-Copy-2" fill="#CECECE" fill-rule="evenodd" stroke="none" />
    <path d="M84.7975 35.011L89.6105 35.011Q89.8288 35.011 90.0469 35.0218Q90.265 35.0325 90.4823 35.0539Q90.6996 35.0753 90.9156 35.1073Q91.1316 35.1394 91.3457 35.182Q91.5599 35.2246 91.7717 35.2776Q91.9835 35.3307 92.1925 35.3941Q92.4014 35.4574 92.607 35.531Q92.8126 35.6046 93.0144 35.6881Q93.2161 35.7717 93.4135 35.8651Q93.6109 35.9584 93.8035 36.0613Q93.996 36.1643 94.1833 36.2765Q94.3706 36.3888 94.5522 36.5101Q94.7337 36.6314 94.9091 36.7615Q95.0845 36.8916 95.2533 37.0301Q95.4221 37.1686 95.5839 37.3153Q95.7457 37.4619 95.9001 37.6163Q96.0545 37.7707 96.2011 37.9325Q96.3478 38.0943 96.4863 38.2631Q96.6248 38.4319 96.7549 38.6073Q96.885 38.7826 97.0063 38.9642Q97.1276 39.1458 97.2398 39.333Q97.3521 39.5203 97.455 39.7129Q97.558 39.9055 97.6513 40.1029Q97.7447 40.3003 97.8282 40.502Q97.9118 40.7037 97.9854 40.9093Q98.0589 41.1149 98.1223 41.3239Q98.1857 41.5328 98.2388 41.7446Q98.2918 41.9565 98.3344 42.1706Q98.377 42.3848 98.4091 42.6008Q98.4411 42.8168 98.4625 43.0341Q98.4839 43.2514 98.4946 43.4695Q98.5053 43.6876 98.5053 43.9059L98.5053 43.9079Q98.5053 44.1263 98.4946 44.3444Q98.4839 44.5625 98.4625 44.7798Q98.4411 44.9971 98.4091 45.2131Q98.377 45.4291 98.3344 45.6432Q98.2918 45.8574 98.2388 46.0692Q98.1857 46.281 98.1223 46.49Q98.0589 46.6989 97.9854 46.9045Q97.9118 47.1101 97.8282 47.3119Q97.7447 47.5136 97.6513 47.711Q97.5579 47.9084 97.455 48.101Q97.3521 48.2935 97.2398 48.4808Q97.1276 48.6681 97.0063 48.8497Q96.8849 49.0312 96.7549 49.2066Q96.6248 49.382 96.4863 49.5508Q96.3477 49.7196 96.2011 49.8814Q96.0545 50.0432 95.9001 50.1976Q95.7457 50.352 95.5839 50.4986Q95.4221 50.6452 95.2533 50.7838Q95.0845 50.9223 94.9091 51.0524Q94.7337 51.1824 94.5522 51.3038Q94.3706 51.4251 94.1833 51.5373Q93.996 51.6496 93.8035 51.7525Q93.6109 51.8554 93.4135 51.9488Q93.2161 52.0422 93.0144 52.1257Q92.8126 52.2093 92.607 52.2829Q92.4014 52.3564 92.1925 52.4198Q91.9835 52.4832 91.7717 52.5362Q91.5599 52.5893 91.3457 52.6319Q91.1316 52.6745 90.9156 52.7065Q90.6996 52.7386 90.4823 52.76Q90.265 52.7814 90.0469 52.7921Q89.8288 52.8028 89.6105 52.8028L84.7975 52.8028Q84.5791 52.8028 84.361 52.7921Q84.1429 52.7814 83.9256 52.76Q83.7083 52.7386 83.4923 52.7065Q83.2763 52.6745 83.0622 52.6319Q82.848 52.5893 82.6362 52.5362Q82.4244 52.4832 82.2154 52.4198Q82.0065 52.3564 81.8009 52.2829Q81.5953 52.2093 81.3935 52.1257Q81.1918 52.0422 80.9944 51.9488Q80.797 51.8554 80.6044 51.7525Q80.4119 51.6496 80.2246 51.5373Q80.0373 51.4251 79.8557 51.3038Q79.6742 51.1824 79.4988 51.0524Q79.3234 50.9223 79.1546 50.7838Q78.9858 50.6452 78.824 50.4986Q78.6622 50.352 78.5078 50.1976Q78.3534 50.0432 78.2068 49.8814Q78.0602 49.7196 77.9216 49.5508Q77.7831 49.382 77.653 49.2066Q77.5229 49.0312 77.4016 48.8497Q77.2803 48.6681 77.1681 48.4808Q77.0558 48.2935 76.9529 48.101Q76.8499 47.9084 76.7566 47.711Q76.6632 47.5136 76.5797 47.3119Q76.4961 47.1101 76.4225 46.9045Q76.349 46.6989 76.2856 46.49Q76.2222 46.281 76.1692 46.0692Q76.1161 45.8574 76.0735 45.6432Q76.0309 45.4291 75.9989 45.2131Q75.9668 44.9971 75.9454 44.7798Q75.924 44.5625 75.9133 44.3444Q75.9026 44.1263 75.9026 43.9079L75.9026 43.9059Q75.9026 43.6876 75.9133 43.4695Q75.924 43.2514 75.9454 43.0341Q75.9668 42.8168 75.9989 42.6008Q76.0309 42.3848 76.0735 42.1706Q76.1161 41.9565 76.1692 41.7446Q76.2222 41.5328 76.2856 41.3239Q76.349 41.1149 76.4225 40.9093Q76.4961 40.7037 76.5797 40.502Q76.6632 40.3003 76.7566 40.1029Q76.8499 39.9055 76.9529 39.7129Q77.0558 39.5203 77.1681 39.333Q77.2803 39.1458 77.4016 38.9642Q77.5229 38.7826 77.653 38.6073Q77.7831 38.4319 77.9216 38.2631Q78.0602 38.0943 78.2068 37.9325Q78.3534 37.7707 78.5078 37.6163Q78.6622 37.4619 78.824 37.3153Q78.9858 37.1686 79.1546 37.0301Q79.3234 36.8916 79.4988 36.7615Q79.6742 36.6314 79.8557 36.5101Q80.0373 36.3888 80.2246 36.2765Q80.4119 36.1643 80.6044 36.0613Q80.797 35.9584 80.9944 35.8651Q81.1918 35.7717 81.3935 35.6881Q81.5953 35.6046 81.8009 35.531Q82.0065 35.4574 82.2154 35.3941Q82.4244 35.3307 82.6362 35.2776Q82.848 35.2246 83.0621 35.182Q83.2763 35.1394 83.4923 35.1073Q83.7083 35.0753 83.9256 35.0539Q84.1429 35.0325 84.361 35.0218Q84.5791 35.011 84.7975 35.011Z" id="Rectangle-Copy-5" fill="#1B2C61" fill-rule="evenodd" stroke="none" />
    <path d="M21.4 59.7933L89.5007 59.7933Q89.719 59.7933 89.9371 59.804Q90.1552 59.8147 90.3725 59.8361Q90.5898 59.8575 90.8058 59.8895Q91.0218 59.9216 91.236 59.9642Q91.4501 60.0068 91.6619 60.0598Q91.8737 60.1129 92.0827 60.1763Q92.2917 60.2397 92.4972 60.3132Q92.7029 60.3868 92.9046 60.4703Q93.1063 60.5539 93.3037 60.6473Q93.5011 60.7406 93.6937 60.8436Q93.8863 60.9465 94.0735 61.0588Q94.2608 61.171 94.4424 61.2923Q94.6239 61.4136 94.7993 61.5437Q94.9747 61.6738 95.1435 61.8123Q95.3123 61.9508 95.4741 62.0975Q95.6359 62.2441 95.7903 62.3985Q95.9447 62.5529 96.0913 62.7147Q96.238 62.8765 96.3765 63.0453Q96.515 63.2141 96.6451 63.3895Q96.7752 63.5649 96.8965 63.7464Q97.0178 63.928 97.13 64.1153Q97.2423 64.3026 97.3452 64.4951Q97.4482 64.6877 97.5415 64.8851Q97.6349 65.0825 97.7185 65.2842Q97.802 65.486 97.8756 65.6916Q97.9492 65.8971 98.0125 66.1061Q98.0759 66.3151 98.129 66.5269Q98.182 66.7387 98.2246 66.9528Q98.2672 67.167 98.2993 67.383Q98.3313 67.599 98.3527 67.8163Q98.3741 68.0336 98.3848 68.2517Q98.3955 68.4698 98.3955 68.6882L98.3955 68.6902Q98.3955 68.9085 98.3848 69.1266Q98.3741 69.3447 98.3527 69.562Q98.3313 69.7793 98.2993 69.9953Q98.2672 70.2113 98.2246 70.4255Q98.182 70.6396 98.129 70.8514Q98.0759 71.0632 98.0125 71.2722Q97.9492 71.4811 97.8756 71.6867Q97.802 71.8923 97.7185 72.0941Q97.6349 72.2958 97.5415 72.4932Q97.4482 72.6906 97.3452 72.8832Q97.2423 73.0757 97.13 73.263Q97.0178 73.4503 96.8965 73.6319Q96.7752 73.8134 96.6451 73.9888Q96.515 74.1642 96.3765 74.333Q96.238 74.5018 96.0913 74.6636Q95.9447 74.8254 95.7903 74.9798Q95.6359 75.1342 95.4741 75.2808Q95.3123 75.4275 95.1435 75.566Q94.9747 75.7045 94.7993 75.8346Q94.6239 75.9647 94.4424 76.086Q94.2608 76.2073 94.0735 76.3195Q93.8862 76.4318 93.6937 76.5347Q93.5011 76.6377 93.3037 76.731Q93.1063 76.8244 92.9046 76.908Q92.7029 76.9915 92.4972 77.0651Q92.2917 77.1386 92.0827 77.202Q91.8737 77.2654 91.6619 77.3185Q91.4501 77.3715 91.236 77.4141Q91.0218 77.4567 90.8058 77.4888Q90.5898 77.5208 90.3725 77.5422Q90.1552 77.5636 89.9371 77.5743Q89.719 77.585 89.5007 77.585L21.4 77.585Q21.1817 77.585 20.9636 77.5743Q20.7455 77.5636 20.5282 77.5422Q20.3109 77.5208 20.0949 77.4888Q19.8789 77.4567 19.6647 77.4141Q19.4505 77.3715 19.2387 77.3185Q19.0269 77.2654 18.818 77.202Q18.609 77.1386 18.4034 77.0651Q18.1978 76.9915 17.9961 76.908Q17.7943 76.8244 17.597 76.731Q17.3996 76.6377 17.207 76.5347Q17.0144 76.4318 16.8271 76.3195Q16.6398 76.2073 16.4583 76.086Q16.2767 75.9647 16.1013 75.8346Q15.9259 75.7045 15.7572 75.566Q15.5884 75.4275 15.4266 75.2808Q15.2648 75.1342 15.1104 74.9798Q14.956 74.8254 14.8093 74.6636Q14.6627 74.5018 14.5242 74.333Q14.3856 74.1642 14.2556 73.9888Q14.1255 73.8134 14.0042 73.6319Q13.8829 73.4503 13.7706 73.263Q13.6584 73.0757 13.5554 72.8832Q13.4525 72.6906 13.3591 72.4932Q13.2658 72.2958 13.1822 72.0941Q13.0986 71.8923 13.0251 71.6867Q12.9515 71.4811 12.8881 71.2722Q12.8248 71.0632 12.7717 70.8514Q12.7186 70.6396 12.676 70.4255Q12.6334 70.2113 12.6014 69.9953Q12.5694 69.7793 12.548 69.562Q12.5266 69.3447 12.5158 69.1266Q12.5051 68.9085 12.5051 68.6902L12.5051 68.6882Q12.5051 68.4698 12.5158 68.2517Q12.5266 68.0336 12.548 67.8163Q12.5694 67.599 12.6014 67.383Q12.6334 67.167 12.676 66.9528Q12.7186 66.7387 12.7717 66.5269Q12.8248 66.3151 12.8881 66.1061Q12.9515 65.8972 13.0251 65.6916Q13.0986 65.486 13.1822 65.2842Q13.2658 65.0825 13.3591 64.8851Q13.4525 64.6877 13.5554 64.4951Q13.6584 64.3026 13.7706 64.1153Q13.8829 63.928 14.0042 63.7464Q14.1255 63.5649 14.2556 63.3895Q14.3856 63.2141 14.5242 63.0453Q14.6627 62.8765 14.8093 62.7147Q14.956 62.5529 15.1104 62.3985Q15.2648 62.2441 15.4266 62.0975Q15.5884 61.9508 15.7572 61.8123Q15.9259 61.6738 16.1013 61.5437Q16.2767 61.4136 16.4583 61.2923Q16.6398 61.171 16.8271 61.0588Q17.0144 60.9465 17.207 60.8436Q17.3996 60.7406 17.597 60.6473Q17.7943 60.5539 17.9961 60.4703Q18.1978 60.3868 18.4034 60.3132Q18.609 60.2397 18.818 60.1763Q19.0269 60.1129 19.2387 60.0598Q19.4505 60.0068 19.6647 59.9642Q19.8789 59.9216 20.0949 59.8895Q20.3109 59.8575 20.5282 59.8361Q20.7455 59.8147 20.9636 59.804Q21.1817 59.7933 21.4 59.7933Z" id="Rectangle-Copy-3" fill="#1B2C61" fill-rule="evenodd" stroke="none" />
    <path d="M66.8964 108.899L89.1066 108.899Q89.3249 108.899 89.543 108.91Q89.7611 108.921 89.9784 108.942Q90.1957 108.964 90.4117 108.996Q90.6277 109.028 90.8419 109.07Q91.056 109.113 91.2678 109.166Q91.4797 109.219 91.6886 109.282Q91.8976 109.346 92.1032 109.419Q92.3088 109.493 92.5105 109.576Q92.7122 109.66 92.9096 109.753Q93.107 109.847 93.2996 109.95Q93.4922 110.053 93.6795 110.165Q93.8667 110.277 94.0483 110.398Q94.2299 110.52 94.4052 110.65Q94.5806 110.78 94.7494 110.918Q94.9182 111.057 95.08 111.203Q95.2418 111.35 95.3962 111.505Q95.5506 111.659 95.6972 111.821Q95.8439 111.983 95.9824 112.151Q96.1209 112.32 96.251 112.495Q96.3811 112.671 96.5024 112.852Q96.6237 113.034 96.736 113.221Q96.8482 113.409 96.9512 113.601Q97.0541 113.794 97.1474 113.991Q97.2408 114.188 97.3244 114.39Q97.4079 114.592 97.4815 114.798Q97.5551 115.003 97.6184 115.212Q97.6818 115.421 97.7349 115.633Q97.7879 115.845 97.8305 116.059Q97.8731 116.273 97.9052 116.489Q97.9372 116.705 97.9586 116.922Q97.98 117.14 97.9907 117.358Q98.0015 117.576 98.0015 117.794L98.0015 117.796Q98.0015 118.015 97.9907 118.233Q97.98 118.451 97.9586 118.668Q97.9372 118.885 97.9052 119.101Q97.8731 119.317 97.8305 119.531Q97.7879 119.746 97.7349 119.957Q97.6818 120.169 97.6184 120.378Q97.5551 120.587 97.4815 120.793Q97.4079 120.998 97.3244 121.2Q97.2408 121.402 97.1475 121.599Q97.0541 121.797 96.9512 121.989Q96.8482 122.182 96.736 122.369Q96.6237 122.556 96.5024 122.738Q96.3811 122.919 96.251 123.095Q96.1209 123.27 95.9824 123.439Q95.8439 123.608 95.6972 123.77Q95.5506 123.931 95.3962 124.086Q95.2418 124.24 95.08 124.387Q94.9182 124.533 94.7494 124.672Q94.5806 124.811 94.4053 124.941Q94.2299 125.071 94.0483 125.192Q93.8667 125.313 93.6795 125.426Q93.4922 125.538 93.2996 125.641Q93.107 125.744 92.9096 125.837Q92.7122 125.93 92.5105 126.014Q92.3088 126.098 92.1031 126.171Q91.8976 126.245 91.6886 126.308Q91.4797 126.371 91.2678 126.424Q91.056 126.478 90.8419 126.52Q90.6277 126.563 90.4117 126.595Q90.1957 126.627 89.9784 126.648Q89.7611 126.67 89.543 126.68Q89.3249 126.691 89.1066 126.691L66.8964 126.691Q66.678 126.691 66.4599 126.68Q66.2418 126.67 66.0245 126.648Q65.8072 126.627 65.5912 126.595Q65.3752 126.563 65.161 126.52Q64.9469 126.478 64.7351 126.425Q64.5232 126.371 64.3143 126.308Q64.1053 126.245 63.8997 126.171Q63.6942 126.098 63.4924 126.014Q63.2907 125.93 63.0933 125.837Q62.8959 125.744 62.7033 125.641Q62.5108 125.538 62.3235 125.426Q62.1362 125.313 61.9546 125.192Q61.7731 125.071 61.5977 124.941Q61.4223 124.811 61.2535 124.672Q61.0847 124.533 60.9229 124.387Q60.7611 124.24 60.6067 124.086Q60.4523 123.931 60.3057 123.77Q60.159 123.608 60.0205 123.439Q59.882 123.27 59.7519 123.095Q59.6218 122.919 59.5005 122.738Q59.3792 122.556 59.2669 122.369Q59.1547 122.182 59.0518 121.989Q58.9488 121.797 58.8555 121.599Q58.7621 121.402 58.6785 121.2Q58.595 120.998 58.5214 120.793Q58.4479 120.587 58.3845 120.378Q58.3211 120.169 58.268 119.957Q58.215 119.746 58.1724 119.531Q58.1298 119.317 58.0977 119.101Q58.0657 118.885 58.0443 118.668Q58.0229 118.451 58.0122 118.233Q58.0015 118.015 58.0015 117.796L58.0015 117.794Q58.0015 117.576 58.0122 117.358Q58.0229 117.14 58.0443 116.922Q58.0657 116.705 58.0977 116.489Q58.1298 116.273 58.1724 116.059Q58.215 115.845 58.268 115.633Q58.3211 115.421 58.3845 115.212Q58.4479 115.003 58.5214 114.798Q58.595 114.592 58.6785 114.39Q58.7621 114.188 58.8555 113.991Q58.9488 113.794 59.0518 113.601Q59.1547 113.409 59.2669 113.221Q59.3792 113.034 59.5005 112.852Q59.6218 112.671 59.7519 112.495Q59.882 112.32 60.0205 112.151Q60.159 111.983 60.3057 111.821Q60.4523 111.659 60.6067 111.505Q60.7611 111.35 60.9229 111.203Q61.0847 111.057 61.2535 110.918Q61.4223 110.78 61.5977 110.65Q61.773 110.52 61.9546 110.398Q62.1362 110.277 62.3235 110.165Q62.5108 110.053 62.7033 109.95Q62.8959 109.847 63.0933 109.753Q63.2907 109.66 63.4924 109.576Q63.6942 109.493 63.8997 109.419Q64.1053 109.346 64.3143 109.282Q64.5232 109.219 64.7351 109.166Q64.9469 109.113 65.161 109.07Q65.3752 109.028 65.5912 108.996Q65.8072 108.964 66.0245 108.942Q66.2418 108.921 66.4599 108.91Q66.678 108.899 66.8964 108.899Z" id="Rectangle-Copy-6" fill="#CECECE" fill-rule="evenodd" stroke="none" />
    <path d="M50.4273 84.7877L89.8979 84.7877Q90.1162 84.7877 90.3343 84.7984Q90.5524 84.8092 90.7697 84.8306Q90.987 84.852 91.203 84.884Q91.419 84.916 91.6332 84.9586Q91.8473 85.0012 92.0592 85.0543Q92.271 85.1073 92.4799 85.1707Q92.6889 85.2341 92.8945 85.3077Q93.1001 85.3812 93.3018 85.4648Q93.5035 85.5483 93.7009 85.6417Q93.8983 85.7351 94.0909 85.838Q94.2835 85.9409 94.4707 86.0532Q94.658 86.1655 94.8396 86.2868Q95.0212 86.4081 95.1965 86.5382Q95.3719 86.6682 95.5407 86.8068Q95.7095 86.9453 95.8713 87.0919Q96.0331 87.2386 96.1875 87.393Q96.3419 87.5474 96.4885 87.7092Q96.6352 87.8709 96.7737 88.0397Q96.9122 88.2085 97.0423 88.3839Q97.1724 88.5593 97.2937 88.7409Q97.415 88.9224 97.5273 89.1097Q97.6395 89.297 97.7424 89.4896Q97.8454 89.6821 97.9387 89.8795Q98.0321 90.0769 98.1157 90.2787Q98.1992 90.4804 98.2728 90.686Q98.3464 90.8916 98.4097 91.1006Q98.4731 91.3095 98.5262 91.5213Q98.5792 91.7331 98.6218 91.9473Q98.6644 92.1614 98.6965 92.3774Q98.7285 92.5934 98.7499 92.8107Q98.7713 93.0281 98.782 93.2461Q98.7927 93.4642 98.7928 93.6826L98.7928 93.6846Q98.7927 93.903 98.782 94.1211Q98.7713 94.3391 98.7499 94.5565Q98.7285 94.7738 98.6965 94.9898Q98.6644 95.2057 98.6218 95.4199Q98.5792 95.6341 98.5262 95.8459Q98.4731 96.0577 98.4097 96.2666Q98.3464 96.4756 98.2728 96.6812Q98.1992 96.8868 98.1157 97.0885Q98.0321 97.2903 97.9387 97.4876Q97.8454 97.685 97.7424 97.8776Q97.6395 98.0702 97.5272 98.2575Q97.415 98.4448 97.2937 98.6263Q97.1724 98.8079 97.0423 98.9833Q96.9122 99.1587 96.7737 99.3275Q96.6352 99.4962 96.4885 99.658Q96.3419 99.8198 96.1875 99.9742Q96.0331 100.129 95.8713 100.275Q95.7095 100.422 95.5407 100.56Q95.3719 100.699 95.1965 100.829Q95.0212 100.959 94.8396 101.08Q94.658 101.202 94.4707 101.314Q94.2835 101.426 94.0909 101.529Q93.8983 101.632 93.7009 101.725Q93.5035 101.819 93.3018 101.902Q93.1001 101.986 92.8945 102.059Q92.6889 102.133 92.4799 102.196Q92.271 102.26 92.0592 102.313Q91.8473 102.366 91.6332 102.409Q91.419 102.451 91.203 102.483Q90.987 102.515 90.7697 102.537Q90.5524 102.558 90.3343 102.569Q90.1162 102.579 89.8979 102.579L50.4273 102.579Q50.209 102.579 49.9909 102.569Q49.7728 102.558 49.5555 102.537Q49.3382 102.515 49.1222 102.483Q48.9062 102.451 48.692 102.409Q48.4779 102.366 48.2661 102.313Q48.0543 102.26 47.8453 102.196Q47.6363 102.133 47.4308 102.06Q47.2252 101.986 47.0234 101.902Q46.8217 101.819 46.6243 101.725Q46.4269 101.632 46.2343 101.529Q46.0418 101.426 45.8545 101.314Q45.6672 101.202 45.4856 101.08Q45.3041 100.959 45.1287 100.829Q44.9533 100.699 44.7845 100.56Q44.6157 100.422 44.4539 100.275Q44.2921 100.129 44.1377 99.9742Q43.9833 99.8198 43.8367 99.658Q43.69 99.4962 43.5515 99.3275Q43.413 99.1587 43.2829 98.9833Q43.1528 98.8079 43.0315 98.6263Q42.9102 98.4448 42.798 98.2575Q42.6857 98.0702 42.5828 97.8776Q42.4798 97.685 42.3865 97.4876Q42.2931 97.2903 42.2095 97.0885Q42.126 96.8868 42.0524 96.6812Q41.9789 96.4756 41.9155 96.2666Q41.8521 96.0577 41.799 95.8459Q41.746 95.6341 41.7034 95.4199Q41.6608 95.2057 41.6287 94.9898Q41.5967 94.7738 41.5753 94.5564Q41.5539 94.3391 41.5432 94.1211Q41.5325 93.903 41.5325 93.6846L41.5325 93.6826Q41.5325 93.4642 41.5432 93.2461Q41.5539 93.0281 41.5753 92.8107Q41.5967 92.5934 41.6287 92.3774Q41.6608 92.1614 41.7034 91.9473Q41.746 91.7331 41.799 91.5213Q41.8521 91.3095 41.9155 91.1006Q41.9789 90.8916 42.0524 90.686Q42.126 90.4804 42.2095 90.2787Q42.2931 90.0769 42.3865 89.8795Q42.4798 89.6821 42.5828 89.4896Q42.6857 89.297 42.798 89.1097Q42.9102 88.9224 43.0315 88.7409Q43.1528 88.5593 43.2829 88.3839Q43.413 88.2085 43.5515 88.0397Q43.69 87.8709 43.8367 87.7092Q43.9833 87.5474 44.1377 87.393Q44.2921 87.2386 44.4539 87.0919Q44.6157 86.9453 44.7845 86.8068Q44.9533 86.6682 45.1287 86.5382Q45.3041 86.4081 45.4856 86.2868Q45.6672 86.1655 45.8545 86.0532Q46.0418 85.9409 46.2343 85.838Q46.4269 85.7351 46.6243 85.6417Q46.8217 85.5483 47.0234 85.4648Q47.2252 85.3812 47.4308 85.3077Q47.6363 85.2341 47.8453 85.1707Q48.0543 85.1073 48.2661 85.0543Q48.4779 85.0012 48.692 84.9586Q48.9062 84.916 49.1222 84.884Q49.3382 84.852 49.5555 84.8306Q49.7728 84.8092 49.9909 84.7984Q50.209 84.7877 50.4273 84.7877Z" id="Rectangle-Copy-7" fill="#CECECE" fill-rule="evenodd" stroke="none" />
    <path d="M21.4 84.7868L26.9664 84.7868Q27.1848 84.7868 27.4029 84.7975Q27.621 84.8082 27.8383 84.8296Q28.0556 84.851 28.2716 84.8831Q28.4876 84.9151 28.7017 84.9577Q28.9159 85.0003 29.1277 85.0534Q29.3395 85.1064 29.5485 85.1698Q29.7574 85.2332 29.963 85.3067Q30.1686 85.3803 30.3703 85.4639Q30.5721 85.5474 30.7695 85.6408Q30.9669 85.7342 31.1594 85.8371Q31.352 85.94 31.5393 86.0523Q31.7266 86.1646 31.9081 86.2859Q32.0897 86.4072 32.2651 86.5372Q32.4405 86.6673 32.6093 86.8058Q32.7781 86.9444 32.9398 87.091Q33.1016 87.2376 33.256 87.392Q33.4104 87.5465 33.5571 87.7082Q33.7037 87.87 33.8422 88.0388Q33.9808 88.2076 34.1108 88.383Q34.2409 88.5584 34.3622 88.7399Q34.4835 88.9215 34.5958 89.1088Q34.708 89.2961 34.811 89.4887Q34.9139 89.6812 35.0073 89.8786Q35.1006 90.076 35.1842 90.2777Q35.2678 90.4795 35.3413 90.6851Q35.4149 90.8907 35.4783 91.0996Q35.5417 91.3086 35.5947 91.5204Q35.6478 91.7322 35.6904 91.9464Q35.733 92.1605 35.765 92.3765Q35.797 92.5925 35.8185 92.8098Q35.8399 93.0271 35.8506 93.2452Q35.8613 93.4633 35.8613 93.6817L35.8613 93.6837Q35.8613 93.902 35.8506 94.1201Q35.8399 94.3382 35.8185 94.5555Q35.797 94.7728 35.765 94.9888Q35.733 95.2048 35.6904 95.419Q35.6478 95.6331 35.5947 95.845Q35.5417 96.0568 35.4783 96.2657Q35.4149 96.4747 35.3413 96.6803Q35.2678 96.8859 35.1842 97.0876Q35.1006 97.2893 35.0073 97.4867Q34.9139 97.6841 34.811 97.8767Q34.708 98.0693 34.5958 98.2565Q34.4835 98.4438 34.3622 98.6254Q34.2409 98.807 34.1108 98.9823Q33.9808 99.1577 33.8422 99.3265Q33.7037 99.4953 33.5571 99.6571Q33.4104 99.8189 33.256 99.9733Q33.1016 100.128 32.9398 100.274Q32.7781 100.421 32.6093 100.56Q32.4405 100.698 32.2651 100.828Q32.0897 100.958 31.9081 101.079Q31.7266 101.201 31.5393 101.313Q31.352 101.425 31.1594 101.528Q30.9669 101.631 30.7695 101.725Q30.5721 101.818 30.3703 101.901Q30.1686 101.985 29.963 102.059Q29.7574 102.132 29.5485 102.196Q29.3395 102.259 29.1277 102.312Q28.9159 102.365 28.7017 102.408Q28.4876 102.45 28.2716 102.482Q28.0556 102.514 27.8383 102.536Q27.621 102.557 27.4029 102.568Q27.1848 102.579 26.9664 102.579L21.4 102.579Q21.1816 102.579 20.9636 102.568Q20.7455 102.557 20.5282 102.536Q20.3108 102.514 20.0949 102.482Q19.8789 102.45 19.6647 102.408Q19.4505 102.365 19.2387 102.312Q19.0269 102.259 18.818 102.196Q18.609 102.132 18.4034 102.059Q18.1978 101.985 17.9961 101.901Q17.7943 101.818 17.597 101.725Q17.3996 101.631 17.207 101.528Q17.0144 101.425 16.8271 101.313Q16.6398 101.201 16.4583 101.079Q16.2767 100.958 16.1013 100.828Q15.9259 100.698 15.7572 100.56Q15.5884 100.421 15.4266 100.274Q15.2648 100.128 15.1104 99.9733Q14.956 99.8189 14.8093 99.6571Q14.6627 99.4953 14.5242 99.3265Q14.3856 99.1577 14.2556 98.9823Q14.1255 98.807 14.0042 98.6254Q13.8829 98.4438 13.7706 98.2565Q13.6584 98.0693 13.5554 97.8767Q13.4525 97.6841 13.3591 97.4867Q13.2658 97.2893 13.1822 97.0876Q13.0986 96.8859 13.0251 96.6803Q12.9515 96.4747 12.8881 96.2657Q12.8248 96.0568 12.7717 95.845Q12.7186 95.6331 12.676 95.419Q12.6334 95.2048 12.6014 94.9888Q12.5694 94.7728 12.548 94.5555Q12.5266 94.3382 12.5158 94.1201Q12.5051 93.902 12.5051 93.6837L12.5051 93.6817Q12.5051 93.4633 12.5158 93.2452Q12.5266 93.0271 12.548 92.8098Q12.5694 92.5925 12.6014 92.3765Q12.6334 92.1605 12.676 91.9464Q12.7186 91.7322 12.7717 91.5204Q12.8248 91.3086 12.8881 91.0996Q12.9515 90.8907 13.0251 90.6851Q13.0986 90.4795 13.1822 90.2777Q13.2658 90.076 13.3591 89.8786Q13.4525 89.6812 13.5554 89.4887Q13.6584 89.2961 13.7706 89.1088Q13.8829 88.9215 14.0042 88.7399Q14.1255 88.5584 14.2556 88.383Q14.3856 88.2076 14.5242 88.0388Q14.6627 87.87 14.8093 87.7082Q14.956 87.5465 15.1104 87.392Q15.2648 87.2376 15.4266 87.091Q15.5884 86.9444 15.7572 86.8058Q15.9259 86.6673 16.1013 86.5372Q16.2767 86.4072 16.4583 86.2859Q16.6398 86.1645 16.8271 86.0523Q17.0144 85.94 17.207 85.8371Q17.3996 85.7342 17.597 85.6408Q17.7943 85.5474 17.9961 85.4639Q18.1978 85.3803 18.4034 85.3067Q18.609 85.2332 18.818 85.1698Q19.0269 85.1064 19.2387 85.0534Q19.4505 85.0003 19.6647 84.9577Q19.8789 84.9151 20.0949 84.8831Q20.3108 84.851 20.5282 84.8296Q20.7455 84.8082 20.9636 84.7975Q21.1816 84.7868 21.4 84.7868L21.4 84.7868Z" id="Rectangle-Copy-8" fill="#1B2C61" fill-rule="evenodd" stroke="none" />
    <path d="M21.4 109.568L43.6102 109.568Q43.8286 109.568 44.0467 109.579Q44.2648 109.589 44.4821 109.611Q44.6994 109.632 44.9154 109.664Q45.1314 109.696 45.3455 109.739Q45.5597 109.781 45.7715 109.835Q45.9833 109.888 46.1923 109.951Q46.4012 110.014 46.6068 110.088Q46.8124 110.161 47.0142 110.245Q47.2159 110.329 47.4133 110.422Q47.6107 110.515 47.8033 110.618Q47.9958 110.721 48.1831 110.833Q48.3704 110.946 48.552 111.067Q48.7335 111.188 48.9089 111.318Q49.0843 111.448 49.2531 111.587Q49.4219 111.725 49.5837 111.872Q49.7455 112.019 49.8999 112.173Q50.0543 112.328 50.2009 112.489Q50.3476 112.651 50.4861 112.82Q50.6246 112.989 50.7547 113.164Q50.8847 113.34 51.0061 113.521Q51.1274 113.703 51.2396 113.89Q51.3519 114.077 51.4548 114.27Q51.5578 114.462 51.6511 114.66Q51.7445 114.857 51.828 115.059Q51.9116 115.261 51.9852 115.466Q52.0587 115.672 52.1221 115.881Q52.1855 116.09 52.2386 116.302Q52.2916 116.513 52.3342 116.728Q52.3768 116.942 52.4088 117.158Q52.4409 117.374 52.4623 117.591Q52.4837 117.808 52.4944 118.026Q52.5051 118.244 52.5051 118.463L52.5051 118.465Q52.5051 118.683 52.4944 118.901Q52.4837 119.119 52.4623 119.337Q52.4409 119.554 52.4088 119.77Q52.3768 119.986 52.3342 120.2Q52.2916 120.414 52.2386 120.626Q52.1855 120.838 52.1221 121.047Q52.0587 121.256 51.9852 121.461Q51.9116 121.667 51.828 121.869Q51.7445 122.07 51.6511 122.268Q51.5578 122.465 51.4548 122.658Q51.3519 122.85 51.2396 123.038Q51.1274 123.225 51.0061 123.407Q50.8847 123.588 50.7547 123.763Q50.6246 123.939 50.4861 124.108Q50.3476 124.276 50.2009 124.438Q50.0543 124.6 49.8999 124.754Q49.7455 124.909 49.5837 125.055Q49.4219 125.202 49.2531 125.341Q49.0843 125.479 48.9089 125.609Q48.7335 125.739 48.552 125.861Q48.3704 125.982 48.1831 126.094Q47.9958 126.206 47.8033 126.309Q47.6107 126.412 47.4133 126.506Q47.2159 126.599 47.0142 126.683Q46.8124 126.766 46.6068 126.84Q46.4012 126.913 46.1923 126.977Q45.9833 127.04 45.7715 127.093Q45.5597 127.146 45.3455 127.189Q45.1314 127.231 44.9154 127.263Q44.6994 127.295 44.4821 127.317Q44.2648 127.338 44.0467 127.349Q43.8286 127.36 43.6102 127.36L21.4 127.36Q21.1817 127.36 20.9636 127.349Q20.7455 127.338 20.5282 127.317Q20.3109 127.295 20.0949 127.263Q19.8789 127.231 19.6647 127.189Q19.4505 127.146 19.2387 127.093Q19.0269 127.04 18.818 126.977Q18.609 126.913 18.4034 126.84Q18.1978 126.766 17.9961 126.683Q17.7944 126.599 17.597 126.506Q17.3996 126.412 17.207 126.309Q17.0144 126.206 16.8271 126.094Q16.6398 125.982 16.4583 125.861Q16.2767 125.739 16.1013 125.609Q15.926 125.479 15.7572 125.341Q15.5884 125.202 15.4266 125.055Q15.2648 124.909 15.1104 124.754Q14.956 124.6 14.8093 124.438Q14.6627 124.276 14.5242 124.108Q14.3856 123.939 14.2556 123.763Q14.1255 123.588 14.0042 123.407Q13.8829 123.225 13.7706 123.038Q13.6584 122.85 13.5554 122.658Q13.4525 122.465 13.3591 122.268Q13.2658 122.07 13.1822 121.869Q13.0986 121.667 13.0251 121.461Q12.9515 121.256 12.8881 121.047Q12.8248 120.838 12.7717 120.626Q12.7186 120.414 12.676 120.2Q12.6334 119.986 12.6014 119.77Q12.5694 119.554 12.548 119.337Q12.5266 119.119 12.5158 118.901Q12.5051 118.683 12.5051 118.465L12.5051 118.463Q12.5051 118.244 12.5158 118.026Q12.5266 117.808 12.548 117.591Q12.5694 117.374 12.6014 117.158Q12.6334 116.942 12.676 116.728Q12.7186 116.513 12.7717 116.302Q12.8248 116.09 12.8881 115.881Q12.9515 115.672 13.0251 115.466Q13.0986 115.261 13.1822 115.059Q13.2658 114.857 13.3591 114.66Q13.4525 114.462 13.5554 114.27Q13.6584 114.077 13.7706 113.89Q13.8829 113.703 14.0042 113.521Q14.1255 113.34 14.2556 113.164Q14.3856 112.989 14.5242 112.82Q14.6627 112.651 14.8093 112.489Q14.956 112.328 15.1104 112.173Q15.2648 112.019 15.4266 111.872Q15.5884 111.725 15.7572 111.587Q15.926 111.448 16.1013 111.318Q16.2767 111.188 16.4583 111.067Q16.6398 110.946 16.8271 110.833Q17.0144 110.721 17.207 110.618Q17.3996 110.515 17.597 110.422Q17.7944 110.329 17.9961 110.245Q18.1978 110.161 18.4034 110.088Q18.609 110.014 18.818 109.951Q19.0269 109.888 19.2387 109.834Q19.4505 109.781 19.6647 109.739Q19.8789 109.696 20.0949 109.664Q20.3109 109.632 20.5282 109.611Q20.7455 109.589 20.9636 109.579Q21.1817 109.568 21.4 109.568Z" id="Rectangle-Copy-10" fill="#1B2C61" fill-rule="evenodd" stroke="none" />
    <path d="M10.344 0L99.5515 0Q99.8055 0 100.059 0.0124598Q100.313 0.0249195 100.565 0.049809Q100.818 0.0746985 101.069 0.111958Q101.32 0.149217 101.57 0.198756Q101.819 0.248296 102.065 0.309996Q102.311 0.371696 102.554 0.445408Q102.797 0.51912 103.036 0.604666Q103.275 0.690213 103.51 0.787388Q103.745 0.884563 103.974 0.993132Q104.204 1.1017 104.428 1.2214Q104.652 1.3411 104.869 1.47165Q105.087 1.6022 105.298 1.74327Q105.509 1.88435 105.713 2.03562Q105.917 2.18688 106.114 2.34797Q106.31 2.50906 106.498 2.67959Q106.686 2.85012 106.866 3.02968Q107.045 3.20923 107.216 3.39738Q107.386 3.58553 107.548 3.78182Q107.709 3.97812 107.86 4.18207Q108.011 4.38603 108.152 4.59717Q108.293 4.8083 108.424 5.02611Q108.554 5.24391 108.674 5.46786Q108.794 5.6918 108.902 5.92135Q109.011 6.1509 109.108 6.3855Q109.205 6.6201 109.291 6.85919Q109.376 7.09828 109.45 7.34127Q109.524 7.58427 109.585 7.83059Q109.647 8.07691 109.697 8.32596Q109.746 8.57501 109.784 8.82619Q109.821 9.07738 109.846 9.33008Q109.871 9.58279 109.883 9.83641Q109.896 10.09 109.896 10.344L109.896 20.6899L0 20.6899L0 10.344Q0 10.09 0.0124598 9.83642Q0.0249195 9.58279 0.049809 9.33008Q0.0746985 9.07738 0.111958 8.82619Q0.149217 8.57501 0.198756 8.32596Q0.248296 8.07691 0.309996 7.83059Q0.371696 7.58427 0.445408 7.34127Q0.51912 7.09828 0.604666 6.85919Q0.690213 6.6201 0.787388 6.3855Q0.884563 6.1509 0.993132 5.92135Q1.1017 5.6918 1.2214 5.46786Q1.3411 5.24391 1.47165 5.02611Q1.6022 4.8083 1.74327 4.59717Q1.88435 4.38603 2.03562 4.18207Q2.18688 3.97812 2.34797 3.78182Q2.50906 3.58553 2.67959 3.39738Q2.85012 3.20923 3.02968 3.02968Q3.20923 2.85012 3.39738 2.67959Q3.58553 2.50906 3.78182 2.34797Q3.97812 2.18688 4.18207 2.03562Q4.38603 1.88435 4.59717 1.74327Q4.8083 1.6022 5.02611 1.47165Q5.24391 1.3411 5.46786 1.2214Q5.6918 1.1017 5.92135 0.993132Q6.1509 0.884563 6.3855 0.787388Q6.6201 0.690213 6.85919 0.604666Q7.09828 0.51912 7.34127 0.445408Q7.58427 0.371696 7.83059 0.309996Q8.07691 0.248296 8.32596 0.198756Q8.57501 0.149217 8.82619 0.111958Q9.07738 0.0746985 9.33008 0.049809Q9.58279 0.0249195 9.83641 0.0124598Q10.09 0 10.344 0L10.344 0Z" id="Rectangle-7" fill="#CECECE" fill-rule="evenodd" stroke="none" />
  </g>
</svg>