<?xml version="1.0" encoding="utf-8"?>
<svg width="286.0481px" height="186.00433px" viewBox="0 0 286.0481 186.00433" version="1.1" xmlns:xlink="http://www.w3.org/1999/xlink" xmlns="http://www.w3.org/2000/svg">
  <g id="Group-36-Copy" transform="translate(2.5 2.5)">
    <path d="M19.8018 8.22348C19.8018 4.87217 22.5185 2.1554 25.8698 2.1554C29.2212 2.1554 31.9379 4.87217 31.9379 8.22348C31.9379 11.5748 29.2212 14.2916 25.8698 14.2916C22.5185 14.2916 19.8018 11.5748 19.8018 8.22348Z" id="Ellipse-9" fill="#D92222" fill-rule="evenodd" stroke="none" />
    <path d="M14.999 2.1554L266.049 2.1554Q266.417 2.1554 266.785 2.17346Q267.153 2.19153 267.519 2.22762Q267.886 2.26371 268.25 2.31774Q268.614 2.37176 268.975 2.4436Q269.336 2.51543 269.694 2.6049Q270.051 2.69436 270.403 2.80125Q270.755 2.90813 271.102 3.03218Q271.449 3.15622 271.789 3.29713Q272.129 3.43803 272.462 3.59546Q272.795 3.75289 273.12 3.92646Q273.444 4.10003 273.76 4.28932Q274.076 4.47862 274.382 4.68318Q274.688 4.88775 274.984 5.10708Q275.28 5.32642 275.564 5.56001Q275.849 5.7936 276.122 6.04087Q276.395 6.28814 276.655 6.5485Q276.915 6.80886 277.163 7.08168Q277.41 7.3545 277.644 7.63913Q277.877 7.92376 278.096 8.2195Q278.316 8.51525 278.52 8.8214Q278.725 9.12755 278.914 9.44337Q279.103 9.75919 279.277 10.0839Q279.451 10.4086 279.608 10.7415Q279.765 11.0743 279.906 11.4145Q280.047 11.7547 280.171 12.1014Q280.295 12.4481 280.402 12.8004Q280.509 13.1528 280.599 13.5099Q280.688 13.8671 280.76 14.2282Q280.832 14.5894 280.886 14.9536Q280.94 15.3178 280.976 15.6842Q281.012 16.0507 281.03 16.4184Q281.048 16.7862 281.048 17.1544L281.048 166.005Q281.048 166.374 281.03 166.741Q281.012 167.109 280.976 167.475Q280.94 167.842 280.886 168.206Q280.832 168.57 280.76 168.931Q280.688 169.293 280.599 169.65Q280.509 170.007 280.402 170.359Q280.295 170.712 280.171 171.058Q280.047 171.405 279.906 171.745Q279.765 172.085 279.608 172.418Q279.451 172.751 279.277 173.076Q279.104 173.4 278.914 173.716Q278.725 174.032 278.52 174.338Q278.316 174.644 278.096 174.94Q277.877 175.236 277.644 175.521Q277.41 175.805 277.163 176.078Q276.915 176.351 276.655 176.611Q276.395 176.872 276.122 177.119Q275.849 177.366 275.564 177.6Q275.28 177.833 274.984 178.053Q274.688 178.272 274.382 178.477Q274.076 178.681 273.76 178.87Q273.444 179.06 273.12 179.233Q272.795 179.407 272.462 179.564Q272.129 179.722 271.789 179.863Q271.449 180.003 271.102 180.127Q270.755 180.252 270.403 180.358Q270.051 180.465 269.694 180.555Q269.336 180.644 268.975 180.716Q268.614 180.788 268.25 180.842Q267.886 180.896 267.519 180.932Q267.153 180.968 266.785 180.986Q266.417 181.004 266.049 181.004L14.999 181.004Q14.6308 181.004 14.263 180.986Q13.8953 180.968 13.5288 180.932Q13.1624 180.896 12.7982 180.842Q12.434 180.788 12.0728 180.716Q11.7117 180.644 11.3545 180.555Q10.9974 180.465 10.645 180.358Q10.2927 180.252 9.94599 180.128Q9.59931 180.003 9.25913 179.863Q8.91895 179.722 8.5861 179.564Q8.25325 179.407 7.92852 179.233Q7.60379 179.06 7.28797 178.87Q6.97215 178.681 6.666 178.477Q6.35985 178.272 6.06411 178.053Q5.76836 177.833 5.48373 177.6Q5.19911 177.366 4.92629 177.119Q4.65346 176.872 4.39311 176.611Q4.13274 176.351 3.88547 176.078Q3.6382 175.805 3.40462 175.521Q3.17103 175.236 2.95169 174.94Q2.73235 174.644 2.52779 174.338Q2.32322 174.032 2.13393 173.716Q1.94463 173.401 1.77106 173.076Q1.59749 172.751 1.44006 172.418Q1.28264 172.085 1.14173 171.745Q1.00082 171.405 0.87678 171.058Q0.752736 170.712 0.645852 170.359Q0.538968 170.007 0.449501 169.65Q0.360035 169.293 0.288202 168.931Q0.216368 168.57 0.162341 168.206Q0.108315 167.842 0.0722243 167.475Q0.0361339 167.109 0.0180669 166.741Q0 166.374 0 166.005L0 17.1544Q0 16.7862 0.0180669 16.4184Q0.0361339 16.0507 0.0722243 15.6842Q0.108315 15.3178 0.162341 14.9536Q0.216368 14.5894 0.288202 14.2282Q0.360035 13.8671 0.449501 13.5099Q0.538968 13.1528 0.645852 12.8004Q0.752736 12.4481 0.87678 12.1014Q1.00082 11.7547 1.14173 11.4145Q1.28264 11.0743 1.44006 10.7415Q1.59749 10.4086 1.77106 10.0839Q1.94463 9.75919 2.13393 9.44337Q2.32322 9.12755 2.52779 8.8214Q2.73235 8.51525 2.95169 8.2195Q3.17103 7.92376 3.40462 7.63913Q3.6382 7.3545 3.88547 7.08168Q4.13274 6.80886 4.39311 6.5485Q4.65346 6.28814 4.92629 6.04087Q5.19911 5.7936 5.48373 5.56001Q5.76836 5.32642 6.06411 5.10708Q6.35985 4.88775 6.666 4.68318Q6.97215 4.47862 7.28797 4.28932Q7.60379 4.10003 7.92852 3.92646Q8.25325 3.75289 8.5861 3.59546Q8.91895 3.43803 9.25913 3.29713Q9.59931 3.15622 9.94599 3.03218Q10.2927 2.90813 10.645 2.80125Q10.9974 2.69436 11.3545 2.6049Q11.7117 2.51543 12.0728 2.4436Q12.434 2.37176 12.7982 2.31774Q13.1624 2.26371 13.5288 2.22762Q13.8953 2.19153 14.263 2.17346Q14.6308 2.1554 14.999 2.1554L14.999 2.1554Z" id="Rectangle" fill="#FFFFFF" fill-rule="evenodd" stroke="#CECECE" stroke-width="5" />
    <path d="M160.739 75.6684L240.42 75.6684Q240.697 75.6684 240.973 75.682Q241.249 75.6955 241.524 75.7226Q241.799 75.7497 242.072 75.7903Q242.346 75.8308 242.617 75.8847Q242.888 75.9387 243.156 76.0058Q243.424 76.073 243.689 76.1532Q243.953 76.2334 244.214 76.3266Q244.474 76.4197 244.729 76.5254Q244.984 76.6312 245.234 76.7494Q245.484 76.8676 245.728 76.9979Q245.972 77.1281 246.209 77.2702Q246.446 77.4123 246.676 77.5659Q246.905 77.7194 247.127 77.8841Q247.349 78.0487 247.563 78.2241Q247.777 78.3994 247.982 78.585Q248.186 78.7707 248.382 78.9661Q248.577 79.1615 248.763 79.3663Q248.949 79.5711 249.124 79.7848Q249.299 79.9985 249.464 80.2205Q249.628 80.4425 249.782 80.6723Q249.936 80.9021 250.078 81.1392Q250.22 81.3762 250.35 81.62Q250.48 81.8637 250.599 82.1136Q250.717 82.3635 250.822 82.6188Q250.928 82.8742 251.021 83.1344Q251.114 83.3946 251.195 83.6591Q251.275 83.9236 251.342 84.1917Q251.409 84.4599 251.463 84.7309Q251.517 85.002 251.558 85.2754Q251.598 85.5488 251.625 85.8239Q251.652 86.099 251.666 86.375Q251.68 86.6511 251.68 86.9275L251.68 86.9295Q251.68 87.2059 251.666 87.482Q251.652 87.758 251.625 88.0331Q251.598 88.3081 251.558 88.5815Q251.517 88.8549 251.463 89.126Q251.409 89.3971 251.342 89.6652Q251.275 89.9333 251.195 90.1978Q251.114 90.4623 251.021 90.7226Q250.928 90.9828 250.822 91.2382Q250.717 91.4935 250.599 91.7434Q250.48 91.9932 250.35 92.237Q250.22 92.4807 250.078 92.7178Q249.936 92.9549 249.782 93.1847Q249.628 93.4145 249.464 93.6365Q249.299 93.8585 249.124 94.0722Q248.949 94.2858 248.763 94.4906Q248.577 94.6954 248.382 94.8909Q248.186 95.0863 247.982 95.2719Q247.777 95.4575 247.563 95.6329Q247.349 95.8082 247.127 95.9729Q246.905 96.1375 246.676 96.2911Q246.446 96.4446 246.209 96.5867Q245.972 96.7288 245.728 96.8591Q245.484 96.9894 245.234 97.1076Q244.984 97.2258 244.729 97.3315Q244.474 97.4373 244.214 97.5304Q243.953 97.6235 243.689 97.7038Q243.424 97.784 243.156 97.8512Q242.888 97.9183 242.617 97.9722Q242.346 98.0262 242.072 98.0667Q241.799 98.1073 241.524 98.1344Q241.249 98.1615 240.973 98.175Q240.697 98.1886 240.42 98.1886L160.739 98.1886Q160.463 98.1886 160.187 98.175Q159.911 98.1615 159.636 98.1344Q159.361 98.1073 159.087 98.0667Q158.814 98.0262 158.543 97.9722Q158.272 97.9183 158.004 97.8512Q157.735 97.784 157.471 97.7038Q157.206 97.6235 156.946 97.5304Q156.686 97.4373 156.431 97.3315Q156.175 97.2258 155.925 97.1076Q155.676 96.9894 155.432 96.8591Q155.188 96.7288 154.951 96.5867Q154.714 96.4446 154.484 96.2911Q154.254 96.1375 154.032 95.9729Q153.81 95.8082 153.597 95.6329Q153.383 95.4575 153.178 95.2719Q152.973 95.0863 152.778 94.8909Q152.582 94.6954 152.397 94.4906Q152.211 94.2858 152.036 94.0722Q151.861 93.8585 151.696 93.6365Q151.531 93.4145 151.378 93.1847Q151.224 92.9549 151.082 92.7178Q150.94 92.4807 150.81 92.237Q150.679 91.9932 150.561 91.7434Q150.443 91.4935 150.337 91.2382Q150.231 90.9828 150.138 90.7226Q150.045 90.4623 149.965 90.1978Q149.885 89.9333 149.818 89.6652Q149.75 89.3971 149.697 89.126Q149.643 88.8549 149.602 88.5815Q149.562 88.3081 149.534 88.0331Q149.507 87.758 149.494 87.482Q149.48 87.2059 149.48 86.9295L149.48 86.9275Q149.48 86.6511 149.494 86.375Q149.507 86.099 149.534 85.8239Q149.562 85.5489 149.602 85.2754Q149.643 85.002 149.697 84.7309Q149.75 84.4599 149.818 84.1917Q149.885 83.9236 149.965 83.6591Q150.045 83.3946 150.138 83.1344Q150.231 82.8742 150.337 82.6188Q150.443 82.3635 150.561 82.1136Q150.679 81.8637 150.81 81.62Q150.94 81.3762 151.082 81.1392Q151.224 80.9021 151.378 80.6723Q151.531 80.4425 151.696 80.2205Q151.861 79.9985 152.036 79.7848Q152.211 79.5711 152.397 79.3663Q152.582 79.1615 152.778 78.9661Q152.973 78.7707 153.178 78.585Q153.383 78.3994 153.597 78.2241Q153.81 78.0487 154.032 77.8841Q154.254 77.7194 154.484 77.5659Q154.714 77.4123 154.951 77.2702Q155.188 77.1281 155.432 76.9979Q155.676 76.8676 155.925 76.7494Q156.175 76.6312 156.431 76.5254Q156.686 76.4197 156.946 76.3266Q157.206 76.2334 157.471 76.1532Q157.735 76.073 158.004 76.0058Q158.272 75.9387 158.543 75.8847Q158.814 75.8308 159.087 75.7903Q159.361 75.7497 159.636 75.7226Q159.911 75.6955 160.187 75.682Q160.463 75.6684 160.739 75.6684Z" id="Rectangle-Copy" fill="#CECECE" fill-rule="evenodd" stroke="none" />
    <path d="M101.975 44.2997L181.656 44.2997Q181.932 44.2997 182.208 44.3132Q182.484 44.3268 182.759 44.3539Q183.034 44.381 183.308 44.4215Q183.581 44.4621 183.852 44.516Q184.123 44.5699 184.392 44.6371Q184.66 44.7043 184.924 44.7845Q185.189 44.8647 185.449 44.9578Q185.709 45.051 185.964 45.1567Q186.22 45.2625 186.47 45.3807Q186.72 45.4988 186.963 45.6291Q187.207 45.7594 187.444 45.9015Q187.681 46.0436 187.911 46.1972Q188.141 46.3507 188.363 46.5154Q188.585 46.68 188.799 46.8554Q189.012 47.0307 189.217 47.2163Q189.422 47.402 189.617 47.5974Q189.813 47.7928 189.998 47.9976Q190.184 48.2024 190.359 48.4161Q190.535 48.6297 190.699 48.8517Q190.864 49.0737 191.017 49.3036Q191.171 49.5334 191.313 49.7704Q191.455 50.0075 191.585 50.2513Q191.716 50.495 191.834 50.7449Q191.952 50.9948 192.058 51.2501Q192.164 51.5055 192.257 51.7657Q192.35 52.0259 192.43 52.2904Q192.51 52.5549 192.577 52.823Q192.645 53.0912 192.699 53.3622Q192.752 53.6333 192.793 53.9067Q192.834 54.1801 192.861 54.4552Q192.888 54.7303 192.901 55.0063Q192.915 55.2824 192.915 55.5588L192.915 55.5608Q192.915 55.8372 192.901 56.1132Q192.888 56.3893 192.861 56.6644Q192.834 56.9394 192.793 57.2128Q192.752 57.4862 192.699 57.7573Q192.645 58.0284 192.577 58.2965Q192.51 58.5646 192.43 58.8291Q192.35 59.0936 192.257 59.3539Q192.164 59.6141 192.058 59.8694Q191.952 60.1248 191.834 60.3747Q191.716 60.6245 191.585 60.8683Q191.455 61.112 191.313 61.3491Q191.171 61.5862 191.017 61.816Q190.864 62.0458 190.699 62.2678Q190.535 62.4898 190.359 62.7035Q190.184 62.9171 189.998 63.1219Q189.813 63.3267 189.617 63.5222Q189.422 63.7176 189.217 63.9032Q189.012 64.0888 188.798 64.2642Q188.585 64.4395 188.363 64.6042Q188.141 64.7688 187.911 64.9224Q187.681 65.0759 187.444 65.218Q187.207 65.3601 186.963 65.4904Q186.72 65.6207 186.47 65.7389Q186.22 65.8571 185.964 65.9628Q185.709 66.0686 185.449 66.1617Q185.189 66.2548 184.924 66.3351Q184.66 66.4153 184.392 66.4825Q184.123 66.5496 183.852 66.6035Q183.581 66.6575 183.308 66.698Q183.034 66.7386 182.759 66.7657Q182.484 66.7928 182.208 66.8063Q181.932 66.8199 181.656 66.8199L101.975 66.8199Q101.698 66.8199 101.422 66.8063Q101.146 66.7928 100.871 66.7657Q100.596 66.7386 100.323 66.698Q100.049 66.6575 99.7781 66.6035Q99.507 66.5496 99.2389 66.4825Q98.9708 66.4153 98.7063 66.3351Q98.4418 66.2548 98.1816 66.1617Q97.9214 66.0686 97.666 65.9628Q97.4106 65.8571 97.1608 65.7389Q96.9109 65.6207 96.6672 65.4904Q96.4234 65.3601 96.1863 65.218Q95.9493 65.0759 95.7194 64.9224Q95.4896 64.7688 95.2676 64.6042Q95.0456 64.4395 94.832 64.2642Q94.6183 64.0888 94.4135 63.9032Q94.2087 63.7176 94.0133 63.5222Q93.8178 63.3267 93.6322 63.1219Q93.4466 62.9171 93.2713 62.7035Q93.0959 62.4898 92.9313 62.2678Q92.7666 62.0458 92.6131 61.816Q92.4595 61.5862 92.3174 61.3491Q92.1753 61.112 92.045 60.8683Q91.9147 60.6245 91.7965 60.3747Q91.6784 60.1248 91.5726 59.8695Q91.4668 59.6141 91.3737 59.3539Q91.2806 59.0936 91.2004 58.8291Q91.1201 58.5646 91.053 58.2965Q90.9858 58.0284 90.9319 57.7573Q90.878 57.4862 90.8374 57.2128Q90.7969 56.9394 90.7698 56.6644Q90.7427 56.3893 90.7291 56.1132Q90.7156 55.8372 90.7156 55.5608L90.7156 55.5588Q90.7156 55.2824 90.7291 55.0063Q90.7427 54.7303 90.7698 54.4552Q90.7969 54.1801 90.8374 53.9067Q90.878 53.6333 90.9319 53.3622Q90.9858 53.0912 91.053 52.823Q91.1201 52.5549 91.2004 52.2904Q91.2806 52.0259 91.3737 51.7657Q91.4668 51.5055 91.5726 51.2501Q91.6784 50.9948 91.7966 50.7449Q91.9147 50.495 92.045 50.2513Q92.1753 50.0075 92.3174 49.7704Q92.4595 49.5334 92.6131 49.3036Q92.7666 49.0737 92.9313 48.8517Q93.0959 48.6297 93.2713 48.4161Q93.4466 48.2024 93.6322 47.9976Q93.8178 47.7928 94.0133 47.5974Q94.2087 47.402 94.4135 47.2163Q94.6183 47.0307 94.832 46.8554Q95.0456 46.68 95.2676 46.5154Q95.4896 46.3507 95.7194 46.1972Q95.9493 46.0436 96.1863 45.9015Q96.4234 45.7594 96.6672 45.6291Q96.9109 45.4988 97.1608 45.3807Q97.4106 45.2625 97.666 45.1567Q97.9214 45.0509 98.1816 44.9578Q98.4418 44.8647 98.7063 44.7845Q98.9708 44.7043 99.2389 44.6371Q99.507 44.5699 99.7781 44.516Q100.049 44.4621 100.323 44.4215Q100.596 44.381 100.871 44.3539Q101.146 44.3268 101.422 44.3132Q101.698 44.2997 101.975 44.2997Z" id="Rectangle-Copy-2" fill="#1B2C61" fill-rule="evenodd" stroke="none" />
    <path d="M43.2093 44.2997L64.1258 44.2997Q64.4022 44.2997 64.6783 44.3132Q64.9543 44.3268 65.2294 44.3539Q65.5045 44.381 65.7779 44.4215Q66.0513 44.4621 66.3224 44.516Q66.5934 44.5699 66.8615 44.6371Q67.1297 44.7043 67.3941 44.7845Q67.6586 44.8647 67.9189 44.9578Q68.1791 45.051 68.4345 45.1567Q68.6898 45.2625 68.9397 45.3807Q69.1896 45.4988 69.4333 45.6291Q69.6771 45.7594 69.9141 45.9015Q70.1512 46.0436 70.381 46.1972Q70.6108 46.3507 70.8328 46.5154Q71.0548 46.68 71.2685 46.8554Q71.4822 47.0307 71.687 47.2163Q71.8918 47.402 72.0872 47.5974Q72.2826 47.7928 72.4682 47.9976Q72.6539 48.2024 72.8292 48.4161Q73.0045 48.6297 73.1692 48.8517Q73.3338 49.0737 73.4874 49.3036Q73.641 49.5334 73.7831 49.7704Q73.9252 50.0075 74.0555 50.2513Q74.1857 50.495 74.3039 50.7449Q74.4221 50.9948 74.5279 51.2501Q74.6336 51.5055 74.7268 51.7657Q74.8199 52.0259 74.9001 52.2904Q74.9803 52.5549 75.0475 52.823Q75.1146 53.0912 75.1686 53.3622Q75.2225 53.6333 75.2631 53.9067Q75.3036 54.1801 75.3307 54.4552Q75.3578 54.7303 75.3714 55.0063Q75.3849 55.2824 75.3849 55.5588L75.3849 55.5608Q75.3849 55.8372 75.3714 56.1132Q75.3578 56.3893 75.3307 56.6644Q75.3036 56.9394 75.2631 57.2128Q75.2225 57.4862 75.1686 57.7573Q75.1146 58.0284 75.0475 58.2965Q74.9803 58.5646 74.9001 58.8291Q74.8199 59.0936 74.7268 59.3539Q74.6336 59.6141 74.5279 59.8694Q74.4221 60.1248 74.3039 60.3747Q74.1857 60.6245 74.0555 60.8683Q73.9252 61.112 73.7831 61.3491Q73.641 61.5862 73.4874 61.816Q73.3339 62.0458 73.1692 62.2678Q73.0046 62.4898 72.8292 62.7035Q72.6539 62.9171 72.4683 63.1219Q72.2826 63.3267 72.0872 63.5222Q71.8918 63.7176 71.687 63.9032Q71.4822 64.0888 71.2685 64.2642Q71.0549 64.4395 70.8328 64.6042Q70.6108 64.7688 70.381 64.9224Q70.1512 65.0759 69.9141 65.218Q69.6771 65.3601 69.4333 65.4904Q69.1896 65.6207 68.9397 65.7389Q68.6898 65.8571 68.4345 65.9628Q68.1791 66.0686 67.9189 66.1617Q67.6587 66.2548 67.3942 66.3351Q67.1297 66.4153 66.8615 66.4825Q66.5934 66.5496 66.3224 66.6035Q66.0513 66.6575 65.7779 66.698Q65.5045 66.7386 65.2294 66.7657Q64.9543 66.7928 64.6783 66.8063Q64.4022 66.8199 64.1258 66.8199L43.2093 66.8199Q42.9329 66.8199 42.6568 66.8063Q42.3808 66.7928 42.1057 66.7657Q41.8307 66.7386 41.5572 66.698Q41.2838 66.6575 41.0128 66.6035Q40.7417 66.5496 40.4736 66.4825Q40.2054 66.4153 39.941 66.3351Q39.6765 66.2548 39.4162 66.1617Q39.156 66.0686 38.9006 65.9628Q38.6453 65.8571 38.3954 65.7389Q38.1455 65.6207 37.9018 65.4904Q37.658 65.3601 37.421 65.218Q37.1839 65.0759 36.9541 64.9224Q36.7243 64.7688 36.5023 64.6042Q36.2803 64.4395 36.0666 64.2642Q35.8529 64.0888 35.6481 63.9032Q35.4433 63.7176 35.2479 63.5222Q35.0525 63.3267 34.8668 63.1219Q34.6812 62.9171 34.5059 62.7035Q34.3305 62.4898 34.1659 62.2678Q34.0012 62.0458 33.8477 61.816Q33.6941 61.5862 33.552 61.3491Q33.4099 61.112 33.2797 60.8683Q33.1494 60.6245 33.0312 60.3747Q32.913 60.1248 32.8072 59.8695Q32.7015 59.6141 32.6084 59.3539Q32.5152 59.0936 32.435 58.8291Q32.3548 58.5646 32.2876 58.2965Q32.2205 58.0284 32.1665 57.7573Q32.1126 57.4862 32.0721 57.2128Q32.0315 56.9394 32.0044 56.6644Q31.9773 56.3893 31.9638 56.1132Q31.9502 55.8372 31.9502 55.5608L31.9502 55.5588Q31.9502 55.2824 31.9638 55.0063Q31.9773 54.7303 32.0044 54.4552Q32.0315 54.1801 32.0721 53.9067Q32.1126 53.6333 32.1665 53.3622Q32.2205 53.0912 32.2876 52.823Q32.3548 52.5549 32.435 52.2904Q32.5152 52.0259 32.6084 51.7657Q32.7015 51.5055 32.8072 51.2501Q32.913 50.9948 33.0312 50.7449Q33.1494 50.495 33.2797 50.2513Q33.4099 50.0075 33.552 49.7704Q33.6941 49.5334 33.8477 49.3036Q34.0013 49.0737 34.1659 48.8517Q34.3306 48.6297 34.5059 48.4161Q34.6812 48.2024 34.8669 47.9976Q35.0525 47.7928 35.2479 47.5974Q35.4434 47.402 35.6481 47.2163Q35.8529 47.0307 36.0666 46.8554Q36.2803 46.68 36.5023 46.5154Q36.7243 46.3507 36.9541 46.1972Q37.1839 46.0436 37.421 45.9015Q37.658 45.7594 37.9018 45.6291Q38.1455 45.4988 38.3954 45.3807Q38.6453 45.2625 38.9006 45.1567Q39.156 45.0509 39.4162 44.9578Q39.6765 44.8647 39.941 44.7845Q40.2054 44.7043 40.4736 44.6371Q40.7417 44.5699 41.0128 44.516Q41.2838 44.4621 41.5572 44.4215Q41.8306 44.381 42.1057 44.3539Q42.3808 44.3268 42.6568 44.3132Q42.9329 44.2997 43.2093 44.2997Z" id="Rectangle-Copy-4" fill="#CECECE" fill-rule="evenodd" stroke="none" />
    <path d="M219.504 44.2997L240.421 44.2997Q240.697 44.2997 240.973 44.3132Q241.249 44.3268 241.524 44.3539Q241.799 44.381 242.073 44.4215Q242.346 44.4621 242.617 44.516Q242.888 44.5699 243.156 44.6371Q243.425 44.7043 243.689 44.7845Q243.954 44.8647 244.214 44.9578Q244.474 45.051 244.729 45.1567Q244.985 45.2625 245.235 45.3807Q245.484 45.4988 245.728 45.6291Q245.972 45.7594 246.209 45.9015Q246.446 46.0436 246.676 46.1972Q246.906 46.3507 247.128 46.5154Q247.35 46.68 247.563 46.8554Q247.777 47.0307 247.982 47.2163Q248.187 47.402 248.382 47.5974Q248.578 47.7928 248.763 47.9976Q248.949 48.2024 249.124 48.4161Q249.299 48.6297 249.464 48.8517Q249.629 49.0737 249.782 49.3036Q249.936 49.5334 250.078 49.7704Q250.22 50.0075 250.35 50.2513Q250.481 50.495 250.599 50.7449Q250.717 50.9948 250.823 51.2501Q250.929 51.5055 251.022 51.7657Q251.115 52.0259 251.195 52.2904Q251.275 52.5549 251.342 52.823Q251.41 53.0912 251.463 53.3622Q251.517 53.6333 251.558 53.9067Q251.598 54.1801 251.626 54.4552Q251.653 54.7303 251.666 55.0063Q251.68 55.2824 251.68 55.5588L251.68 55.5608Q251.68 55.8372 251.666 56.1132Q251.653 56.3893 251.626 56.6644Q251.598 56.9394 251.558 57.2128Q251.517 57.4862 251.463 57.7573Q251.41 58.0284 251.342 58.2965Q251.275 58.5646 251.195 58.8291Q251.115 59.0936 251.022 59.3539Q250.929 59.6141 250.823 59.8694Q250.717 60.1248 250.599 60.3747Q250.481 60.6245 250.35 60.8683Q250.22 61.112 250.078 61.3491Q249.936 61.5862 249.782 61.816Q249.629 62.0458 249.464 62.2678Q249.299 62.4898 249.124 62.7035Q248.949 62.9171 248.763 63.1219Q248.578 63.3267 248.382 63.5222Q248.187 63.7176 247.982 63.9032Q247.777 64.0888 247.563 64.2642Q247.35 64.4395 247.128 64.6042Q246.906 64.7688 246.676 64.9224Q246.446 65.0759 246.209 65.218Q245.972 65.3601 245.728 65.4904Q245.484 65.6207 245.235 65.7389Q244.985 65.8571 244.729 65.9628Q244.474 66.0686 244.214 66.1617Q243.954 66.2548 243.689 66.3351Q243.425 66.4153 243.156 66.4825Q242.888 66.5496 242.617 66.6035Q242.346 66.6575 242.073 66.698Q241.799 66.7386 241.524 66.7657Q241.249 66.7928 240.973 66.8063Q240.697 66.8199 240.421 66.8199L219.504 66.8199Q219.228 66.8199 218.952 66.8063Q218.676 66.7928 218.401 66.7657Q218.126 66.7386 217.852 66.698Q217.579 66.6575 217.308 66.6035Q217.037 66.5496 216.768 66.4825Q216.5 66.4153 216.236 66.3351Q215.971 66.2548 215.711 66.1617Q215.451 66.0686 215.196 65.9628Q214.94 65.8571 214.69 65.7389Q214.44 65.6207 214.197 65.4904Q213.953 65.3601 213.716 65.218Q213.479 65.0759 213.249 64.9224Q213.019 64.7688 212.797 64.6042Q212.575 64.4395 212.362 64.2642Q212.148 64.0888 211.943 63.9032Q211.738 63.7176 211.543 63.5222Q211.347 63.3267 211.162 63.1219Q210.976 62.9171 210.801 62.7035Q210.625 62.4898 210.461 62.2678Q210.296 62.0458 210.143 61.816Q209.989 61.5862 209.847 61.3491Q209.705 61.112 209.575 60.8683Q209.444 60.6245 209.326 60.3747Q209.208 60.1248 209.102 59.8695Q208.996 59.6141 208.903 59.3539Q208.81 59.0936 208.73 58.8291Q208.65 58.5646 208.583 58.2965Q208.515 58.0284 208.461 57.7573Q208.408 57.4862 208.367 57.2128Q208.326 56.9394 208.299 56.6644Q208.272 56.3893 208.259 56.1132Q208.245 55.8372 208.245 55.5608L208.245 55.5588Q208.245 55.2824 208.259 55.0063Q208.272 54.7303 208.299 54.4552Q208.326 54.1801 208.367 53.9067Q208.408 53.6333 208.461 53.3622Q208.515 53.0912 208.583 52.823Q208.65 52.5549 208.73 52.2904Q208.81 52.0259 208.903 51.7657Q208.996 51.5055 209.102 51.2501Q209.208 50.9948 209.326 50.7449Q209.444 50.495 209.575 50.2513Q209.705 50.0075 209.847 49.7704Q209.989 49.5334 210.143 49.3036Q210.296 49.0737 210.461 48.8517Q210.625 48.6297 210.801 48.4161Q210.976 48.2024 211.162 47.9976Q211.347 47.7928 211.543 47.5974Q211.738 47.402 211.943 47.2163Q212.148 47.0307 212.362 46.8554Q212.575 46.68 212.797 46.5154Q213.019 46.3507 213.249 46.1972Q213.479 46.0436 213.716 45.9015Q213.953 45.7594 214.197 45.6291Q214.44 45.4988 214.69 45.3807Q214.94 45.2625 215.196 45.1567Q215.451 45.0509 215.711 44.9578Q215.971 44.8647 216.236 44.7845Q216.5 44.7043 216.768 44.6371Q217.037 44.5699 217.308 44.516Q217.579 44.4621 217.852 44.4215Q218.126 44.381 218.401 44.3539Q218.676 44.3268 218.952 44.3132Q219.228 44.2997 219.504 44.2997Z" id="Rectangle-Copy-5" fill="#1B2C61" fill-rule="evenodd" stroke="none" />
    <path d="M43.2093 75.6684L122.89 75.6684Q123.167 75.6684 123.443 75.682Q123.719 75.6955 123.994 75.7226Q124.269 75.7497 124.542 75.7903Q124.816 75.8308 125.087 75.8847Q125.358 75.9387 125.626 76.0058Q125.894 76.073 126.159 76.1532Q126.423 76.2334 126.683 76.3266Q126.944 76.4197 127.199 76.5254Q127.454 76.6312 127.704 76.7494Q127.954 76.8676 128.198 76.9979Q128.442 77.1281 128.679 77.2702Q128.916 77.4123 129.146 77.5659Q129.375 77.7194 129.597 77.8841Q129.819 78.0487 130.033 78.2241Q130.247 78.3994 130.452 78.585Q130.656 78.7707 130.852 78.9661Q131.047 79.1615 131.233 79.3663Q131.418 79.5711 131.594 79.7848Q131.769 79.9985 131.934 80.2205Q132.098 80.4425 132.252 80.6723Q132.406 80.9021 132.548 81.1392Q132.69 81.3762 132.82 81.62Q132.95 81.8637 133.069 82.1136Q133.187 82.3635 133.292 82.6188Q133.398 82.8742 133.491 83.1344Q133.584 83.3946 133.665 83.6591Q133.745 83.9236 133.812 84.1917Q133.879 84.4599 133.933 84.7309Q133.987 85.002 134.028 85.2754Q134.068 85.5488 134.095 85.8239Q134.122 86.099 134.136 86.375Q134.15 86.6511 134.15 86.9275L134.15 86.9295Q134.15 87.2059 134.136 87.482Q134.122 87.758 134.095 88.0331Q134.068 88.3081 134.028 88.5815Q133.987 88.8549 133.933 89.126Q133.879 89.3971 133.812 89.6652Q133.745 89.9333 133.665 90.1978Q133.584 90.4623 133.491 90.7226Q133.398 90.9828 133.292 91.2382Q133.187 91.4935 133.069 91.7434Q132.95 91.9932 132.82 92.237Q132.69 92.4807 132.548 92.7178Q132.406 92.9549 132.252 93.1847Q132.098 93.4145 131.934 93.6365Q131.769 93.8585 131.594 94.0722Q131.418 94.2858 131.233 94.4906Q131.047 94.6954 130.852 94.8909Q130.656 95.0863 130.452 95.2719Q130.247 95.4575 130.033 95.6329Q129.819 95.8082 129.597 95.9729Q129.375 96.1375 129.146 96.2911Q128.916 96.4446 128.679 96.5867Q128.442 96.7288 128.198 96.8591Q127.954 96.9894 127.704 97.1076Q127.454 97.2258 127.199 97.3315Q126.944 97.4373 126.683 97.5304Q126.423 97.6235 126.159 97.7038Q125.894 97.784 125.626 97.8512Q125.358 97.9183 125.087 97.9722Q124.816 98.0262 124.542 98.0667Q124.269 98.1073 123.994 98.1344Q123.719 98.1615 123.443 98.175Q123.167 98.1886 122.89 98.1886L43.2093 98.1886Q42.9329 98.1886 42.6568 98.175Q42.3808 98.1615 42.1057 98.1344Q41.8306 98.1073 41.5572 98.0667Q41.2838 98.0262 41.0127 97.9722Q40.7417 97.9183 40.4736 97.8512Q40.2054 97.784 39.9409 97.7038Q39.6765 97.6235 39.4162 97.5304Q39.156 97.4373 38.9006 97.3315Q38.6453 97.2258 38.3954 97.1076Q38.1455 96.9894 37.9018 96.8591Q37.658 96.7288 37.421 96.5867Q37.1839 96.4446 36.9541 96.2911Q36.7243 96.1375 36.5023 95.9729Q36.2803 95.8082 36.0666 95.6329Q35.8529 95.4575 35.6481 95.2719Q35.4433 95.0863 35.2479 94.8909Q35.0525 94.6954 34.8668 94.4906Q34.6812 94.2858 34.5059 94.0722Q34.3305 93.8585 34.1659 93.6365Q34.0012 93.4145 33.8477 93.1847Q33.6941 92.9549 33.552 92.7178Q33.4099 92.4807 33.2797 92.237Q33.1494 91.9932 33.0312 91.7434Q32.913 91.4935 32.8072 91.2382Q32.7015 90.9828 32.6084 90.7226Q32.5152 90.4623 32.435 90.1978Q32.3548 89.9333 32.2876 89.6652Q32.2205 89.3971 32.1665 89.126Q32.1126 88.8549 32.0721 88.5815Q32.0315 88.3081 32.0044 88.0331Q31.9773 87.758 31.9638 87.482Q31.9502 87.2059 31.9502 86.9295L31.9502 86.9275Q31.9502 86.6511 31.9638 86.375Q31.9773 86.099 32.0044 85.8239Q32.0315 85.5489 32.0721 85.2754Q32.1126 85.002 32.1665 84.7309Q32.2205 84.4599 32.2876 84.1917Q32.3548 83.9236 32.435 83.6591Q32.5152 83.3946 32.6084 83.1344Q32.7015 82.8742 32.8072 82.6188Q32.913 82.3635 33.0312 82.1136Q33.1494 81.8637 33.2797 81.62Q33.4099 81.3762 33.552 81.1392Q33.6941 80.9021 33.8477 80.6723Q34.0013 80.4425 34.1659 80.2205Q34.3305 79.9985 34.5059 79.7848Q34.6812 79.5711 34.8668 79.3663Q35.0525 79.1615 35.2479 78.9661Q35.4433 78.7707 35.6481 78.585Q35.8529 78.3994 36.0666 78.2241Q36.2803 78.0487 36.5023 77.8841Q36.7243 77.7194 36.9541 77.5659Q37.1839 77.4123 37.421 77.2702Q37.658 77.1281 37.9018 76.9979Q38.1455 76.8676 38.3954 76.7494Q38.6453 76.6312 38.9006 76.5254Q39.156 76.4197 39.4162 76.3266Q39.6765 76.2334 39.9409 76.1532Q40.2054 76.073 40.4736 76.0058Q40.7417 75.9387 41.0127 75.8847Q41.2838 75.8308 41.5572 75.7903Q41.8306 75.7497 42.1057 75.7226Q42.3808 75.6955 42.6568 75.682Q42.9329 75.6684 43.2093 75.6684Z" id="Rectangle-Copy-3" fill="#1B2C61" fill-rule="evenodd" stroke="none" />
    <path d="M159.451 137.825L239.133 137.825Q239.409 137.825 239.685 137.838Q239.961 137.852 240.236 137.879Q240.511 137.906 240.785 137.947Q241.058 137.987 241.329 138.041Q241.6 138.095 241.868 138.162Q242.136 138.229 242.401 138.31Q242.665 138.39 242.926 138.483Q243.186 138.576 243.441 138.682Q243.697 138.788 243.946 138.906Q244.196 139.024 244.44 139.154Q244.684 139.285 244.921 139.427Q245.158 139.569 245.388 139.722Q245.618 139.876 245.84 140.041Q246.062 140.205 246.275 140.381Q246.489 140.556 246.694 140.741Q246.899 140.927 247.094 141.123Q247.289 141.318 247.475 141.523Q247.661 141.728 247.836 141.941Q248.011 142.155 248.176 142.377Q248.341 142.599 248.494 142.829Q248.648 143.059 248.79 143.296Q248.932 143.533 249.062 143.776Q249.192 144.02 249.311 144.27Q249.429 144.52 249.535 144.775Q249.64 145.031 249.734 145.291Q249.827 145.551 249.907 145.816Q249.987 146.08 250.054 146.348Q250.121 146.616 250.175 146.887Q250.229 147.158 250.27 147.432Q250.31 147.705 250.337 147.98Q250.365 148.255 250.378 148.531Q250.392 148.808 250.392 149.084L250.392 149.086Q250.392 149.362 250.378 149.638Q250.365 149.914 250.337 150.19Q250.31 150.465 250.27 150.738Q250.229 151.011 250.175 151.282Q250.121 151.554 250.054 151.822Q249.987 152.09 249.907 152.354Q249.827 152.619 249.734 152.879Q249.64 153.139 249.535 153.395Q249.429 153.65 249.311 153.9Q249.192 154.15 249.062 154.393Q248.932 154.637 248.79 154.874Q248.648 155.111 248.494 155.341Q248.341 155.571 248.176 155.793Q248.011 156.015 247.836 156.229Q247.661 156.442 247.475 156.647Q247.289 156.852 247.094 157.047Q246.899 157.243 246.694 157.428Q246.489 157.614 246.275 157.789Q246.062 157.965 245.84 158.129Q245.618 158.294 245.388 158.448Q245.158 158.601 244.921 158.743Q244.684 158.885 244.44 159.016Q244.196 159.146 243.946 159.264Q243.697 159.382 243.441 159.488Q243.186 159.594 242.926 159.687Q242.665 159.78 242.401 159.86Q242.136 159.94 241.868 160.008Q241.6 160.075 241.329 160.129Q241.058 160.183 240.785 160.223Q240.511 160.264 240.236 160.291Q239.961 160.318 239.685 160.331Q239.409 160.345 239.133 160.345L159.451 160.345Q159.175 160.345 158.899 160.331Q158.623 160.318 158.348 160.291Q158.073 160.264 157.799 160.223Q157.526 160.183 157.255 160.129Q156.984 160.075 156.716 160.008Q156.448 159.94 156.183 159.86Q155.919 159.78 155.658 159.687Q155.398 159.594 155.143 159.488Q154.887 159.382 154.638 159.264Q154.388 159.146 154.144 159.016Q153.9 158.885 153.663 158.743Q153.426 158.601 153.196 158.448Q152.966 158.294 152.744 158.129Q152.522 157.965 152.309 157.789Q152.095 157.614 151.89 157.428Q151.686 157.243 151.49 157.047Q151.295 156.852 151.109 156.647Q150.923 156.442 150.748 156.229Q150.573 156.015 150.408 155.793Q150.243 155.571 150.09 155.341Q149.936 155.111 149.794 154.874Q149.652 154.637 149.522 154.393Q149.392 154.15 149.273 153.9Q149.155 153.65 149.049 153.395Q148.944 153.139 148.851 152.879Q148.757 152.619 148.677 152.354Q148.597 152.09 148.53 151.822Q148.463 151.554 148.409 151.282Q148.355 151.011 148.314 150.738Q148.274 150.465 148.247 150.19Q148.22 149.914 148.206 149.638Q148.192 149.362 148.192 149.086L148.192 149.084Q148.192 148.808 148.206 148.531Q148.22 148.255 148.247 147.98Q148.274 147.705 148.314 147.432Q148.355 147.158 148.409 146.887Q148.463 146.616 148.53 146.348Q148.597 146.08 148.677 145.816Q148.757 145.551 148.851 145.291Q148.944 145.031 149.049 144.775Q149.155 144.52 149.273 144.27Q149.392 144.02 149.522 143.776Q149.652 143.533 149.794 143.296Q149.936 143.059 150.09 142.829Q150.243 142.599 150.408 142.377Q150.573 142.155 150.748 141.941Q150.923 141.728 151.109 141.523Q151.295 141.318 151.49 141.123Q151.686 140.927 151.89 140.741Q152.095 140.556 152.309 140.381Q152.522 140.205 152.744 140.041Q152.966 139.876 153.196 139.722Q153.426 139.569 153.663 139.427Q153.9 139.285 154.144 139.154Q154.388 139.024 154.638 138.906Q154.887 138.788 155.143 138.682Q155.398 138.576 155.658 138.483Q155.919 138.39 156.183 138.31Q156.448 138.229 156.716 138.162Q156.984 138.095 157.255 138.041Q157.526 137.987 157.799 137.947Q158.073 137.906 158.348 137.879Q158.623 137.852 158.899 137.838Q159.175 137.825 159.451 137.825Z" id="Rectangle-Copy-6" fill="#CECECE" fill-rule="evenodd" stroke="none" />
    <path d="M101.975 107.304L181.656 107.304Q181.932 107.304 182.208 107.318Q182.484 107.331 182.759 107.358Q183.034 107.385 183.308 107.426Q183.581 107.466 183.852 107.52Q184.123 107.574 184.392 107.641Q184.66 107.709 184.924 107.789Q185.189 107.869 185.449 107.962Q185.709 108.055 185.964 108.161Q186.22 108.267 186.47 108.385Q186.72 108.503 186.963 108.634Q187.207 108.764 187.444 108.906Q187.681 109.048 187.911 109.202Q188.141 109.355 188.363 109.52Q188.585 109.684 188.799 109.86Q189.012 110.035 189.217 110.221Q189.422 110.406 189.617 110.602Q189.813 110.797 189.998 111.002Q190.184 111.207 190.359 111.42Q190.535 111.634 190.699 111.856Q190.864 112.078 191.017 112.308Q191.171 112.538 191.313 112.775Q191.455 113.012 191.585 113.256Q191.716 113.499 191.834 113.749Q191.952 113.999 192.058 114.254Q192.164 114.51 192.257 114.77Q192.35 115.03 192.43 115.295Q192.51 115.559 192.577 115.827Q192.645 116.096 192.699 116.367Q192.752 116.638 192.793 116.911Q192.834 117.185 192.861 117.46Q192.888 117.735 192.901 118.011Q192.915 118.287 192.915 118.563L192.915 118.565Q192.915 118.842 192.901 119.118Q192.888 119.394 192.861 119.669Q192.834 119.944 192.793 120.217Q192.752 120.491 192.699 120.762Q192.645 121.033 192.577 121.301Q192.51 121.569 192.43 121.834Q192.35 122.098 192.257 122.358Q192.164 122.618 192.058 122.874Q191.952 123.129 191.834 123.379Q191.716 123.629 191.585 123.873Q191.455 124.116 191.313 124.353Q191.171 124.591 191.017 124.82Q190.864 125.05 190.699 125.272Q190.535 125.494 190.359 125.708Q190.184 125.922 189.998 126.126Q189.813 126.331 189.617 126.527Q189.422 126.722 189.217 126.908Q189.012 127.093 188.799 127.269Q188.585 127.444 188.363 127.609Q188.141 127.773 187.911 127.927Q187.681 128.08 187.444 128.222Q187.207 128.365 186.963 128.495Q186.72 128.625 186.47 128.743Q186.22 128.861 185.964 128.967Q185.709 129.073 185.449 129.166Q185.189 129.259 184.924 129.339Q184.66 129.42 184.392 129.487Q184.123 129.554 183.852 129.608Q183.581 129.662 183.308 129.702Q183.034 129.743 182.759 129.77Q182.484 129.797 182.208 129.811Q181.932 129.824 181.656 129.824L101.975 129.824Q101.698 129.824 101.422 129.811Q101.146 129.797 100.871 129.77Q100.596 129.743 100.323 129.702Q100.049 129.662 99.7781 129.608Q99.507 129.554 99.2389 129.487Q98.9708 129.42 98.7063 129.339Q98.4418 129.259 98.1816 129.166Q97.9214 129.073 97.666 128.967Q97.4106 128.861 97.1608 128.743Q96.9109 128.625 96.6672 128.495Q96.4234 128.365 96.1863 128.222Q95.9493 128.08 95.7194 127.927Q95.4896 127.773 95.2676 127.609Q95.0456 127.444 94.832 127.269Q94.6183 127.093 94.4135 126.908Q94.2087 126.722 94.0133 126.527Q93.8178 126.331 93.6322 126.126Q93.4466 125.922 93.2713 125.708Q93.0959 125.494 92.9313 125.272Q92.7666 125.05 92.6131 124.82Q92.4595 124.591 92.3174 124.354Q92.1753 124.116 92.045 123.873Q91.9147 123.629 91.7965 123.379Q91.6784 123.129 91.5726 122.874Q91.4668 122.618 91.3737 122.358Q91.2806 122.098 91.2004 121.834Q91.1201 121.569 91.053 121.301Q90.9858 121.033 90.9319 120.762Q90.878 120.491 90.8374 120.217Q90.7969 119.944 90.7698 119.669Q90.7427 119.394 90.7291 119.118Q90.7156 118.842 90.7156 118.565L90.7156 118.563Q90.7156 118.287 90.7291 118.011Q90.7427 117.735 90.7698 117.46Q90.7969 117.185 90.8374 116.911Q90.878 116.638 90.9319 116.367Q90.9858 116.096 91.053 115.827Q91.1201 115.559 91.2004 115.295Q91.2806 115.03 91.3737 114.77Q91.4668 114.51 91.5726 114.254Q91.6784 113.999 91.7966 113.749Q91.9147 113.499 92.045 113.256Q92.1753 113.012 92.3174 112.775Q92.4595 112.538 92.6131 112.308Q92.7666 112.078 92.9313 111.856Q93.0959 111.634 93.2713 111.42Q93.4466 111.207 93.6322 111.002Q93.8178 110.797 94.0133 110.602Q94.2087 110.406 94.4135 110.221Q94.6183 110.035 94.832 109.86Q95.0456 109.684 95.2676 109.52Q95.4896 109.355 95.7194 109.202Q95.9493 109.048 96.1863 108.906Q96.4234 108.764 96.6672 108.634Q96.9109 108.503 97.1608 108.385Q97.4106 108.267 97.666 108.161Q97.9214 108.055 98.1816 107.962Q98.4418 107.869 98.7063 107.789Q98.9708 107.709 99.2389 107.641Q99.507 107.574 99.7781 107.52Q100.049 107.466 100.323 107.426Q100.596 107.385 100.871 107.358Q101.146 107.331 101.422 107.318Q101.698 107.304 101.975 107.304Z" id="Rectangle-Copy-7" fill="#CECECE" fill-rule="evenodd" stroke="none" />
    <path d="M43.2093 107.304L64.1258 107.304Q64.4022 107.304 64.6783 107.318Q64.9543 107.331 65.2294 107.358Q65.5045 107.385 65.7779 107.426Q66.0513 107.466 66.3224 107.52Q66.5935 107.574 66.8616 107.641Q67.1297 107.709 67.3942 107.789Q67.6587 107.869 67.9189 107.962Q68.1791 108.055 68.4345 108.161Q68.6898 108.267 68.9397 108.385Q69.1896 108.503 69.4333 108.634Q69.6771 108.764 69.9142 108.906Q70.1512 109.048 70.381 109.202Q70.6109 109.355 70.8329 109.52Q71.0549 109.684 71.2685 109.86Q71.4822 110.035 71.687 110.221Q71.8918 110.406 72.0872 110.602Q72.2826 110.797 72.4683 111.002Q72.6539 111.207 72.8292 111.42Q73.0046 111.634 73.1692 111.856Q73.3339 112.078 73.4874 112.308Q73.641 112.538 73.7831 112.775Q73.9252 113.012 74.0555 113.256Q74.1857 113.499 74.3039 113.749Q74.4221 113.999 74.5279 114.254Q74.6336 114.51 74.7268 114.77Q74.8199 115.03 74.9001 115.295Q74.9803 115.559 75.0475 115.827Q75.1146 116.096 75.1686 116.367Q75.2225 116.638 75.2631 116.911Q75.3036 117.185 75.3307 117.46Q75.3578 117.735 75.3714 118.011Q75.3849 118.287 75.3849 118.563L75.3849 118.565Q75.3849 118.842 75.3714 119.118Q75.3578 119.394 75.3307 119.669Q75.3036 119.944 75.2631 120.217Q75.2225 120.491 75.1686 120.762Q75.1146 121.033 75.0475 121.301Q74.9803 121.569 74.9001 121.834Q74.8199 122.098 74.7268 122.358Q74.6336 122.618 74.5279 122.874Q74.4221 123.129 74.3039 123.379Q74.1857 123.629 74.0555 123.873Q73.9252 124.116 73.7831 124.353Q73.641 124.591 73.4874 124.82Q73.3339 125.05 73.1692 125.272Q73.0046 125.494 72.8292 125.708Q72.6539 125.922 72.4683 126.126Q72.2826 126.331 72.0872 126.527Q71.8918 126.722 71.687 126.908Q71.4822 127.093 71.2685 127.269Q71.0549 127.444 70.8329 127.609Q70.6109 127.773 70.381 127.927Q70.1512 128.08 69.9142 128.222Q69.6771 128.365 69.4333 128.495Q69.1896 128.625 68.9397 128.743Q68.6898 128.861 68.4345 128.967Q68.1791 129.073 67.9189 129.166Q67.6587 129.259 67.3942 129.339Q67.1297 129.42 66.8616 129.487Q66.5935 129.554 66.3224 129.608Q66.0513 129.662 65.7779 129.702Q65.5045 129.743 65.2294 129.77Q64.9543 129.797 64.6783 129.811Q64.4022 129.824 64.1258 129.824L43.2093 129.824Q42.9329 129.824 42.6568 129.811Q42.3808 129.797 42.1057 129.77Q41.8306 129.743 41.5572 129.702Q41.2838 129.662 41.0127 129.608Q40.7417 129.554 40.4736 129.487Q40.2054 129.42 39.9409 129.339Q39.6765 129.259 39.4162 129.166Q39.156 129.073 38.9006 128.967Q38.6453 128.861 38.3954 128.743Q38.1455 128.625 37.9018 128.495Q37.658 128.365 37.421 128.222Q37.1839 128.08 36.9541 127.927Q36.7243 127.773 36.5023 127.609Q36.2803 127.444 36.0666 127.269Q35.8529 127.093 35.6481 126.908Q35.4433 126.722 35.2479 126.527Q35.0525 126.331 34.8668 126.126Q34.6812 125.922 34.5059 125.708Q34.3305 125.494 34.1659 125.272Q34.0012 125.05 33.8477 124.82Q33.6941 124.591 33.552 124.354Q33.4099 124.116 33.2797 123.873Q33.1494 123.629 33.0312 123.379Q32.913 123.129 32.8072 122.874Q32.7015 122.618 32.6084 122.358Q32.5152 122.098 32.435 121.834Q32.3548 121.569 32.2876 121.301Q32.2205 121.033 32.1665 120.762Q32.1126 120.491 32.0721 120.217Q32.0315 119.944 32.0044 119.669Q31.9773 119.394 31.9638 119.118Q31.9502 118.842 31.9502 118.565L31.9502 118.563Q31.9502 118.287 31.9638 118.011Q31.9773 117.735 32.0044 117.46Q32.0315 117.185 32.0721 116.911Q32.1126 116.638 32.1665 116.367Q32.2205 116.096 32.2876 115.827Q32.3548 115.559 32.435 115.295Q32.5152 115.03 32.6084 114.77Q32.7015 114.51 32.8072 114.254Q32.913 113.999 33.0312 113.749Q33.1494 113.499 33.2797 113.256Q33.4099 113.012 33.552 112.775Q33.6941 112.538 33.8477 112.308Q34.0013 112.078 34.1659 111.856Q34.3305 111.634 34.5059 111.42Q34.6812 111.207 34.8668 111.002Q35.0525 110.797 35.2479 110.602Q35.4433 110.406 35.6481 110.221Q35.8529 110.035 36.0666 109.86Q36.2803 109.684 36.5023 109.52Q36.7243 109.355 36.9541 109.202Q37.1839 109.048 37.421 108.906Q37.658 108.764 37.9018 108.634Q38.1455 108.503 38.3954 108.385Q38.6453 108.267 38.9006 108.161Q39.156 108.055 39.4162 107.962Q39.6765 107.869 39.9409 107.789Q40.2054 107.709 40.4736 107.641Q40.7417 107.574 41.0127 107.52Q41.2838 107.466 41.5572 107.426Q41.8306 107.385 42.1057 107.358Q42.3808 107.331 42.6568 107.318Q42.9329 107.304 43.2093 107.304Z" id="Rectangle-Copy-8" fill="#1B2C61" fill-rule="evenodd" stroke="none" />
    <path d="M219.504 107.304L240.421 107.304Q240.697 107.304 240.973 107.318Q241.249 107.331 241.524 107.358Q241.799 107.385 242.073 107.426Q242.346 107.466 242.617 107.52Q242.888 107.574 243.156 107.641Q243.425 107.709 243.689 107.789Q243.954 107.869 244.214 107.962Q244.474 108.055 244.729 108.161Q244.985 108.267 245.235 108.385Q245.484 108.503 245.728 108.634Q245.972 108.764 246.209 108.906Q246.446 109.048 246.676 109.202Q246.906 109.355 247.128 109.52Q247.35 109.684 247.563 109.86Q247.777 110.035 247.982 110.221Q248.187 110.406 248.382 110.602Q248.578 110.797 248.763 111.002Q248.949 111.207 249.124 111.42Q249.299 111.634 249.464 111.856Q249.629 112.078 249.782 112.308Q249.936 112.538 250.078 112.775Q250.22 113.012 250.35 113.256Q250.481 113.499 250.599 113.749Q250.717 113.999 250.823 114.254Q250.929 114.51 251.022 114.77Q251.115 115.03 251.195 115.295Q251.275 115.559 251.342 115.827Q251.41 116.096 251.463 116.367Q251.517 116.638 251.558 116.911Q251.598 117.185 251.626 117.46Q251.653 117.735 251.666 118.011Q251.68 118.287 251.68 118.563L251.68 118.565Q251.68 118.842 251.666 119.118Q251.653 119.394 251.626 119.669Q251.598 119.944 251.558 120.217Q251.517 120.491 251.463 120.762Q251.41 121.033 251.342 121.301Q251.275 121.569 251.195 121.834Q251.115 122.098 251.022 122.358Q250.929 122.618 250.823 122.874Q250.717 123.129 250.599 123.379Q250.481 123.629 250.35 123.873Q250.22 124.116 250.078 124.353Q249.936 124.591 249.782 124.82Q249.629 125.05 249.464 125.272Q249.299 125.494 249.124 125.708Q248.949 125.922 248.763 126.126Q248.578 126.331 248.382 126.527Q248.187 126.722 247.982 126.908Q247.777 127.093 247.563 127.269Q247.35 127.444 247.128 127.609Q246.906 127.773 246.676 127.927Q246.446 128.08 246.209 128.222Q245.972 128.365 245.728 128.495Q245.484 128.625 245.235 128.743Q244.985 128.861 244.729 128.967Q244.474 129.073 244.214 129.166Q243.954 129.259 243.689 129.339Q243.425 129.42 243.156 129.487Q242.888 129.554 242.617 129.608Q242.346 129.662 242.073 129.702Q241.799 129.743 241.524 129.77Q241.249 129.797 240.973 129.811Q240.697 129.824 240.421 129.824L219.504 129.824Q219.228 129.824 218.952 129.811Q218.676 129.797 218.401 129.77Q218.126 129.743 217.852 129.702Q217.579 129.662 217.308 129.608Q217.037 129.554 216.768 129.487Q216.5 129.42 216.236 129.339Q215.971 129.259 215.711 129.166Q215.451 129.073 215.196 128.967Q214.94 128.861 214.69 128.743Q214.44 128.625 214.197 128.495Q213.953 128.365 213.716 128.222Q213.479 128.08 213.249 127.927Q213.019 127.773 212.797 127.609Q212.575 127.444 212.362 127.269Q212.148 127.093 211.943 126.908Q211.738 126.722 211.543 126.527Q211.347 126.331 211.162 126.126Q210.976 125.922 210.801 125.708Q210.625 125.494 210.461 125.272Q210.296 125.05 210.143 124.82Q209.989 124.591 209.847 124.354Q209.705 124.116 209.575 123.873Q209.444 123.629 209.326 123.379Q209.208 123.129 209.102 122.874Q208.996 122.618 208.903 122.358Q208.81 122.098 208.73 121.834Q208.65 121.569 208.583 121.301Q208.515 121.033 208.461 120.762Q208.408 120.491 208.367 120.217Q208.326 119.944 208.299 119.669Q208.272 119.394 208.259 119.118Q208.245 118.842 208.245 118.565L208.245 118.563Q208.245 118.287 208.259 118.011Q208.272 117.735 208.299 117.46Q208.326 117.185 208.367 116.911Q208.408 116.638 208.461 116.367Q208.515 116.096 208.583 115.827Q208.65 115.559 208.73 115.295Q208.81 115.03 208.903 114.77Q208.996 114.51 209.102 114.254Q209.208 113.999 209.326 113.749Q209.444 113.499 209.575 113.256Q209.705 113.012 209.847 112.775Q209.989 112.538 210.143 112.308Q210.296 112.078 210.461 111.856Q210.625 111.634 210.801 111.42Q210.976 111.207 211.162 111.002Q211.347 110.797 211.543 110.602Q211.738 110.406 211.943 110.221Q212.148 110.035 212.362 109.86Q212.575 109.684 212.797 109.52Q213.019 109.355 213.249 109.202Q213.479 109.048 213.716 108.906Q213.953 108.764 214.197 108.634Q214.44 108.503 214.69 108.385Q214.94 108.267 215.196 108.161Q215.451 108.055 215.711 107.962Q215.971 107.869 216.236 107.789Q216.5 107.709 216.768 107.641Q217.037 107.574 217.308 107.52Q217.579 107.466 217.852 107.426Q218.126 107.385 218.401 107.358Q218.676 107.331 218.952 107.318Q219.228 107.304 219.504 107.304Z" id="Rectangle-Copy-9" fill="#1B2C61" fill-rule="evenodd" stroke="none" />
    <path d="M43.2093 138.671L122.89 138.671Q123.167 138.671 123.443 138.685Q123.719 138.698 123.994 138.725Q124.269 138.753 124.542 138.793Q124.816 138.834 125.087 138.888Q125.358 138.942 125.626 139.009Q125.894 139.076 126.159 139.156Q126.423 139.236 126.683 139.329Q126.944 139.423 127.199 139.528Q127.454 139.634 127.704 139.752Q127.954 139.87 128.198 140.001Q128.442 140.131 128.679 140.273Q128.916 140.415 129.146 140.569Q129.375 140.722 129.597 140.887Q129.819 141.052 130.033 141.227Q130.247 141.402 130.452 141.588Q130.656 141.774 130.852 141.969Q131.047 142.164 131.233 142.369Q131.418 142.574 131.594 142.788Q131.769 143.001 131.934 143.223Q132.098 143.445 132.252 143.675Q132.406 143.905 132.548 144.142Q132.69 144.379 132.82 144.623Q132.95 144.867 133.069 145.116Q133.187 145.366 133.292 145.622Q133.398 145.877 133.491 146.137Q133.584 146.398 133.665 146.662Q133.745 146.926 133.812 147.195Q133.879 147.463 133.933 147.734Q133.987 148.005 134.028 148.278Q134.068 148.552 134.095 148.827Q134.122 149.102 134.136 149.378Q134.15 149.654 134.15 149.93L134.15 149.932Q134.15 150.209 134.136 150.485Q134.122 150.761 134.095 151.036Q134.068 151.311 134.028 151.584Q133.987 151.858 133.933 152.129Q133.879 152.4 133.812 152.668Q133.745 152.936 133.665 153.201Q133.584 153.465 133.491 153.725Q133.398 153.986 133.292 154.241Q133.187 154.496 133.069 154.746Q132.95 154.996 132.82 155.24Q132.69 155.484 132.548 155.721Q132.406 155.958 132.252 156.188Q132.098 156.417 131.934 156.639Q131.769 156.861 131.594 157.075Q131.418 157.289 131.233 157.494Q131.047 157.698 130.852 157.894Q130.656 158.089 130.452 158.275Q130.247 158.46 130.033 158.636Q129.819 158.811 129.597 158.976Q129.375 159.14 129.146 159.294Q128.916 159.448 128.679 159.59Q128.442 159.732 128.198 159.862Q127.954 159.992 127.704 160.11Q127.454 160.229 127.199 160.334Q126.944 160.44 126.683 160.533Q126.423 160.626 126.159 160.707Q125.894 160.787 125.626 160.854Q125.358 160.921 125.087 160.975Q124.816 161.029 124.542 161.07Q124.269 161.11 123.994 161.137Q123.719 161.164 123.443 161.178Q123.167 161.191 122.89 161.191L43.2093 161.191Q42.9329 161.191 42.6568 161.178Q42.3808 161.164 42.1057 161.137Q41.8307 161.11 41.5573 161.07Q41.2838 161.029 41.0128 160.975Q40.7417 160.921 40.4736 160.854Q40.2054 160.787 39.941 160.707Q39.6765 160.626 39.4162 160.533Q39.156 160.44 38.9006 160.334Q38.6453 160.229 38.3954 160.11Q38.1456 159.992 37.9018 159.862Q37.658 159.732 37.421 159.59Q37.1839 159.448 36.9541 159.294Q36.7243 159.14 36.5023 158.976Q36.2803 158.811 36.0666 158.636Q35.8529 158.46 35.6481 158.275Q35.4434 158.089 35.2479 157.894Q35.0525 157.698 34.8669 157.494Q34.6812 157.289 34.5059 157.075Q34.3306 156.861 34.1659 156.639Q34.0013 156.417 33.8477 156.188Q33.6941 155.958 33.552 155.721Q33.4099 155.484 33.2797 155.24Q33.1494 154.996 33.0312 154.746Q32.913 154.496 32.8072 154.241Q32.7015 153.986 32.6084 153.725Q32.5152 153.465 32.435 153.201Q32.3548 152.936 32.2876 152.668Q32.2205 152.4 32.1665 152.129Q32.1126 151.858 32.0721 151.584Q32.0315 151.311 32.0044 151.036Q31.9773 150.761 31.9638 150.485Q31.9502 150.209 31.9502 149.932L31.9502 149.93Q31.9502 149.654 31.9638 149.378Q31.9773 149.102 32.0044 148.827Q32.0315 148.552 32.0721 148.278Q32.1126 148.005 32.1665 147.734Q32.2205 147.463 32.2876 147.195Q32.3548 146.926 32.435 146.662Q32.5152 146.398 32.6084 146.137Q32.7015 145.877 32.8072 145.622Q32.913 145.366 33.0312 145.116Q33.1494 144.867 33.2797 144.623Q33.4099 144.379 33.552 144.142Q33.6941 143.905 33.8477 143.675Q34.0013 143.445 34.1659 143.223Q34.3306 143.001 34.5059 142.788Q34.6812 142.574 34.8669 142.369Q35.0525 142.164 35.2479 141.969Q35.4434 141.774 35.6481 141.588Q35.8529 141.402 36.0666 141.227Q36.2803 141.052 36.5023 140.887Q36.7243 140.722 36.9541 140.569Q37.1839 140.415 37.421 140.273Q37.658 140.131 37.9018 140.001Q38.1456 139.87 38.3954 139.752Q38.6453 139.634 38.9006 139.528Q39.156 139.423 39.4162 139.329Q39.6765 139.236 39.941 139.156Q40.2054 139.076 40.4736 139.009Q40.7417 138.942 41.0128 138.888Q41.2838 138.834 41.5573 138.793Q41.8307 138.753 42.1057 138.725Q42.3808 138.698 42.6568 138.685Q42.9329 138.671 43.2093 138.671Z" id="Rectangle-Copy-10" fill="#1B2C61" fill-rule="evenodd" stroke="none" />
    <path d="M13.0933 0L267.688 0Q268.009 0 268.33 0.0157714Q268.651 0.0315429 268.971 0.0630478Q269.291 0.0945527 269.609 0.141715Q269.927 0.188878 270.242 0.251584Q270.557 0.31429 270.869 0.39239Q271.181 0.470489 271.489 0.563793Q271.796 0.657097 272.099 0.765381Q272.401 0.873665 272.698 0.996668Q272.995 1.11967 273.286 1.2571Q273.577 1.39452 273.86 1.54604Q274.143 1.69756 274.419 1.8628Q274.695 2.02805 274.962 2.20662Q275.229 2.38519 275.487 2.57666Q275.746 2.76813 275.994 2.97204Q276.243 3.17595 276.481 3.3918Q276.719 3.60766 276.946 3.83494Q277.173 4.06222 277.389 4.30037Q277.605 4.53853 277.809 4.787Q278.013 5.03546 278.204 5.29363Q278.396 5.5518 278.574 5.81905Q278.753 6.0863 278.918 6.362Q279.084 6.63769 279.235 6.92116Q279.387 7.20463 279.524 7.49519Q279.661 7.78575 279.784 8.08271Q279.907 8.37966 280.016 8.6823Q280.124 8.98493 280.217 9.29251Q280.311 9.60009 280.389 9.91188Q280.467 10.2237 280.53 10.5389Q280.592 10.8542 280.639 11.1721Q280.687 11.4901 280.718 11.8099Q280.75 12.1298 280.765 12.4508Q280.781 12.7719 280.781 13.0933L280.781 26.1886L0 26.1886L0 13.0933Q0 12.7719 0.0157714 12.4508Q0.0315429 12.1298 0.0630478 11.8099Q0.0945527 11.4901 0.141715 11.1721Q0.188878 10.8542 0.251584 10.5389Q0.31429 10.2237 0.39239 9.91188Q0.470489 9.60009 0.563793 9.29251Q0.657097 8.98493 0.765381 8.6823Q0.873665 8.37966 0.996668 8.08271Q1.11967 7.78575 1.2571 7.49519Q1.39452 7.20463 1.54604 6.92116Q1.69756 6.63769 1.8628 6.362Q2.02805 6.0863 2.20662 5.81905Q2.38519 5.5518 2.57666 5.29363Q2.76813 5.03546 2.97204 4.787Q3.17595 4.53853 3.3918 4.30038Q3.60766 4.06222 3.83494 3.83494Q4.06222 3.60766 4.30037 3.3918Q4.53853 3.17595 4.787 2.97204Q5.03546 2.76813 5.29363 2.57666Q5.5518 2.38519 5.81905 2.20662Q6.0863 2.02805 6.362 1.8628Q6.63769 1.69756 6.92116 1.54604Q7.20463 1.39452 7.49519 1.2571Q7.78575 1.11967 8.08271 0.996668Q8.37966 0.873665 8.6823 0.765381Q8.98493 0.657097 9.29251 0.563793Q9.60009 0.470489 9.91188 0.39239Q10.2237 0.31429 10.5389 0.251584Q10.8542 0.188878 11.1721 0.141715Q11.4901 0.0945527 11.8099 0.0630478Q12.1298 0.0315429 12.4508 0.0157714Q12.7719 0 13.0933 0L13.0933 0Z" id="Rectangle-7" fill="#CECECE" fill-rule="evenodd" stroke="none" />
    <path d="M8.94263 13.0942C8.94263 9.7429 11.6594 7.02612 15.0107 7.02612C18.362 7.02612 21.0788 9.7429 21.0788 13.0942C21.0788 16.4455 18.362 19.1623 15.0107 19.1623C11.6594 19.1623 8.94263 16.4455 8.94263 13.0942Z" id="Ellipse-10" fill="#FFFFFF" fill-rule="evenodd" stroke="none" />
    <path d="M26.8293 13.0942C26.8293 9.7429 29.5461 7.02612 32.8974 7.02612C36.2487 7.02612 38.9655 9.7429 38.9655 13.0942C38.9655 16.4455 36.2487 19.1623 32.8974 19.1623C29.5461 19.1623 26.8293 16.4455 26.8293 13.0942Z" id="Ellipse-10-Copy" fill="#FFFFFF" fill-rule="evenodd" stroke="none" />
    <path d="M44.7153 13.0942C44.7153 9.7429 47.4321 7.02612 50.7834 7.02612C54.1347 7.02612 56.8515 9.7429 56.8515 13.0942C56.8515 16.4455 54.1347 19.1623 50.7834 19.1623C47.4321 19.1623 44.7153 16.4455 44.7153 13.0942Z" id="Ellipse-10-Copy-2" fill="#FFFFFF" fill-rule="evenodd" stroke="none" />
  </g>
</svg>